{
.appVersion = "913";
DisplayStrings = (
"ncnnyvnno/Placeholder ol/Placeholder l\012oooo/Placeholder/Placeholder/Placeholder/Placeholder oooo\012nnnn/Placeholder/Placeholder/Placeholder/Placeholder nnnn\012aaaa/Placeholder/Placeholder/Placeholder/Placeholder/Placeholder aeeee",
"marmeren bouwman\012adhesion gierigst\012farsi schlie\U00DFfach tabc\012schreeftje scharige\012fragment toffy boy",
nnvnvwnw
);
copyright = "Nunito Font, Copyright (c) 2014, Vernon Adams (vern@newtypography.co.uk)";
customParameters = (
{
name = license;
value = "This Font Software is licensed under the SIL Open Font License, Version 1.1. This license is available with a FAQ at: http://scripts.sil.org/OFL";
},
{
name = licenseURL;
value = "http://scripts.sil.org/OFL";
},
{
name = vendorID;
value = NeWT;
},
{
name = trademark;
value = "Nunito is a trademark of Vernon Adams and may be registered in certain jurisdictions.";
},
{
name = fsType;
value = 0;
},
{
name = "Use Typo Metrics";
value = 1;
}
);
date = "2016-08-09 21:08:05 +0000";
designer = "Vernon Adams";
designerURL = "http://newtypography.co.uk";
familyName = Nunito;
featurePrefixes = (
{
automatic = 1;

glyphs = (
{
glyphname = A;
lastChange = "2016-08-12 14:12:20 +0000";
layers = (
{
anchors = (
{
name = bottom;
position = "{338, 0}";
},
{
name = ogonek;
position = "{618, 9}";
},
{
name = top;
position = "{336, 711}";
}
);
background = {
anchors = (
{
name = bottom;
position = "{338, 0}";
},
{
name = ogonek;
position = "{618, 9}";
},
{
name = top;
position = "{336, 711}";
}
);
paths = (
{
closed = 1;
nodes = (
"157 196 LINE",
"516 196 LINE",
"586 20 LINE SMOOTH",
"593 5 OFFCURVE",
"604 -1 OFFCURVE",
"616 -1 CURVE SMOOTH",
"630 -1 OFFCURVE",
"645 9 OFFCURVE",
"645 26 CURVE SMOOTH",
"645 31 OFFCURVE",
"644 36 OFFCURVE",
"642 42 CURVE",
"399 635 LINE SMOOTH",
"379 685 OFFCURVE",
"365 694 OFFCURVE",
"336 694 CURVE SMOOTH",
"309 694 OFFCURVE",
"293 685 OFFCURVE",
"274 635 CURVE SMOOTH",
"32 42 LINE",
"29 36 OFFCURVE",
"28 31 OFFCURVE",
"28 26 CURVE SMOOTH",
"28 9 OFFCURVE",
"43 -1 OFFCURVE",
"58 -1 CURVE SMOOTH",
"69 -1 OFFCURVE",
"81 5 OFFCURVE",
"87 20 CURVE SMOOTH"
);
},
{
closed = 1;
nodes = (
"498 242 LINE",
"176 242 LINE",
"336 644 LINE"
);
}
);
};
layerId = "9E718F8A-2CEA-4931-B05D-987794BD97DA";
paths = (
{
closed = 1;
nodes = (
"69 -1 OFFCURVE",
"81 5 OFFCURVE",
"87 20 CURVE SMOOTH",
"157 196 LINE",
"516 196 LINE",
"586 20 LINE SMOOTH",
"593 5 OFFCURVE",
"604 -1 OFFCURVE",
"616 -1 CURVE SMOOTH",
"630 -1 OFFCURVE",
"645 9 OFFCURVE",
"645 26 CURVE SMOOTH",
"645 31 OFFCURVE",
"644 36 OFFCURVE",
"642 42 CURVE",
"399 635 LINE SMOOTH",
"379 685 OFFCURVE",
"365 694 OFFCURVE",
"336 694 CURVE SMOOTH",
"309 694 OFFCURVE",
"293 685 OFFCURVE",
"274 635 CURVE SMOOTH",
"32 42 LINE",
"29 36 OFFCURVE",
"28 31 OFFCURVE",
"28 26 CURVE SMOOTH",
"28 9 OFFCURVE",
"43 -1 OFFCURVE",
"58 -1 CURVE SMOOTH"
);
},
{
closed = 1;
nodes = (
"336 644 LINE",
"498 242 LINE",
"176 242 LINE"
);
}
);
width = 676;
},
{
anchors = (
{
name = bottom;
position = "{363, 0}";
},
{
name = ogonek;
position = "{617, 9}";
},
{
name = top;
position = "{362, 702}";
}
);
background = {
anchors = (
{
name = bottom;
position = "{363, 0}";
},
{
name = ogonek;
position = "{617, 9}";
},
{
name = top;
position = "{362, 702}";
}
);
paths = (
{
closed = 1;
nodes = (
"220 162 LINE",
"507 162 LINE",
"539 70 LINE SMOOTH",
"555 22 OFFCURVE",
"589 1 OFFCURVE",
"622 1 CURVE SMOOTH",
"661 1 OFFCURVE",
"699 32 OFFCURVE",
"699 82 CURVE SMOOTH",
"699 94 OFFCURVE",
"697 107 OFFCURVE",
"692 122 CURVE",
"514 583 LINE",
"474 697 OFFCURVE",
"423 721 OFFCURVE",
"363 721 CURVE SMOOTH",
"303 721 OFFCURVE",
"252 697 OFFCURVE",
"213 583 CURVE",
"35 122 LINE",
"30 107 OFFCURVE",
"28 94 OFFCURVE",
"28 82 CURVE SMOOTH",
"28 32 OFFCURVE",
"65 1 OFFCURVE",
"105 1 CURVE SMOOTH",
"138 1 OFFCURVE",
"172 22 OFFCURVE",
"188 70 CURVE SMOOTH"
);
},
{
closed = 1;
nodes = (
"471 264 LINE",
"256 264 LINE",
"363 569 LINE"
);
}
);
};
layerId = "E1B555A7-F4E1-459C-9C1A-AE952106EEF9";
paths = (
{
closed = 1;
nodes = (
"138 1 OFFCURVE",
"172 22 OFFCURVE",
"188 70 CURVE SMOOTH",
"220 162 LINE",
"507 162 LINE",
"539 70 LINE SMOOTH",
"555 22 OFFCURVE",
"589 1 OFFCURVE",
"622 1 CURVE SMOOTH",
"661 1 OFFCURVE",
"699 32 OFFCURVE",
"699 82 CURVE SMOOTH",
"699 94 OFFCURVE",
"697 107 OFFCURVE",
"692 122 CURVE",
"514 583 LINE",
"474 697 OFFCURVE",
"423 721 OFFCURVE",
"363 721 CURVE SMOOTH",
"303 721 OFFCURVE",
"252 697 OFFCURVE",
"213 583 CURVE",
"35 122 LINE",
"30 107 OFFCURVE",
"28 94 OFFCURVE",
"28 82 CURVE SMOOTH",
"28 32 OFFCURVE",
"65 1 OFFCURVE",
"105 1 CURVE SMOOTH"
);
},
{
closed = 1;
nodes = (
"363 569 LINE",
"471 264 LINE",
"256 264 LINE"
);
}
);
width = 727;
}
);
unicode = 0041;
userData = {
anchors = (
);
b = {
};
com.typemytype.robofont.layerData = {
b = {
anchors = (
);
components = (
);
contours = (
{
points = (
{
segmentType = line;
smooth = 0;
x = 403;
y = 502;
},
{
segmentType = line;
smooth = 0;
x = 703;
y = 1275;
},
{
segmentType = line;
smooth = 0;
x = 705;
y = 1275;
},
{
segmentType = line;
smooth = 0;
x = 1004;
y = 502;
}
);
},
{
points = (
{
segmentType = curve;
smooth = 1;
x = 150;
y = 0;
},
{
smooth = 0;
x = 181;
y = 0;
},
{
smooth = 0;
x = 214;
y = 15;
},
{
segmentType = curve;
smooth = 1;
x = 229;
y = 53;
},
{
segmentType = line;
smooth = 0;
x = 356;
y = 373;
},
{
segmentType = line;
smooth = 0;
x = 1051;
y = 373;
},
{
segmentType = line;
smooth = 1;
x = 1179;
y = 53;
},
{
smooth = 0;
x = 1193;
y = 17;
},
{
smooth = 0;
x = 1228;
y = 0;
},
{
segmentType = curve;
smooth = 1;
x = 1260;
y = 0;
},
{
smooth = 0;
x = 1306;
y = 0;
},
{
smooth = 0;
x = 1354;
y = 31;
},
{
segmentType = curve;
smooth = 1;
x = 1354;
y = 80;
},
{
smooth = 0;
x = 1354;
y = 87;
},
{
smooth = 0;
x = 1352;
y = 97;
},
{
segmentType = curve;
smooth = 0;
x = 1349;
y = 108;
},
{
segmentType = line;
smooth = 1;
x = 871;
y = 1288;
},
{
smooth = 0;
x = 817;
y = 1420;
},
{
smooth = 0;
x = 777;
y = 1430;
},
{
segmentType = curve;
smooth = 1;
x = 710;
y = 1430;
},
{
smooth = 0;
x = 644;
y = 1430;
},
{
smooth = 0;
x = 596;
y = 1413;
},
{
segmentType = curve;
smooth = 1;
x = 542;
y = 1280;
},
{
segmentType = line;
smooth = 1;
x = 66;
y = 108;
},
{
smooth = 0;
x = 62;
y = 97;
},
{
smooth = 0;
x = 60;
y = 87;
},
{
segmentType = curve;
smooth = 1;
x = 60;
y = 78;
},
{
smooth = 0;
x = 60;
y = 32;
},
{
smooth = 0;
x = 106;
y = 0;
}
);
}
);
lib = {
};
name = A;
unicodes = (
);
width = 1414;
};
};
components = (
);
contours = {
};
lib = {
};
name = A;
points = {
};
segmentType = line;
unicodes = (
);
width = 1445;
x = 718;
y = 1232;
};
},
{
glyphname = AE;
lastChange = "2016-08-12 14:12:21 +0000";
layers = (
{
anchors = (
{
name = bottom;
position = "{478, 0}";
},
{
name = top;
position = "{624, 703}";
}
);
background = {
anchors = (
{
name = bottom;
position = "{478, 0}";
},
{
name = top;
position = "{624, 703}";
}
);
paths = (
{
closed = 1;
nodes = (
"190 188 LINE",
"546 188 LINE",
"576 16 LINE SMOOTH",
"579 0 OFFCURVE",
"594 0 OFFCURVE",
"608 0 CURVE SMOOTH",
"909 0 LINE SMOOTH",
"924 0 OFFCURVE",
"931 12 OFFCURVE",
"931 22 CURVE SMOOTH",
"931 38 OFFCURVE",
"918 55 OFFCURVE",
"897 55 CURVE SMOOTH",
"630 55 LINE",
"584 331 LINE",
"882 331 LINE SMOOTH",
"898 331 OFFCURVE",
"907 341 OFFCURVE",
"907 353 CURVE SMOOTH",
"907 369 OFFCURVE",
"894 385 OFFCURVE",
"873 385 CURVE SMOOTH",
"575 385 LINE",
"534 638 LINE",
"897 638 LINE SMOOTH",
"914 638 OFFCURVE",
"920 648 OFFCURVE",
"920 660 CURVE SMOOTH",
"920 675 OFFCURVE",
"908 693 OFFCURVE",
"887 693 CURVE SMOOTH",
"490 693 LINE SMOOTH",
"471 693 OFFCURVE",
"451 688 OFFCURVE",
"418 638 CURVE SMOOTH",
"30 39 LINE SMOOTH",
"26 33 OFFCURVE",
"24 28 OFFCURVE",
"24 24 CURVE SMOOTH",
"24 9 OFFCURVE",
"35 -1 OFFCURVE",
"50 -1 CURVE SMOOTH",
"60 -1 OFFCURVE",
"71 3 OFFCURVE",
"79 16 CURVE SMOOTH"
);
},
{
closed = 1;
nodes = (
"474 637 LINE",
"539 244 LINE",
"228 244 LINE",
"472 637 LINE"
);
}
);
};
layerId = "9E718F8A-2CEA-4931-B05D-987794BD97DA";
paths = (
{
closed = 1;
nodes = (
"60 -1 OFFCURVE",
"71 3 OFFCURVE",
"79 16 CURVE SMOOTH",
"190 188 LINE",
"546 188 LINE",
"576 16 LINE SMOOTH",
"579 0 OFFCURVE",
"594 0 OFFCURVE",
"608 0 CURVE SMOOTH",
"909 0 LINE SMOOTH",
"924 0 OFFCURVE",
"931 12 OFFCURVE",
"931 22 CURVE SMOOTH",
"931 38 OFFCURVE",
"918 55 OFFCURVE",
"897 55 CURVE SMOOTH",
"630 55 LINE",
"584 331 LINE",
"882 331 LINE SMOOTH",
"898 331 OFFCURVE",
"907 341 OFFCURVE",
"907 353 CURVE SMOOTH",
"907 369 OFFCURVE",
"894 385 OFFCURVE",
"873 385 CURVE SMOOTH",
"575 385 LINE",
"534 638 LINE",
"897 638 LINE SMOOTH",
"914 638 OFFCURVE",
"920 648 OFFCURVE",
"920 660 CURVE SMOOTH",
"920 675 OFFCURVE",
"908 693 OFFCURVE",
"887 693 CURVE SMOOTH",
"490 693 LINE SMOOTH",
"471 693 OFFCURVE",
"451 688 OFFCURVE",
"418 638 CURVE SMOOTH",
"30 39 LINE SMOOTH",
"26 33 OFFCURVE",
"24 28 OFFCURVE",
"24 24 CURVE SMOOTH",
"24 9 OFFCURVE",
"35 -1 OFFCURVE",
"50 -1 CURVE SMOOTH"
);
},
{
closed = 1;
nodes = (
"472 637 LINE",
"474 637 LINE",
"539 244 LINE",
"228 244 LINE"
);
}
);
width = 955;
},
{
anchors = (
{
name = bottom;
position = "{486, 0}";
},
{
name = top;
position = "{628, 709}";
}
);
background = {
anchors = (
{
name = bottom;
position = "{486, 0}";
},
{
name = top;
position = "{628, 709}";
}
);
paths = (
{
closed = 1;
nodes = (
"248 159 LINE",
"522 159 LINE",
"531 118 LINE",
"542 32 OFFCURVE",
"563 0 OFFCURVE",
"622 0 CURVE SMOOTH",
"871 0 LINE SMOOTH",
"922 0 OFFCURVE",
"954 11 OFFCURVE",
"954 59 CURVE SMOOTH",
"954 120 OFFCURVE",
"930 132 OFFCURVE",
"862 132 CURVE SMOOTH",
"699 132 LINE",
"672 294 LINE",
"854 294 LINE SMOOTH",
"909 294 OFFCURVE",
"933 305 OFFCURVE",
"933 358 CURVE SMOOTH",
"933 416 OFFCURVE",
"889 427 OFFCURVE",
"843 427 CURVE SMOOTH",
"658 427 LINE",
"634 577 LINE",
"863 577 LINE SMOOTH",
"919 577 OFFCURVE",
"951 587 OFFCURVE",
"951 641 CURVE SMOOTH",
"951 695 OFFCURVE",
"908 710 OFFCURVE",
"860 710 CURVE SMOOTH",
"478 709 LINE SMOOTH",
"381 709 OFFCURVE",
"336 640 OFFCURVE",
"265 491 CURVE",
"59 148 LINE",
"45 120 OFFCURVE",
"32 87 OFFCURVE",
"31 63 CURVE SMOOTH",
"31 24 OFFCURVE",
"62 2 OFFCURVE",
"97 2 CURVE SMOOTH",
"143 2 OFFCURVE",
"169 38 OFFCURVE",
"200 92 CURVE"
);
},
{
closed = 1;
nodes = (
"467 610 LINE",
"510 263 LINE",
"292 263 LINE",
"465 610 LINE"
);
}
);
};
layerId = "E1B555A7-F4E1-459C-9C1A-AE952106EEF9";
paths = (
{
closed = 1;
nodes = (
"871 0 LINE SMOOTH",
"922 0 OFFCURVE",
"954 11 OFFCURVE",
"954 59 CURVE SMOOTH",
"954 120 OFFCURVE",
"930 132 OFFCURVE",
"862 132 CURVE SMOOTH",
"699 132 LINE",
"672 294 LINE",
"854 294 LINE SMOOTH",
"909 294 OFFCURVE",
"933 305 OFFCURVE",
"933 358 CURVE SMOOTH",
"933 416 OFFCURVE",
"889 427 OFFCURVE",
"843 427 CURVE SMOOTH",
"658 427 LINE",
"634 577 LINE",
"863 577 LINE SMOOTH",
"919 577 OFFCURVE",
"951 587 OFFCURVE",
"951 641 CURVE SMOOTH",
"951 695 OFFCURVE",
"908 710 OFFCURVE",
"860 710 CURVE SMOOTH",
"478 709 LINE SMOOTH",
"381 709 OFFCURVE",
"336 640 OFFCURVE",
"265 491 CURVE",
"59 148 LINE",
"45 120 OFFCURVE",
"32 87 OFFCURVE",
"31 63 CURVE SMOOTH",
"31 24 OFFCURVE",
"62 2 OFFCURVE",
"97 2 CURVE SMOOTH",
"143 2 OFFCURVE",
"169 38 OFFCURVE",
"200 92 CURVE",
"248 159 LINE",
"522 159 LINE",
"531 118 LINE",
"542 32 OFFCURVE",
"563 0 OFFCURVE",
"622 0 CURVE SMOOTH"
);
},
{
closed = 1;
nodes = (
"465 610 LINE",
"467 610 LINE",
"510 263 LINE",
"292 263 LINE"
);
}
);
width = 972;
}
);
unicode = 00C6;
userData = {
com.typemytype.robofont.layerData = {
b = {
anchors = (
);
components = (
);
contours = (
);
lib = {
};
name = AE;
unicodes = (
);
width = 1976;
};
};
};
},
{
glyphname = B;
lastChange = "2016-08-12 14:12:21 +0000";
layers = (
{
anchors = (
{
name = bottom;
position = "{303, 0}";
},
{
name = top;
position = "{312, 702}";
}
);
background = {
anchors = (
{
name = bottom;
position = "{303, 0}";
},
{
name = top;
position = "{312, 702}";
}
);
paths = (
{
closed = 1;
nodes = (
"119 693 LINE SMOOTH",
"103 693 OFFCURVE",
"88 681 OFFCURVE",
"88 664 CURVE SMOOTH",
"88 29 LINE SMOOTH",
"88 12 OFFCURVE",
"103 0 OFFCURVE",
"119 0 CURVE SMOOTH",
"348 0 LINE SMOOTH",
"508 0 OFFCURVE",
"566 90 OFFCURVE",
"566 187 CURVE SMOOTH",
"566 290 OFFCURVE",
"494 353 OFFCURVE",
"385 361 CURVE",
"385 363 LINE",
"484 369 OFFCURVE",
"539 447 OFFCURVE",
"539 517 CURVE SMOOTH",
"539 625 OFFCURVE",
"472 693 OFFCURVE",
"296 693 CURVE SMOOTH"
);
},
{
closed = 1;
nodes = (
"147 382 LINE",
"147 646 LINE",
"303 646 LINE SMOOTH",
"388 646 OFFCURVE",
"479 626 OFFCURVE",
"479 520 CURVE SMOOTH",
"479 424 OFFCURVE",
"414 382 OFFCURVE",
"297 382 CURVE SMOOTH"
);
},
{
closed = 1;
nodes = (
"147 47 LINE",
"147 335 LINE",
"295 335 LINE SMOOTH",
"432 335 OFFCURVE",
"503 294 OFFCURVE",
"503 195 CURVE SMOOTH",
"503 83 OFFCURVE",
"448 47 OFFCURVE",
"330 47 CURVE SMOOTH"
);
}
);
};
layerId = "9E718F8A-2CEA-4931-B05D-987794BD97DA";
paths = (
{
closed = 1;
nodes = (
"348 0 LINE SMOOTH",
"508 0 OFFCURVE",
"566 90 OFFCURVE",
"566 187 CURVE SMOOTH",
"566 290 OFFCURVE",
"494 353 OFFCURVE",
"385 361 CURVE",
"385 363 LINE",
"484 369 OFFCURVE",
"539 447 OFFCURVE",
"539 517 CURVE SMOOTH",
"539 625 OFFCURVE",
"472 693 OFFCURVE",
"296 693 CURVE SMOOTH",
"119 693 LINE SMOOTH",
"103 693 OFFCURVE",
"88 681 OFFCURVE",
"88 664 CURVE SMOOTH",
"88 29 LINE SMOOTH",
"88 12 OFFCURVE",
"103 0 OFFCURVE",
"119 0 CURVE SMOOTH"
);
},
{
closed = 1;
nodes = (
"147 335 LINE",
"295 335 LINE SMOOTH",
"432 335 OFFCURVE",
"503 294 OFFCURVE",
"503 195 CURVE SMOOTH",
"503 83 OFFCURVE",
"448 47 OFFCURVE",
"330 47 CURVE SMOOTH",
"147 47 LINE"
);
},
{
closed = 1;
nodes = (
"147 646 LINE",
"303 646 LINE SMOOTH",
"388 646 OFFCURVE",
"479 626 OFFCURVE",
"479 520 CURVE SMOOTH",
"479 424 OFFCURVE",
"414 382 OFFCURVE",
"297 382 CURVE SMOOTH",
"147 382 LINE"
);
}
);
width = 606;
},
{
anchors = (
{
name = bottom;
position = "{348, 0}";
},
{
name = top;
position = "{344, 702}";
}
);
background = {
anchors = (
{
name = bottom;
position = "{348, 0}";
},
{
name = top;
position = "{344, 702}";
}
);
paths = (
{
closed = 1;
nodes = (
"186 710 LINE SMOOTH",
"125 710 OFFCURVE",
"73 686 OFFCURVE",
"73 620 CURVE SMOOTH",
"73 138 LINE SMOOTH",
"73 16 OFFCURVE",
"113 0 OFFCURVE",
"186 0 CURVE SMOOTH",
"405 0 LINE SMOOTH",
"575 0 OFFCURVE",
"652 98 OFFCURVE",
"652 198 CURVE SMOOTH",
"652 285 OFFCURVE",
"590 355 OFFCURVE",
"493 370 CURVE",
"493 372 LINE",
"573 385 OFFCURVE",
"626 457 OFFCURVE",
"626 531 CURVE SMOOTH",
"626 705 OFFCURVE",
"481 710 OFFCURVE",
"353 710 CURVE SMOOTH"
);
},
{
closed = 1;
nodes = (
"245 405 LINE",
"245 599 LINE",
"318 599 LINE SMOOTH",
"394 599 OFFCURVE",
"457 583 OFFCURVE",
"457 503 CURVE SMOOTH",
"457 423 OFFCURVE",
"395 405 OFFCURVE",
"308 405 CURVE SMOOTH"
);
},
{
closed = 1;
nodes = (
"245 111 LINE",
"245 318 LINE",
"311 318 LINE SMOOTH",
"411 318 OFFCURVE",
"476 296 OFFCURVE",
"476 218 CURVE SMOOTH",
"476 129 OFFCURVE",
"420 111 OFFCURVE",
"316 111 CURVE SMOOTH"
);
}
);
};
layerId = "E1B555A7-F4E1-459C-9C1A-AE952106EEF9";
paths = (
{
closed = 1;
nodes = (
"405 0 LINE SMOOTH",
"575 0 OFFCURVE",
"652 98 OFFCURVE",
"652 198 CURVE SMOOTH",
"652 285 OFFCURVE",
"590 355 OFFCURVE",
"493 370 CURVE",
"493 372 LINE",
"573 385 OFFCURVE",
"626 457 OFFCURVE",
"626 531 CURVE SMOOTH",
"626 705 OFFCURVE",
"481 710 OFFCURVE",
"353 710 CURVE SMOOTH",
"186 710 LINE SMOOTH",
"125 710 OFFCURVE",
"73 686 OFFCURVE",
"73 620 CURVE SMOOTH",
"73 138 LINE SMOOTH",
"73 16 OFFCURVE",
"113 0 OFFCURVE",
"186 0 CURVE SMOOTH"
);
},
{
closed = 1;
nodes = (
"245 318 LINE",
"311 318 LINE SMOOTH",
"411 318 OFFCURVE",
"476 296 OFFCURVE",
"476 218 CURVE SMOOTH",
"476 129 OFFCURVE",
"420 111 OFFCURVE",
"316 111 CURVE SMOOTH",
"245 111 LINE"
);
},
{
closed = 1;
nodes = (
"245 599 LINE",
"318 599 LINE SMOOTH",
"394 599 OFFCURVE",
"457 583 OFFCURVE",
"457 503 CURVE SMOOTH",
"457 423 OFFCURVE",
"395 405 OFFCURVE",
"308 405 CURVE SMOOTH",
"245 405 LINE"
);
}
);
width = 695;
}
);
unicode = 0042;
userData = {
anchors = (
);
b = {
};
com.typemytype.robofont.layerData = {
b = {
anchors = (
);
components = (
);
contours = (
{
points = (
{
segmentType = curve;
smooth = 1;
x = 266;
y = 0;
},
{
segmentType = line;
smooth = 1;
x = 1035;
y = 0;
},
{
smooth = 0;
x = 1084;
y = 0;
},
{
smooth = 0;
x = 1108;
y = 36;
},
{
segmentType = curve;
smooth = 1;
x = 1108;
y = 73;
},
{
smooth = 0;
x = 1108;
y = 109;
},
{
smooth = 0;
x = 1084;
y = 145;
},
{
segmentType = curve;
smooth = 1;
x = 1035;
y = 145;
},
{
segmentType = line;
smooth = 0;
x = 353;
y = 145;
},
{
segmentType = line;
smooth = 0;
x = 353;
y = 662;
},
{
segmentType = line;
smooth = 1;
x = 975;
y = 662;
},
{
smooth = 0;
x = 1024;
y = 662;
},
{
smooth = 0;
x = 1049;
y = 698;
},
{
segmentType = curve;
smooth = 1;
x = 1049;
y = 734;
},
{
smooth = 0;
x = 1049;
y = 770;
},
{
smooth = 0;
x = 1026;
y = 806;
},
{
segmentType = curve;
smooth = 1;
x = 975;
y = 806;
},
{
segmentType = line;
smooth = 0;
x = 353;
y = 806;
},
{
segmentType = line;
smooth = 0;
x = 353;
y = 1281;
},
{
segmentType = line;
smooth = 1;
x = 1007;
y = 1281;
},
{
smooth = 0;
x = 1056;
y = 1281;
},
{
smooth = 0;
x = 1080;
y = 1317;
},
{
segmentType = curve;
smooth = 1;
x = 1080;
y = 1354;
},
{
smooth = 0;
x = 1080;
y = 1390;
},
{
smooth = 0;
x = 1056;
y = 1426;
},
{
segmentType = curve;
smooth = 1;
x = 1007;
y = 1426;
},
{
segmentType = line;
smooth = 1;
x = 261;
y = 1426;
},
{
smooth = 0;
x = 213;
y = 1426;
},
{
smooth = 0;
x = 178;
y = 1383;
},
{
segmentType = curve;
smooth = 1;
x = 178;
y = 1340;
},
{
segmentType = line;
smooth = 1;
x = 178;
y = 86;
},
{
smooth = 0;
x = 178;
y = 41;
},
{
smooth = 0;
x = 222;
y = 0;
}
);
}
);
lib = {
};
name = B;
unicodes = (
);
width = 1292;
};
};
components = (
);
contours = {
};
lib = {
};
name = B;
points = {
};
segmentType = curve;
unicodes = (
);
width = 1395;
x = 676;
y = 1260;
};
},
{
glyphname = C;
lastChange = "2016-08-12 14:12:21 +0000";
layers = (
{
anchors = (
{
name = bottom;
position = "{371, 7}";
},
{
name = top;
position = "{385, 702}";
}
);
background = {
anchors = (
{
name = bottom;
position = "{371, 7}";
},
{
name = top;
position = "{385, 702}";
}
);
paths = (
{
closed = 1;
nodes = (
"160 689 OFFCURVE",
"68 505 OFFCURVE",
"68 338 CURVE SMOOTH",
"68 158 OFFCURVE",
"158 -11 OFFCURVE",
"381 -11 CURVE SMOOTH",
"465 -11 OFFCURVE",
"524 20 OFFCURVE",
"557 42 CURVE SMOOTH",
"573 52 OFFCURVE",
"580 63 OFFCURVE",
"580 72 CURVE SMOOTH",
"580 83 OFFCURVE",
"568 92 OFFCURVE",
"556 92 CURVE SMOOTH",
"551 92 OFFCURVE",
"545 90 OFFCURVE",
"540 86 CURVE",
"493 58 OFFCURVE",
"452 38 OFFCURVE",
"385 38 CURVE SMOOTH",
"188 38 OFFCURVE",
"132 204 OFFCURVE",
"132 338 CURVE SMOOTH",
"132 472 OFFCURVE",
"191 641 OFFCURVE",
"384 641 CURVE SMOOTH",
"481 641 OFFCURVE",
"514 618 OFFCURVE",
"530 607 CURVE SMOOTH",
"537 604 OFFCURVE",
"542 602 OFFCURVE",
"546 602 CURVE SMOOTH",
"559 602 OFFCURVE",
"565 613 OFFCURVE",
"565 624 CURVE SMOOTH",
"565 631 OFFCURVE",
"563 638 OFFCURVE",
"558 642 CURVE",
"555 646 OFFCURVE",
"504 689 OFFCURVE",
"384 689 CURVE SMOOTH"
);
}
);
};
layerId = "9E718F8A-2CEA-4931-B05D-987794BD97DA";
paths = (
{
closed = 1;
nodes = (
"465 -11 OFFCURVE",
"524 20 OFFCURVE",
"557 42 CURVE SMOOTH",
"573 52 OFFCURVE",
"580 63 OFFCURVE",
"580 72 CURVE SMOOTH",
"580 83 OFFCURVE",
"568 92 OFFCURVE",
"556 92 CURVE SMOOTH",
"551 92 OFFCURVE",
"545 90 OFFCURVE",
"540 86 CURVE",
"493 58 OFFCURVE",
"452 38 OFFCURVE",
"385 38 CURVE SMOOTH",
"188 38 OFFCURVE",
"132 204 OFFCURVE",
"132 338 CURVE SMOOTH",
"132 472 OFFCURVE",
"191 641 OFFCURVE",
"384 641 CURVE SMOOTH",
"481 641 OFFCURVE",
"514 618 OFFCURVE",
"530 607 CURVE SMOOTH",
"537 604 OFFCURVE",
"542 602 OFFCURVE",
"546 602 CURVE SMOOTH",
"559 602 OFFCURVE",
"565 613 OFFCURVE",
"565 624 CURVE SMOOTH",
"565 631 OFFCURVE",
"563 638 OFFCURVE",
"558 642 CURVE",
"555 646 OFFCURVE",
"504 689 OFFCURVE",
"384 689 CURVE SMOOTH",
"160 689 OFFCURVE",
"68 505 OFFCURVE",
"68 338 CURVE SMOOTH",
"68 158 OFFCURVE",
"158 -11 OFFCURVE",
"381 -11 CURVE SMOOTH"
);
}
);
width = 661;
},
{
anchors = (
{
name = bottom;
position = "{390, 0}";
},
{
name = top;
position = "{403, 702}";
}
);
background = {
anchors = (
{
name = bottom;
position = "{390, 0}";
},
{
name = top;
position = "{403, 702}";
}
);
paths = (
{
closed = 1;
nodes = (
"206 726 OFFCURVE",
"50 586 OFFCURVE",
"50 348 CURVE SMOOTH",
"50 110 OFFCURVE",
"208 -19 OFFCURVE",
"400 -19 CURVE SMOOTH",
"499 -19 OFFCURVE",
"568 8 OFFCURVE",
"620 48 CURVE SMOOTH",
"646 68 OFFCURVE",
"655 91 OFFCURVE",
"655 111 CURVE SMOOTH",
"655 146 OFFCURVE",
"629 174 OFFCURVE",
"601 174 CURVE SMOOTH",
"594 174 OFFCURVE",
"587 172 OFFCURVE",
"581 169 CURVE SMOOTH",
"530 141 OFFCURVE",
"463 124 OFFCURVE",
"415 124 CURVE SMOOTH",
"296 124 OFFCURVE",
"236 205 OFFCURVE",
"236 353 CURVE SMOOTH",
"236 555 OFFCURVE",
"323 583 OFFCURVE",
"421 583 CURVE SMOOTH",
"474 583 OFFCURVE",
"522 566 OFFCURVE",
"556 551 CURVE SMOOTH",
"567 546 OFFCURVE",
"577 544 OFFCURVE",
"587 544 CURVE SMOOTH",
"624 544 OFFCURVE",
"648 577 OFFCURVE",
"648 612 CURVE SMOOTH",
"648 636 OFFCURVE",
"637 661 OFFCURVE",
"611 678 CURVE",
"583 692 OFFCURVE",
"525 726 OFFCURVE",
"411 726 CURVE SMOOTH"
);
}
);
};
layerId = "E1B555A7-F4E1-459C-9C1A-AE952106EEF9";
paths = (
{
closed = 1;
nodes = (
"499 -19 OFFCURVE",
"568 8 OFFCURVE",
"620 48 CURVE SMOOTH",
"646 68 OFFCURVE",
"655 91 OFFCURVE",
"655 111 CURVE SMOOTH",
"655 146 OFFCURVE",
"629 174 OFFCURVE",
"601 174 CURVE SMOOTH",
"594 174 OFFCURVE",
"587 172 OFFCURVE",
"581 169 CURVE SMOOTH",
"530 141 OFFCURVE",
"463 124 OFFCURVE",
"415 124 CURVE SMOOTH",
"296 124 OFFCURVE",
"236 205 OFFCURVE",
"236 353 CURVE SMOOTH",
"236 555 OFFCURVE",
"323 583 OFFCURVE",
"421 583 CURVE SMOOTH",
"474 583 OFFCURVE",
"522 566 OFFCURVE",
"556 551 CURVE SMOOTH",
"567 546 OFFCURVE",
"577 544 OFFCURVE",
"587 544 CURVE SMOOTH",
"624 544 OFFCURVE",
"648 577 OFFCURVE",
"648 612 CURVE SMOOTH",
"648 636 OFFCURVE",
"637 661 OFFCURVE",
"611 678 CURVE",
"583 692 OFFCURVE",
"525 726 OFFCURVE",
"411 726 CURVE SMOOTH",
"206 726 OFFCURVE",
"50 586 OFFCURVE",
"50 348 CURVE SMOOTH",
"50 110 OFFCURVE",
"208 -19 OFFCURVE",
"400 -19 CURVE SMOOTH"
);
}
);
width = 684;
}
);
unicode = 0043;
userData = {
anchors = (
);
b = {
};
com.typemytype.robofont.layerData = {
b = {
anchors = (
);
components = (
);
contours = (
);
lib = {
};
name = C;
unicodes = (
);
width = 1353.8900;
};
};
components = (
);
contours = (
);
lib = {
};
name = C;
unicodes = (
);
width = 1354;
};
},
{
glyphname = D;
lastChange = "2016-08-12 14:12:21 +0000";
layers = (
{
anchors = (
{
name = bottom;
position = "{361, 0}";
},
{
name = center;
position = "{361, 347}";
},
{
name = mid;
position = "{145, 341}";
},
{
name = top;
position = "{388, 702}";
}
);
background = {
anchors = (
{
name = bottom;
position = "{361, 0}";
},
{
name = center;
position = "{361, 347}";
},
{
name = mid;
position = "{145, 341}";
},
{
name = top;
position = "{388, 702}";
}
);
paths = (
{
closed = 1;
nodes = (
"119 696 LINE SMOOTH",
"102 696 OFFCURVE",
"88 683 OFFCURVE",
"88 667 CURVE SMOOTH",
"88 32 LINE SMOOTH",
"88 17 OFFCURVE",
"102 3 OFFCURVE",
"119 3 CURVE SMOOTH",
"280 3 LINE SMOOTH",
"518 3 OFFCURVE",
"652 120 OFFCURVE",
"652 349 CURVE SMOOTH",
"652 579 OFFCURVE",
"520 696 OFFCURVE",
"284 696 CURVE SMOOTH"
);
},
{
closed = 1;
nodes = (
"149 51 LINE",
"149 648 LINE",
"261 648 LINE SMOOTH",
"482 648 OFFCURVE",
"589 566 OFFCURVE",
"589 349 CURVE SMOOTH",
"589 159 OFFCURVE",
"507 51 OFFCURVE",
"281 51 CURVE SMOOTH"
);
}
);
};
layerId = "9E718F8A-2CEA-4931-B05D-987794BD97DA";
paths = (
{
closed = 1;
nodes = (
"280 3 LINE SMOOTH",
"518 3 OFFCURVE",
"652 120 OFFCURVE",
"652 349 CURVE SMOOTH",
"652 579 OFFCURVE",
"520 696 OFFCURVE",
"284 696 CURVE SMOOTH",
"119 696 LINE SMOOTH",
"102 696 OFFCURVE",
"88 683 OFFCURVE",
"88 667 CURVE SMOOTH",
"88 32 LINE SMOOTH",
"88 17 OFFCURVE",
"102 3 OFFCURVE",
"119 3 CURVE SMOOTH"
);
},
{
closed = 1;
nodes = (
"149 648 LINE",
"261 648 LINE SMOOTH",
"482 648 OFFCURVE",
"589 566 OFFCURVE",
"589 349 CURVE SMOOTH",
"589 159 OFFCURVE",
"507 51 OFFCURVE",
"281 51 CURVE SMOOTH",
"149 51 LINE"
);
}
);
width = 721;
},
{
anchors = (
{
name = bottom;
position = "{377, 0}";
},
{
name = center;
position = "{377, 355}";
},
{
name = mid;
position = "{167, 358}";
},
{
name = top;
position = "{364, 702}";
}
);
background = {
anchors = (
{
name = bottom;
position = "{377, 0}";
},
{
name = center;
position = "{377, 355}";
},
{
name = mid;
position = "{167, 358}";
},
{
name = top;
position = "{364, 702}";
}
);
paths = (
{
closed = 1;
nodes = (
"196 710 LINE SMOOTH",
"105 710 OFFCURVE",
"73 671 OFFCURVE",
"73 573 CURVE SMOOTH",
"73 137 LINE SMOOTH",
"73 69 OFFCURVE",
"92 0 OFFCURVE",
"162 0 CURVE SMOOTH",
"315 0 LINE SMOOTH",
"570 0 OFFCURVE",
"704 119 OFFCURVE",
"704 350 CURVE SMOOTH",
"704 588 OFFCURVE",
"565 710 OFFCURVE",
"301 710 CURVE SMOOTH"
);
},
{
closed = 1;
nodes = (
"251 123 LINE",
"251 587 LINE",
"311 587 LINE SMOOTH",
"457 587 OFFCURVE",
"515 528 OFFCURVE",
"515 354 CURVE SMOOTH",
"515 179 OFFCURVE",
"456 123 OFFCURVE",
"307 123 CURVE SMOOTH"
);
}
);
};
layerId = "E1B555A7-F4E1-459C-9C1A-AE952106EEF9";
paths = (
{
closed = 1;
nodes = (
"315 0 LINE SMOOTH",
"570 0 OFFCURVE",
"704 119 OFFCURVE",
"704 350 CURVE SMOOTH",
"704 588 OFFCURVE",
"565 710 OFFCURVE",
"301 710 CURVE SMOOTH",
"196 710 LINE SMOOTH",
"105 710 OFFCURVE",
"73 671 OFFCURVE",
"73 573 CURVE SMOOTH",
"73 137 LINE SMOOTH",
"73 69 OFFCURVE",
"92 0 OFFCURVE",
"162 0 CURVE SMOOTH"
);
},
{
closed = 1;
nodes = (
"251 587 LINE",
"311 587 LINE SMOOTH",
"457 587 OFFCURVE",
"515 528 OFFCURVE",
"515 354 CURVE SMOOTH",
"515 179 OFFCURVE",
"456 123 OFFCURVE",
"307 123 CURVE SMOOTH",
"251 123 LINE"
);
}
);
width = 753;
}
);
unicode = 0044;
userData = {
anchors = (
);
b = {
};
com.typemytype.robofont.layerData = {
b = {
anchors = (
);
components = (
);
contours = (
{
points = (
{
segmentType = curve;
smooth = 1;
x = 266;
y = 0;
},
{
segmentType = line;
smooth = 1;
x = 1035;
y = 0;
},
{
smooth = 0;
x = 1084;
y = 0;
},
{
smooth = 0;
x = 1108;
y = 34;
},
{
segmentType = curve;
smooth = 1;
x = 1108;
y = 71;
},
{
smooth = 0;
x = 1108;
y = 107;
},
{
smooth = 0;
x = 1084;
y = 141;
},
{
segmentType = curve;
smooth = 1;
x = 1035;
y = 141;
},
{
segmentType = line;
smooth = 0;
x = 356;
y = 141;
},
{
segmentType = line;
smooth = 0;
x = 356;
y = 665;
},
{
segmentType = line;
smooth = 1;
x = 975;
y = 665;
},
{
smooth = 0;
x = 1024;
y = 665;
},
{
smooth = 0;
x = 1049;
y = 698;
},
{
segmentType = curve;
smooth = 1;
x = 1049;
y = 734;
},
{
smooth = 0;
x = 1049;
y = 770;
},
{
smooth = 0;
x = 1026;
y = 803;
},
{
segmentType = curve;
smooth = 1;
x = 975;
y = 803;
},
{
segmentType = line;
smooth = 0;
x = 356;
y = 803;
},
{
segmentType = line;
smooth = 0;
x = 356;
y = 1285;
},
{
segmentType = line;
smooth = 1;
x = 1007;
y = 1285;
},
{
smooth = 0;
x = 1056;
y = 1285;
},
{
smooth = 0;
x = 1080;
y = 1319;
},
{
segmentType = curve;
smooth = 1;
x = 1080;
y = 1356;
},
{
smooth = 0;
x = 1080;
y = 1392;
},
{
smooth = 0;
x = 1056;
y = 1426;
},
{
segmentType = curve;
smooth = 1;
x = 1007;
y = 1426;
},
{
segmentType = line;
smooth = 1;
x = 261;
y = 1426;
},
{
smooth = 0;
x = 213;
y = 1426;
},
{
smooth = 0;
x = 178;
y = 1383;
},
{
segmentType = curve;
smooth = 1;
x = 178;
y = 1340;
},
{
segmentType = line;
smooth = 1;
x = 178;
y = 86;
},
{
smooth = 0;
x = 178;
y = 41;
},
{
smooth = 0;
x = 222;
y = 0;
}
);
}
);
lib = {
};
name = D;
unicodes = (
);
width = 1499;
};
};
components = (
);
contours = (
);
lib = {
};
name = D;
unicodes = (
);
width = 1535;
};
},
{
glyphname = E;
lastChange = "2016-08-12 14:12:21 +0000";
layers = (
{
anchors = (
{
name = bottom;
position = "{308, 0}";
},
{
name = ogonek;
position = "{391, 4}";
},
{
name = top;
position = "{309, 702}";
},
{
name = topleft;
position = "{10, 693}";
}
);
background = {
anchors = (
{
name = bottom;
position = "{308, 0}";
},
{
name = ogonek;
position = "{391, 4}";
},
{
name = top;
position = "{309, 702}";
},
{
name = topleft;
position = "{10, 693}";
}
);
paths = (
{
closed = 1;
nodes = (
"149 48 LINE",
"149 334 LINE",
"472 334 LINE SMOOTH",
"491 334 OFFCURVE",
"500 344 OFFCURVE",
"500 358 CURVE SMOOTH",
"500 371 OFFCURVE",
"492 381 OFFCURVE",
"472 381 CURVE SMOOTH",
"149 381 LINE",
"149 645 LINE",
"485 645 LINE SMOOTH",
"504 645 OFFCURVE",
"514 655 OFFCURVE",
"514 669 CURVE SMOOTH",
"514 683 OFFCURVE",
"504 693 OFFCURVE",
"485 693 CURVE SMOOTH",
"116 693 LINE SMOOTH",
"100 693 OFFCURVE",
"88 677 OFFCURVE",
"88 664 CURVE SMOOTH",
"88 29 LINE SMOOTH",
"88 15 OFFCURVE",
"104 0 OFFCURVE",
"119 0 CURVE SMOOTH",
"501 0 LINE SMOOTH",
"520 0 OFFCURVE",
"529 10 OFFCURVE",
"529 25 CURVE SMOOTH",
"529 39 OFFCURVE",
"520 48 OFFCURVE",
"501 48 CURVE SMOOTH"
);
}
);
};
layerId = "9E718F8A-2CEA-4931-B05D-987794BD97DA";
paths = (
{
closed = 1;
nodes = (
"501 0 LINE SMOOTH",
"520 0 OFFCURVE",
"529 10 OFFCURVE",
"529 25 CURVE SMOOTH",
"529 39 OFFCURVE",
"520 48 OFFCURVE",
"501 48 CURVE SMOOTH",
"149 48 LINE",
"149 334 LINE",
"472 334 LINE SMOOTH",
"491 334 OFFCURVE",
"500 344 OFFCURVE",
"500 358 CURVE SMOOTH",
"500 371 OFFCURVE",
"492 381 OFFCURVE",
"472 381 CURVE SMOOTH",
"149 381 LINE",
"149 645 LINE",
"485 645 LINE SMOOTH",
"504 645 OFFCURVE",
"514 655 OFFCURVE",
"514 669 CURVE SMOOTH",
"514 683 OFFCURVE",
"504 693 OFFCURVE",
"485 693 CURVE SMOOTH",
"116 693 LINE SMOOTH",
"100 693 OFFCURVE",
"88 677 OFFCURVE",
"88 664 CURVE SMOOTH",
"88 29 LINE SMOOTH",
"88 15 OFFCURVE",
"104 0 OFFCURVE",
"119 0 CURVE SMOOTH"
);
}
);
width = 596;
},
{
anchors = (
{
name = bottom;
position = "{333, 0}";
},
{
name = ogonek;
position = "{408, 4}";
},
{
name = top;
position = "{325, 702}";
},
{
name = topleft;
position = "{10, 711}";
}
);
background = {
anchors = (
{
name = bottom;
position = "{333, 0}";
},
{
name = ogonek;
position = "{408, 4}";
},
{
name = top;
position = "{325, 702}";
},
{
name = topleft;
position = "{10, 711}";
}
);
paths = (
{
closed = 1;
nodes = (
"248 131 LINE",
"248 295 LINE",
"478 295 LINE SMOOTH",
"516 295 OFFCURVE",
"546 323 OFFCURVE",
"546 360 CURVE SMOOTH",
"546 398 OFFCURVE",
"516 427 OFFCURVE",
"478 427 CURVE SMOOTH",
"248 427 LINE",
"248 579 LINE",
"500 579 LINE SMOOTH",
"538 579 OFFCURVE",
"568 606 OFFCURVE",
"568 644 CURVE SMOOTH",
"568 681 OFFCURVE",
"538 710 OFFCURVE",
"500 710 CURVE SMOOTH",
"186 710 LINE SMOOTH",
"85 710 OFFCURVE",
"73 651 OFFCURVE",
"73 568 CURVE SMOOTH",
"73 125 LINE SMOOTH",
"73 66 OFFCURVE",
"95 0 OFFCURVE",
"161 0 CURVE SMOOTH",
"512 0 LINE SMOOTH",
"547 0 OFFCURVE",
"575 28 OFFCURVE",
"575 65 CURVE SMOOTH",
"575 103 OFFCURVE",
"547 131 OFFCURVE",
"512 131 CURVE SMOOTH"
);
}
);
};
layerId = "E1B555A7-F4E1-459C-9C1A-AE952106EEF9";
paths = (
{
closed = 1;
nodes = (
"512 0 LINE SMOOTH",
"547 0 OFFCURVE",
"575 28 OFFCURVE",
"575 65 CURVE SMOOTH",
"575 103 OFFCURVE",
"547 131 OFFCURVE",
"512 131 CURVE SMOOTH",
"248 131 LINE",
"248 295 LINE",
"478 295 LINE SMOOTH",
"516 295 OFFCURVE",
"546 323 OFFCURVE",
"546 360 CURVE SMOOTH",
"546 398 OFFCURVE",
"516 427 OFFCURVE",
"478 427 CURVE SMOOTH",
"248 427 LINE",
"248 579 LINE",
"500 579 LINE SMOOTH",
"538 579 OFFCURVE",
"568 606 OFFCURVE",
"568 644 CURVE SMOOTH",
"568 681 OFFCURVE",
"538 710 OFFCURVE",
"500 710 CURVE SMOOTH",
"186 710 LINE SMOOTH",
"85 710 OFFCURVE",
"73 651 OFFCURVE",
"73 568 CURVE SMOOTH",
"73 125 LINE SMOOTH",
"73 66 OFFCURVE",
"95 0 OFFCURVE",
"161 0 CURVE SMOOTH"
);
}
);
width = 610;
}
);
unicode = 0045;
userData = {
anchors = (
);
b = {
};
com.typemytype.robofont.layerData = {
b = {
anchors = (
);
components = (
);
contours = (
);
lib = {
};
name = E;
unicodes = (
);
width = 1234;
};
};
components = (
);
contours = (
);
lib = {
};
name = E;
unicodes = (
);
width = 1258;
};
},
{
glyphname = F;
lastChange = "2016-08-12 14:12:21 +0000";
layers = (
{
anchors = (
{
name = bottom;
position = "{274, 0}";
},
{
name = top;
position = "{274, 693}";
}
);
background = {
anchors = (
{
name = bottom;
position = "{274, 0}";
},
{
name = top;
position = "{274, 693}";
}
);
paths = (
{
closed = 1;
nodes = (
"150 385 LINE",
"150 645 LINE",
"465 645 LINE SMOOTH",
"484 645 OFFCURVE",
"493 655 OFFCURVE",
"493 669 CURVE SMOOTH",
"493 683 OFFCURVE",
"484 693 OFFCURVE",
"465 693 CURVE SMOOTH",
"117 693 LINE SMOOTH",
"102 693 OFFCURVE",
"89 683 OFFCURVE",
"89 665 CURVE SMOOTH",
"89 28 LINE SMOOTH",
"89 9 OFFCURVE",
"104 0 OFFCURVE",
"120 0 CURVE SMOOTH",
"135 0 OFFCURVE",
"150 8 OFFCURVE",
"150 28 CURVE SMOOTH",
"150 337 LINE",
"453 337 LINE SMOOTH",
"472 337 OFFCURVE",
"482 348 OFFCURVE",
"482 362 CURVE SMOOTH",
"482 376 OFFCURVE",
"472 385 OFFCURVE",
"453 385 CURVE SMOOTH"
);
}
);
};
layerId = "9E718F8A-2CEA-4931-B05D-987794BD97DA";
paths = (
{
closed = 1;
nodes = (
"135 0 OFFCURVE",
"150 8 OFFCURVE",
"150 28 CURVE SMOOTH",
"150 337 LINE",
"453 337 LINE SMOOTH",
"472 337 OFFCURVE",
"482 348 OFFCURVE",
"482 362 CURVE SMOOTH",
"482 376 OFFCURVE",
"472 385 OFFCURVE",
"453 385 CURVE SMOOTH",
"150 385 LINE",
"150 645 LINE",
"465 645 LINE SMOOTH",
"484 645 OFFCURVE",
"493 655 OFFCURVE",
"493 669 CURVE SMOOTH",
"493 683 OFFCURVE",
"484 693 OFFCURVE",
"465 693 CURVE SMOOTH",
"117 693 LINE SMOOTH",
"102 693 OFFCURVE",
"89 683 OFFCURVE",
"89 665 CURVE SMOOTH",
"89 28 LINE SMOOTH",
"89 9 OFFCURVE",
"104 0 OFFCURVE",
"120 0 CURVE SMOOTH"
);
}
);
width = 548;
},
{
anchors = (
{
name = bottom;
position = "{285, 0}";
},
{
name = top;
position = "{285, 711}";
}
);
background = {
anchors = (
{
name = bottom;
position = "{285, 0}";
},
{
name = top;
position = "{285, 711}";
}
);
paths = (
{
closed = 1;
nodes = (
"254 429 LINE",
"254 579 LINE",
"491 579 LINE SMOOTH",
"526 579 OFFCURVE",
"554 606 OFFCURVE",
"554 644 CURVE SMOOTH",
"554 681 OFFCURVE",
"526 710 OFFCURVE",
"491 710 CURVE SMOOTH",
"187 710 LINE SMOOTH",
"126 710 OFFCURVE",
"73 683 OFFCURVE",
"73 615 CURVE SMOOTH",
"73 102 LINE SMOOTH",
"73 46 OFFCURVE",
"113 0 OFFCURVE",
"163 0 CURVE SMOOTH",
"213 0 OFFCURVE",
"253 46 OFFCURVE",
"253 102 CURVE SMOOTH",
"254 297 LINE",
"476 297 LINE SMOOTH",
"511 297 OFFCURVE",
"539 325 OFFCURVE",
"539 362 CURVE SMOOTH",
"539 400 OFFCURVE",
"511 429 OFFCURVE",
"476 429 CURVE SMOOTH"
);
}
);
};
layerId = "E1B555A7-F4E1-459C-9C1A-AE952106EEF9";
paths = (
{
closed = 1;
nodes = (
"213 0 OFFCURVE",
"253 46 OFFCURVE",
"253 102 CURVE SMOOTH",
"254 297 LINE",
"476 297 LINE SMOOTH",
"511 297 OFFCURVE",
"539 325 OFFCURVE",
"539 362 CURVE SMOOTH",
"539 400 OFFCURVE",
"511 429 OFFCURVE",
"476 429 CURVE SMOOTH",
"254 429 LINE",
"254 579 LINE",
"491 579 LINE SMOOTH",
"526 579 OFFCURVE",
"554 606 OFFCURVE",
"554 644 CURVE SMOOTH",
"554 681 OFFCURVE",
"526 710 OFFCURVE",
"491 710 CURVE SMOOTH",
"187 710 LINE SMOOTH",
"126 710 OFFCURVE",
"73 683 OFFCURVE",
"73 615 CURVE SMOOTH",
"73 102 LINE SMOOTH",
"73 46 OFFCURVE",
"113 0 OFFCURVE",
"163 0 CURVE SMOOTH"
);
}
);
width = 569;
}
);
unicode = 0046;
userData = {
anchors = (
);
b = {
};
com.typemytype.robofont.layerData = {
b = {
anchors = (
);
components = (
);
contours = (
{
points = (
{
segmentType = curve;
smooth = 1;
x = 266;
y = 0;
},
{
segmentType = line;
smooth = 1;
x = 1035;
y = 0;
},
{
smooth = 0;
x = 1084;
y = 0;
},
{
smooth = 0;
x = 1108;
y = 34;
},
{
segmentType = curve;
smooth = 1;
x = 1108;
y = 71;
},
{
smooth = 0;
x = 1108;
y = 107;
},
{
smooth = 0;
x = 1084;
y = 141;
},
{
segmentType = curve;
smooth = 1;
x = 1035;
y = 141;
},
{
segmentType = line;
smooth = 0;
x = 353;
y = 141;
},
{
segmentType = line;
smooth = 0;
x = 353;
y = 665;
},
{
segmentType = line;
smooth = 1;
x = 975;
y = 665;
},
{
smooth = 0;
x = 1024;
y = 665;
},
{
smooth = 0;
x = 1049;
y = 698;
},
{
segmentType = curve;
smooth = 1;
x = 1049;
y = 734;
},
{
smooth = 0;
x = 1049;
y = 770;
},
{
smooth = 0;
x = 1026;
y = 803;
},
{
segmentType = curve;
smooth = 1;
x = 975;
y = 803;
},
{
segmentType = line;
smooth = 0;
x = 353;
y = 803;
},
{
segmentType = line;
smooth = 0;
x = 353;
y = 1285;
},
{
segmentType = line;
smooth = 1;
x = 1007;
y = 1285;
},
{
smooth = 0;
x = 1056;
y = 1285;
},
{
smooth = 0;
x = 1080;
y = 1319;
},
{
segmentType = curve;
smooth = 1;
x = 1080;
y = 1356;
},
{
smooth = 0;
x = 1080;
y = 1392;
},
{
smooth = 0;
x = 1056;
y = 1426;
},
{
segmentType = curve;
smooth = 1;
x = 1007;
y = 1426;
},
{
segmentType = line;
smooth = 1;
x = 261;
y = 1426;
},
{
smooth = 0;
x = 213;
y = 1426;
},
{
smooth = 0;
x = 178;
y = 1383;
},
{
segmentType = curve;
smooth = 1;
x = 178;
y = 1340;
},
{
segmentType = line;
smooth = 1;
x = 178;
y = 86;
},
{
smooth = 0;
x = 178;
y = 41;
},
{
smooth = 0;
x = 222;
y = 0;
}
);
}
);
lib = {
};
name = F;
unicodes = (
);
width = 1142;
};
};
components = (
);
contours = (
);
lib = {
};
name = F;
unicodes = (
);
width = 1175;
};
},
{
glyphname = G;
lastChange = "2016-08-12 14:12:21 +0000";
layers = (
{
anchors = (
{
name = bottom;
position = "{409, 0}";
},
{
name = top;
position = "{436, 693}";
}
);
background = {
anchors = (
{
name = bottom;
position = "{409, 0}";
},
{
name = top;
position = "{436, 693}";
}
);
paths = (
{
closed = 1;
nodes = (
"571 304 LINE",
"571 65 LINE",
"521 50 OFFCURVE",
"446 38 OFFCURVE",
"391 38 CURVE SMOOTH",
"199 38 OFFCURVE",
"132 186 OFFCURVE",
"132 338 CURVE SMOOTH",
"132 517 OFFCURVE",
"229 641 OFFCURVE",
"407 641 CURVE SMOOTH",
"459 641 OFFCURVE",
"521 628 OFFCURVE",
"578 609 CURVE",
"578 609 OFFCURVE",
"583 609 OFFCURVE",
"583 609 CURVE",
"595 609 OFFCURVE",
"604 621 OFFCURVE",
"604 634 CURVE SMOOTH",
"604 642 OFFCURVE",
"601 650 OFFCURVE",
"592 654 CURVE SMOOTH",
"537 677 OFFCURVE",
"470 689 OFFCURVE",
"403 689 CURVE SMOOTH",
"178 689 OFFCURVE",
"68 519 OFFCURVE",
"68 343 CURVE SMOOTH",
"68 100 OFFCURVE",
"210 -11 OFFCURVE",
"380 -11 CURVE SMOOTH",
"465 -11 OFFCURVE",
"553 4 OFFCURVE",
"611 29 CURVE SMOOTH",
"620 34 OFFCURVE",
"631 52 OFFCURVE",
"631 64 CURVE SMOOTH",
"631 325 LINE SMOOTH",
"631 341 OFFCURVE",
"620 352 OFFCURVE",
"604 352 CURVE SMOOTH",
"417 352 LINE SMOOTH",
"399 352 OFFCURVE",
"390 339 OFFCURVE",
"390 327 CURVE SMOOTH",
"390 316 OFFCURVE",
"399 304 OFFCURVE",
"417 304 CURVE SMOOTH"
);
}
);
};
layerId = "9E718F8A-2CEA-4931-B05D-987794BD97DA";
paths = (
{
closed = 1;
nodes = (
"465 -11 OFFCURVE",
"553 4 OFFCURVE",
"611 29 CURVE SMOOTH",
"620 34 OFFCURVE",
"631 52 OFFCURVE",
"631 64 CURVE SMOOTH",
"631 325 LINE SMOOTH",
"631 341 OFFCURVE",
"620 352 OFFCURVE",
"604 352 CURVE SMOOTH",
"417 352 LINE SMOOTH",
"399 352 OFFCURVE",
"390 339 OFFCURVE",
"390 327 CURVE SMOOTH",
"390 316 OFFCURVE",
"399 304 OFFCURVE",
"417 304 CURVE SMOOTH",
"571 304 LINE",
"571 65 LINE",
"521 50 OFFCURVE",
"446 38 OFFCURVE",
"391 38 CURVE SMOOTH",
"199 38 OFFCURVE",
"132 186 OFFCURVE",
"132 338 CURVE SMOOTH",
"132 517 OFFCURVE",
"229 641 OFFCURVE",
"407 641 CURVE SMOOTH",
"459 641 OFFCURVE",
"521 628 OFFCURVE",
"578 609 CURVE",
"578 609 OFFCURVE",
"583 609 OFFCURVE",
"583 609 CURVE",
"595 609 OFFCURVE",
"604 621 OFFCURVE",
"604 634 CURVE SMOOTH",
"604 642 OFFCURVE",
"601 650 OFFCURVE",
"592 654 CURVE SMOOTH",
"537 677 OFFCURVE",
"470 689 OFFCURVE",
"403 689 CURVE SMOOTH",
"178 689 OFFCURVE",
"68 519 OFFCURVE",
"68 343 CURVE SMOOTH",
"68 100 OFFCURVE",
"210 -11 OFFCURVE",
"380 -11 CURVE SMOOTH"
);
}
);
width = 694;
},
{
anchors = (
{
name = bottom;
position = "{427, 0}";
},
{
name = top;
position = "{403, 702}";
}
);
background = {
anchors = (
{
name = bottom;
position = "{427, 0}";
},
{
name = top;
position = "{403, 702}";
}
);
paths = (
{
closed = 1;
nodes = (
"536 279 LINE",
"536 133 LINE",
"500 125 OFFCURVE",
"465 120 OFFCURVE",
"432 120 CURVE SMOOTH",
"322 120 OFFCURVE",
"238 169 OFFCURVE",
"238 344 CURVE SMOOTH",
"238 502 OFFCURVE",
"303 590 OFFCURVE",
"433 590 CURVE SMOOTH",
"485 590 OFFCURVE",
"555 576 OFFCURVE",
"595 553 CURVE SMOOTH",
"605 546 OFFCURVE",
"616 542 OFFCURVE",
"625 542 CURVE SMOOTH",
"659 542 OFFCURVE",
"684 573 OFFCURVE",
"684 607 CURVE SMOOTH",
"684 624 OFFCURVE",
"675 648 OFFCURVE",
"652 664 CURVE SMOOTH",
"599 702 OFFCURVE",
"505 726 OFFCURVE",
"422 726 CURVE SMOOTH",
"166 726 OFFCURVE",
"50 559 OFFCURVE",
"50 354 CURVE SMOOTH",
"50 95 OFFCURVE",
"195 -19 OFFCURVE",
"423 -19 CURVE SMOOTH",
"471 -19 OFFCURVE",
"535 -10 OFFCURVE",
"582 -4 CURVE",
"690 16 OFFCURVE",
"705 52 OFFCURVE",
"705 166 CURVE SMOOTH",
"705 294 LINE SMOOTH",
"705 354 OFFCURVE",
"696 382 OFFCURVE",
"645 382 CURVE",
"460 383 LINE",
"419 383 OFFCURVE",
"400 363 OFFCURVE",
"400 332 CURVE SMOOTH",
"400 289 OFFCURVE",
"430 279 OFFCURVE",
"470 279 CURVE SMOOTH"
);
}
);
};
layerId = "E1B555A7-F4E1-459C-9C1A-AE952106EEF9";
paths = (
{
closed = 1;
nodes = (
"471 -19 OFFCURVE",
"535 -10 OFFCURVE",
"582 -4 CURVE",
"690 16 OFFCURVE",
"705 52 OFFCURVE",
"705 166 CURVE SMOOTH",
"705 294 LINE SMOOTH",
"705 354 OFFCURVE",
"696 382 OFFCURVE",
"645 382 CURVE",
"460 383 LINE",
"419 383 OFFCURVE",
"400 363 OFFCURVE",
"400 332 CURVE SMOOTH",
"400 289 OFFCURVE",
"430 279 OFFCURVE",
"470 279 CURVE SMOOTH",
"536 279 LINE",
"536 133 LINE",
"500 125 OFFCURVE",
"465 120 OFFCURVE",
"432 120 CURVE SMOOTH",
"322 120 OFFCURVE",
"238 169 OFFCURVE",
"238 344 CURVE SMOOTH",
"238 502 OFFCURVE",
"303 590 OFFCURVE",
"433 590 CURVE SMOOTH",
"485 590 OFFCURVE",
"555 576 OFFCURVE",
"595 553 CURVE SMOOTH",
"605 546 OFFCURVE",
"616 542 OFFCURVE",
"625 542 CURVE SMOOTH",
"659 542 OFFCURVE",
"684 573 OFFCURVE",
"684 607 CURVE SMOOTH",
"684 624 OFFCURVE",
"675 648 OFFCURVE",
"652 664 CURVE SMOOTH",
"599 702 OFFCURVE",
"505 726 OFFCURVE",
"422 726 CURVE SMOOTH",
"166 726 OFFCURVE",
"50 559 OFFCURVE",
"50 354 CURVE SMOOTH",
"50 95 OFFCURVE",
"195 -19 OFFCURVE",
"423 -19 CURVE SMOOTH"
);
}
);
width = 746;
}
);
unicode = 0047;
userData = {
anchors = (
);
b = {
};
com.typemytype.robofont.layerData = {
b = {
anchors = (
);
components = (
);
contours = (
{
points = (
{
segmentType = curve;
smooth = 1;
x = 783;
y = "-22";
},
{
smooth = 0;
x = 965;
y = "-22";
},
{
smooth = 0;
x = 1086;
y = 34;
},
{
segmentType = curve;
smooth = 1;
x = 1166;
y = 86;
},
{
smooth = 0;
x = 1270;
y = 154;
},
{
smooth = 0;
x = 1186;
y = 258;
},
{
segmentType = curve;
smooth = 1;
x = 1112;
y = 214;
},
{
smooth = 0;
x = 1024;
y = 162;
},
{
smooth = 0;
x = 939;
y = 120;
},
{
segmentType = curve;
smooth = 1;
x = 806;
y = 120;
},
{
smooth = 0;
x = 446;
y = 120;
},
{
smooth = 0;
x = 316;
y = 406;
},
{
segmentType = curve;
smooth = 1;
x = 316;
y = 706;
},
{
smooth = 0;
x = 316;
y = 1005;
},
{
smooth = 0;
x = 450;
y = 1296;
},
{
segmentType = curve;
smooth = 1;
x = 801;
y = 1296;
},
{
smooth = 0;
x = 980;
y = 1296;
},
{
smooth = 0;
x = 1053;
y = 1246;
},
{
segmentType = curve;
smooth = 1;
x = 1094;
y = 1225;
},
{
smooth = 0;
x = 1174;
y = 1184;
},
{
smooth = 0;
x = 1231;
y = 1300;
},
{
segmentType = curve;
smooth = 1;
x = 1156;
y = 1343;
},
{
smooth = 0;
x = 1106;
y = 1372;
},
{
smooth = 0;
x = 995;
y = 1438;
},
{
segmentType = curve;
smooth = 1;
x = 797;
y = 1438;
},
{
smooth = 0;
x = 359;
y = 1438;
},
{
smooth = 0;
x = 128;
y = 1093;
},
{
segmentType = curve;
smooth = 1;
x = 128;
y = 704;
},
{
smooth = 0;
x = 128;
y = 307;
},
{
smooth = 0;
x = 350;
y = "-22";
}
);
}
);
lib = {
};
name = G;
unicodes = (
);
width = 1448;
};
};
components = (
);
contours = (
);
lib = {
};
name = G;
unicodes = (
);
width = 1538;
};
},
{
glyphname = H;
lastChange = "2016-08-12 14:12:21 +0000";
layers = (
{
anchors = (
{
name = bottom;
position = "{349, 0}";
},
{
name = center;
position = "{349, 347}";
},
{
name = top;
position = "{370, 702}";
},
{
name = topleft;
position = "{10, 693}";
}
);
background = {
anchors = (
{
name = bottom;
position = "{349, 0}";
},
{
name = center;
position = "{349, 347}";
},
{
name = top;
position = "{370, 702}";
},
{
name = topleft;
position = "{10, 693}";
}
);
paths = (
{
closed = 1;
nodes = (
"548 384 LINE",
"149 384 LINE",
"149 666 LINE SMOOTH",
"149 684 OFFCURVE",
"134 693 OFFCURVE",
"120 693 CURVE SMOOTH",
"104 693 OFFCURVE",
"88 684 OFFCURVE",
"88 666 CURVE SMOOTH",
"88 27 LINE SMOOTH",
"88 9 OFFCURVE",
"104 0 OFFCURVE",
"119 0 CURVE SMOOTH",
"134 0 OFFCURVE",
"149 8 OFFCURVE",
"149 27 CURVE SMOOTH",
"149 335 LINE",
"548 335 LINE",
"548 27 LINE SMOOTH",
"548 9 OFFCURVE",
"563 0 OFFCURVE",
"578 0 CURVE SMOOTH",
"593 0 OFFCURVE",
"609 8 OFFCURVE",
"609 27 CURVE SMOOTH",
"609 666 LINE SMOOTH",
"609 684 OFFCURVE",
"594 693 OFFCURVE",
"578 693 CURVE SMOOTH",
"563 693 OFFCURVE",
"548 684 OFFCURVE",
"548 666 CURVE SMOOTH"
);
}
);
};
layerId = "9E718F8A-2CEA-4931-B05D-987794BD97DA";
paths = (
{
closed = 1;
nodes = (
"134 0 OFFCURVE",
"149 8 OFFCURVE",
"149 27 CURVE SMOOTH",
"149 335 LINE",
"548 335 LINE",
"548 27 LINE SMOOTH",
"548 9 OFFCURVE",
"563 0 OFFCURVE",
"578 0 CURVE SMOOTH",
"593 0 OFFCURVE",
"609 8 OFFCURVE",
"609 27 CURVE SMOOTH",
"609 666 LINE SMOOTH",
"609 684 OFFCURVE",
"594 693 OFFCURVE",
"578 693 CURVE SMOOTH",
"563 693 OFFCURVE",
"548 684 OFFCURVE",
"548 666 CURVE SMOOTH",
"548 384 LINE",
"149 384 LINE",
"149 666 LINE SMOOTH",
"149 684 OFFCURVE",
"134 693 OFFCURVE",
"120 693 CURVE SMOOTH",
"104 693 OFFCURVE",
"88 684 OFFCURVE",
"88 666 CURVE SMOOTH",
"88 27 LINE SMOOTH",
"88 9 OFFCURVE",
"104 0 OFFCURVE",
"119 0 CURVE SMOOTH"
);
}
);
width = 697;
},
{
anchors = (
{
name = bottom;
position = "{380, 0}";
},
{
name = center;
position = "{380, 355}";
},
{
name = top;
position = "{384, 702}";
},
{
name = topleft;
position = "{10, 711}";
}
);
background = {
anchors = (
{
name = bottom;
position = "{380, 0}";
},
{
name = center;
position = "{380, 355}";
},
{
name = top;
position = "{384, 702}";
},
{
name = topleft;
position = "{10, 711}";
}
);
paths = (
{
closed = 1;
nodes = (
"506 440 LINE",
"253 440 LINE",
"253 609 LINE SMOOTH",
"253 665 OFFCURVE",
"213 711 OFFCURVE",
"163 711 CURVE SMOOTH",
"113 711 OFFCURVE",
"73 665 OFFCURVE",
"73 609 CURVE SMOOTH",
"73 102 LINE SMOOTH",
"73 46 OFFCURVE",
"113 0 OFFCURVE",
"163 0 CURVE SMOOTH",
"213 0 OFFCURVE",
"253 46 OFFCURVE",
"253 102 CURVE SMOOTH",
"253 294 LINE",
"506 294 LINE",
"507 102 LINE SMOOTH",
"507 46 OFFCURVE",
"547 0 OFFCURVE",
"597 0 CURVE SMOOTH",
"646 0 OFFCURVE",
"687 46 OFFCURVE",
"687 102 CURVE SMOOTH",
"687 609 LINE SMOOTH",
"687 665 OFFCURVE",
"646 711 OFFCURVE",
"597 711 CURVE SMOOTH",
"547 711 OFFCURVE",
"506 665 OFFCURVE",
"506 609 CURVE SMOOTH"
);
}
);
};
layerId = "E1B555A7-F4E1-459C-9C1A-AE952106EEF9";
paths = (
{
closed = 1;
nodes = (
"213 0 OFFCURVE",
"253 46 OFFCURVE",
"253 102 CURVE SMOOTH",
"253 294 LINE",
"506 294 LINE",
"507 102 LINE SMOOTH",
"507 46 OFFCURVE",
"547 0 OFFCURVE",
"597 0 CURVE SMOOTH",
"646 0 OFFCURVE",
"687 46 OFFCURVE",
"687 102 CURVE SMOOTH",
"687 609 LINE SMOOTH",
"687 665 OFFCURVE",
"646 711 OFFCURVE",
"597 711 CURVE SMOOTH",
"547 711 OFFCURVE",
"506 665 OFFCURVE",
"506 609 CURVE SMOOTH",
"506 440 LINE",
"253 440 LINE",
"253 609 LINE SMOOTH",
"253 665 OFFCURVE",
"213 711 OFFCURVE",
"163 711 CURVE SMOOTH",
"113 711 OFFCURVE",
"73 665 OFFCURVE",
"73 609 CURVE SMOOTH",
"73 102 LINE SMOOTH",
"73 46 OFFCURVE",
"113 0 OFFCURVE",
"163 0 CURVE SMOOTH"
);
}
);
width = 760;
}
);
unicode = 0048;
userData = {
anchors = (
);
b = {
};
com.typemytype.robofont.layerData = {
b = {
anchors = (
);
components = (
);
contours = (
);
lib = {
};
name = H;
unicodes = (
);
width = 1464;
};
};
components = (
);
contours = (
);
lib = {
};
name = H;
unicodes = (
);
width = 1524;
};
},
{
glyphname = Hbar;
lastChange = "2016-08-12 14:12:21 +0000";
layers = (
{
background = {
components = (
{
name = H;
}
);
paths = (
{
closed = 1;
nodes = (
"62 547 LINE SMOOTH",
"44 547 OFFCURVE",
"32 540 OFFCURVE",
"32 525 CURVE SMOOTH",
"32 511 OFFCURVE",
"44 504 OFFCURVE",
"62 504 CURVE SMOOTH",
"641 504 LINE SMOOTH",
"659 504 OFFCURVE",
"671 511 OFFCURVE",
"671 525 CURVE SMOOTH",
"671 540 OFFCURVE",
"659 547 OFFCURVE",
"641 547 CURVE SMOOTH"
);
}
);
};
components = (
{
name = H;
}
);
layerId = "9E718F8A-2CEA-4931-B05D-987794BD97DA";
paths = (
{
closed = 1;
nodes = (
"641 504 LINE SMOOTH",
"659 504 OFFCURVE",
"671 511 OFFCURVE",
"671 525 CURVE SMOOTH",
"671 540 OFFCURVE",
"659 547 OFFCURVE",
"641 547 CURVE SMOOTH",
"62 547 LINE SMOOTH",
"44 547 OFFCURVE",
"32 540 OFFCURVE",
"32 525 CURVE SMOOTH",
"32 511 OFFCURVE",
"44 504 OFFCURVE",
"62 504 CURVE SMOOTH"
);
}
);
width = 701;
},
{
background = {
components = (
{
name = H;
}
);
paths = (
{
closed = 1;
nodes = (
"49 561 LINE SMOOTH",
"25 561 OFFCURVE",
"13 543 OFFCURVE",
"13 525 CURVE SMOOTH",
"13 507 OFFCURVE",
"25 490 OFFCURVE",
"49 490 CURVE SMOOTH",
"710 490 LINE SMOOTH",
"734 490 OFFCURVE",
"747 507 OFFCURVE",
"747 525 CURVE SMOOTH",
"747 543 OFFCURVE",
"735 561 OFFCURVE",
"710 561 CURVE SMOOTH"
);
}
);
};
components = (
{
name = H;
}
);
layerId = "E1B555A7-F4E1-459C-9C1A-AE952106EEF9";
paths = (
{
closed = 1;
nodes = (
"710 490 LINE SMOOTH",
"734 490 OFFCURVE",
"747 507 OFFCURVE",
"747 525 CURVE SMOOTH",
"747 543 OFFCURVE",
"735 561 OFFCURVE",
"710 561 CURVE SMOOTH",
"49 561 LINE SMOOTH",
"25 561 OFFCURVE",
"13 543 OFFCURVE",
"13 525 CURVE SMOOTH",
"13 507 OFFCURVE",
"25 490 OFFCURVE",
"49 490 CURVE SMOOTH"
);
}
);
width = 760;
}
);
unicode = 0126;
userData = {
com.typemytype.robofont.layerData = {
b = {
anchors = (
);
components = (
);
contours = (
);
lib = {
};
name = Hbar;
unicodes = (
);
width = 1464;
};
};
};
},
{
glyphname = I;
lastChange = "2016-08-12 14:12:21 +0000";
layers = (
{
anchors = (
{
name = bottom;
position = "{138, 0}";
},
{
name = ogonek;
position = "{133, 12}";
},
{
name = top;
position = "{145, 702}";
},
{
name = topleft;
position = "{10, 693}";
}
);
background = {
anchors = (
{
name = bottom;
position = "{138, 0}";
},
{
name = ogonek;
position = "{133, 12}";
},
{
name = top;
position = "{145, 702}";
},
{
name = topleft;
position = "{10, 693}";
}
);
paths = (
{
closed = 1;
nodes = (
"108 27 LINE SMOOTH",
"108 9 OFFCURVE",
"124 0 OFFCURVE",
"138 0 CURVE SMOOTH",
"153 0 OFFCURVE",
"169 8 OFFCURVE",
"169 27 CURVE SMOOTH",
"169 664 LINE SMOOTH",
"169 683 OFFCURVE",
"154 692 OFFCURVE",
"139 692 CURVE SMOOTH",
"124 692 OFFCURVE",
"108 682 OFFCURVE",
"108 664 CURVE SMOOTH"
);
}
);
};
layerId = "9E718F8A-2CEA-4931-B05D-987794BD97DA";
paths = (
{
closed = 1;
nodes = (
"153 0 OFFCURVE",
"169 8 OFFCURVE",
"169 27 CURVE SMOOTH",
"169 664 LINE SMOOTH",
"169 683 OFFCURVE",
"154 692 OFFCURVE",
"139 692 CURVE SMOOTH",
"124 692 OFFCURVE",
"108 682 OFFCURVE",
"108 664 CURVE SMOOTH",
"108 27 LINE SMOOTH",
"108 9 OFFCURVE",
"124 0 OFFCURVE",
"138 0 CURVE SMOOTH"
);
}
);
width = 276;
},
{
anchors = (
{
name = bottom;
position = "{168, 0}";
},
{
name = ogonek;
position = "{168, 11}";
},
{
name = top;
position = "{168, 702}";
},
{
name = topleft;
position = "{10, 711}";
}
);
background = {
anchors = (
{
name = bottom;
position = "{168, 0}";
},
{
name = ogonek;
position = "{168, 11}";
},
{
name = top;
position = "{168, 702}";
},
{
name = topleft;
position = "{10, 711}";
}
);
paths = (
{
closed = 1;
nodes = (
"78 102 LINE SMOOTH",
"78 46 OFFCURVE",
"118 0 OFFCURVE",
"167 0 CURVE SMOOTH",
"218 0 OFFCURVE",
"258 46 OFFCURVE",
"258 102 CURVE SMOOTH",
"258 609 LINE SMOOTH",
"258 665 OFFCURVE",
"218 711 OFFCURVE",
"168 711 CURVE SMOOTH",
"118 711 OFFCURVE",
"78 665 OFFCURVE",
"78 609 CURVE SMOOTH"
);
}
);
};
layerId = "E1B555A7-F4E1-459C-9C1A-AE952106EEF9";
paths = (
{
closed = 1;
nodes = (
"218 0 OFFCURVE",
"258 46 OFFCURVE",
"258 102 CURVE SMOOTH",
"258 609 LINE SMOOTH",
"258 665 OFFCURVE",
"218 711 OFFCURVE",
"168 711 CURVE SMOOTH",
"118 711 OFFCURVE",
"78 665 OFFCURVE",
"78 609 CURVE SMOOTH",
"78 102 LINE SMOOTH",
"78 46 OFFCURVE",
"118 0 OFFCURVE",
"167 0 CURVE SMOOTH"
);
}
);
width = 336;
}
);
unicode = 0049;
userData = {
anchors = (
);
b = {
};
com.typemytype.robofont.layerData = {
b = {
anchors = (
);
components = (
);
contours = (
);
lib = {
};
name = I;
unicodes = (
);
width = 592;
};
};
components = (
);
contours = (
);
lib = {
};
name = I;
unicodes = (
);
width = 637;
};
},
{
glyphname = J;
lastChange = "2016-08-12 14:12:21 +0000";
layers = (
{
anchors = (
{
name = bottom;
position = "{237, 0}";
},
{
name = top;
position = "{375, 702}";
}
);
background = {
anchors = (
{
name = bottom;
position = "{237, 0}";
},
{
name = top;
position = "{375, 702}";
}
);
paths = (
{
closed = 1;
nodes = (
"406 666 LINE SMOOTH",
"406 684 OFFCURVE",
"391 693 OFFCURVE",
"375 693 CURVE SMOOTH",
"360 693 OFFCURVE",
"344 684 OFFCURVE",
"344 666 CURVE SMOOTH",
"344 221 LINE SMOOTH",
"344 99 OFFCURVE",
"293 43 OFFCURVE",
"206 43 CURVE SMOOTH",
"153 43 OFFCURVE",
"118 66 OFFCURVE",
"105 83 CURVE",
"89 97 OFFCURVE",
"75 103 OFFCURVE",
"64 103 CURVE SMOOTH",
"48 103 OFFCURVE",
"42 90 OFFCURVE",
"42 77 CURVE SMOOTH",
"42 69 OFFCURVE",
"44 68 OFFCURVE",
"39 63 CURVE",
"49 40 OFFCURVE",
"119 -8 OFFCURVE",
"198 -8 CURVE SMOOTH",
"297 -8 OFFCURVE",
"406 51 OFFCURVE",
"406 215 CURVE SMOOTH"
);
}
);
};
layerId = "9E718F8A-2CEA-4931-B05D-987794BD97DA";
paths = (
{
closed = 1;
nodes = (
"297 -8 OFFCURVE",
"406 51 OFFCURVE",
"406 215 CURVE SMOOTH",
"406 666 LINE SMOOTH",
"406 684 OFFCURVE",
"391 693 OFFCURVE",
"375 693 CURVE SMOOTH",
"360 693 OFFCURVE",
"344 684 OFFCURVE",
"344 666 CURVE SMOOTH",
"344 221 LINE SMOOTH",
"344 99 OFFCURVE",
"293 43 OFFCURVE",
"206 43 CURVE SMOOTH",
"153 43 OFFCURVE",
"118 66 OFFCURVE",
"105 83 CURVE",
"89 97 OFFCURVE",
"75 103 OFFCURVE",
"64 103 CURVE SMOOTH",
"48 103 OFFCURVE",
"42 90 OFFCURVE",
"42 77 CURVE SMOOTH",
"42 69 OFFCURVE",
"44 68 OFFCURVE",
"39 63 CURVE",
"49 40 OFFCURVE",
"119 -8 OFFCURVE",
"198 -8 CURVE SMOOTH"
);
}
);
width = 474;
},
{
anchors = (
{
name = bottom;
position = "{286, 0}";
},
{
name = top;
position = "{417, 702}";
}
);
background = {
anchors = (
{
name = bottom;
position = "{286, 0}";
},
{
name = top;
position = "{417, 702}";
}
);
paths = (
{
closed = 1;
nodes = (
"506 609 LINE SMOOTH",
"506 665 OFFCURVE",
"466 711 OFFCURVE",
"416 711 CURVE SMOOTH",
"366 711 OFFCURVE",
"326 665 OFFCURVE",
"326 609 CURVE SMOOTH",
"326 250 LINE SMOOTH",
"326 169 OFFCURVE",
"297 144 OFFCURVE",
"233 144 CURVE SMOOTH",
"202 144 OFFCURVE",
"171 160 OFFCURVE",
"153 174 CURVE",
"136 189 OFFCURVE",
"120 195 OFFCURVE",
"104 195 CURVE SMOOTH",
"65 195 OFFCURVE",
"35 159 OFFCURVE",
"35 116 CURVE SMOOTH",
"35 91 OFFCURVE",
"45 70 OFFCURVE",
"63 51 CURVE SMOOTH",
"108 4 OFFCURVE",
"177 -17 OFFCURVE",
"250 -17 CURVE SMOOTH",
"411 -17 OFFCURVE",
"505 71 OFFCURVE",
"505 234 CURVE SMOOTH"
);
}
);
};
layerId = "E1B555A7-F4E1-459C-9C1A-AE952106EEF9";
paths = (
{
closed = 1;
nodes = (
"411 -17 OFFCURVE",
"505 71 OFFCURVE",
"505 234 CURVE SMOOTH",
"506 609 LINE SMOOTH",
"506 665 OFFCURVE",
"466 711 OFFCURVE",
"416 711 CURVE SMOOTH",
"366 711 OFFCURVE",
"326 665 OFFCURVE",
"326 609 CURVE SMOOTH",
"326 250 LINE SMOOTH",
"326 169 OFFCURVE",
"297 144 OFFCURVE",
"233 144 CURVE SMOOTH",
"202 144 OFFCURVE",
"171 160 OFFCURVE",
"153 174 CURVE",
"136 189 OFFCURVE",
"120 195 OFFCURVE",
"104 195 CURVE SMOOTH",
"65 195 OFFCURVE",
"35 159 OFFCURVE",
"35 116 CURVE SMOOTH",
"35 91 OFFCURVE",
"45 70 OFFCURVE",
"63 51 CURVE SMOOTH",
"108 4 OFFCURVE",
"177 -17 OFFCURVE",
"250 -17 CURVE SMOOTH"
);
}
);
width = 572;
}
);
unicode = 004A;
userData = {
anchors = (
);
b = {
};
com.typemytype.robofont.layerData = {
b = {
anchors = (
);
components = (
);
contours = (
);
lib = {
};
name = J;
unicodes = (
);
width = 1003;
};
};
components = (
);
contours = (
);
lib = {
};
name = J;
unicodes = (
);
width = 1126;
};
},
{
glyphname = K;
lastChange = "2016-08-12 14:12:21 +0000";
layers = (
{
anchors = (
{
name = bottom;
position = "{307, 0}";
},
{
name = top;
position = "{309, 702}";
}
);
background = {
anchors = (
{
name = bottom;
position = "{307, 0}";
},
{
name = top;
position = "{309, 702}";
}
);
paths = (
{
closed = 1;
nodes = (
"146 361 LINE",
"146 665 LINE SMOOTH",
"146 683 OFFCURVE",
"132 693 OFFCURVE",
"118 693 CURVE SMOOTH",
"103 693 OFFCURVE",
"88 683 OFFCURVE",
"88 665 CURVE SMOOTH",
"88 28 LINE SMOOTH",
"88 9 OFFCURVE",
"103 0 OFFCURVE",
"116 0 CURVE SMOOTH",
"131 0 OFFCURVE",
"146 8 OFFCURVE",
"146 28 CURVE SMOOTH",
"146 346 LINE",
"502 10 LINE",
"510 4 OFFCURVE",
"518 0 OFFCURVE",
"525 0 CURVE SMOOTH",
"542 0 OFFCURVE",
"552 10 OFFCURVE",
"552 25 CURVE SMOOTH",
"552 33 OFFCURVE",
"550 41 OFFCURVE",
"542 47 CURVE SMOOTH",
"209 356 LINE",
"516 650 LINE SMOOTH",
"522 656 OFFCURVE",
"525 663 OFFCURVE",
"525 670 CURVE SMOOTH",
"525 683 OFFCURVE",
"517 693 OFFCURVE",
"501 693 CURVE SMOOTH",
"495 693 OFFCURVE",
"487 691 OFFCURVE",
"480 686 CURVE"
);
}
);
};
layerId = "9E718F8A-2CEA-4931-B05D-987794BD97DA";
paths = (
{
closed = 1;
nodes = (
"131 0 OFFCURVE",
"146 8 OFFCURVE",
"146 28 CURVE SMOOTH",
"146 346 LINE",
"502 10 LINE",
"510 4 OFFCURVE",
"518 0 OFFCURVE",
"525 0 CURVE SMOOTH",
"542 0 OFFCURVE",
"552 10 OFFCURVE",
"552 25 CURVE SMOOTH",
"552 33 OFFCURVE",
"550 41 OFFCURVE",
"542 47 CURVE SMOOTH",
"209 356 LINE",
"516 650 LINE SMOOTH",
"522 656 OFFCURVE",
"525 663 OFFCURVE",
"525 670 CURVE SMOOTH",
"525 683 OFFCURVE",
"517 693 OFFCURVE",
"501 693 CURVE SMOOTH",
"495 693 OFFCURVE",
"487 691 OFFCURVE",
"480 686 CURVE",
"146 361 LINE",
"146 665 LINE SMOOTH",
"146 683 OFFCURVE",
"132 693 OFFCURVE",
"118 693 CURVE SMOOTH",
"103 693 OFFCURVE",
"88 683 OFFCURVE",
"88 665 CURVE SMOOTH",
"88 28 LINE SMOOTH",
"88 9 OFFCURVE",
"103 0 OFFCURVE",
"116 0 CURVE SMOOTH"
);
}
);
width = 579;
},
{
anchors = (
{
name = bottom;
position = "{348, 0}";
},
{
name = top;
position = "{344, 702}";
}
);
background = {
anchors = (
{
name = bottom;
position = "{348, 0}";
},
{
name = top;
position = "{344, 702}";
}
);
paths = (
{
closed = 1;
nodes = (
"252 389 LINE",
"253 609 LINE SMOOTH",
"253 665 OFFCURVE",
"211 711 OFFCURVE",
"163 711 CURVE SMOOTH",
"113 711 OFFCURVE",
"74 665 OFFCURVE",
"74 609 CURVE SMOOTH",
"74 102 LINE SMOOTH",
"74 46 OFFCURVE",
"113 0 OFFCURVE",
"163 0 CURVE SMOOTH",
"213 0 OFFCURVE",
"253 46 OFFCURVE",
"253 102 CURVE",
"252 349 LINE",
"466 94 LINE",
"494 55 OFFCURVE",
"526 0 OFFCURVE",
"572 0 CURVE SMOOTH",
"613 0 OFFCURVE",
"656 33 OFFCURVE",
"656 79 CURVE SMOOTH",
"656 108 OFFCURVE",
"631 147 OFFCURVE",
"609 178 CURVE",
"441 372 LINE",
"598 540 LINE",
"619 568 OFFCURVE",
"644 603 OFFCURVE",
"644 631 CURVE SMOOTH",
"644 677 OFFCURVE",
"604 710 OFFCURVE",
"564 710 CURVE SMOOTH",
"529 710 OFFCURVE",
"506 680 OFFCURVE",
"476 640 CURVE"
);
}
);
};
layerId = "E1B555A7-F4E1-459C-9C1A-AE952106EEF9";
paths = (
{
closed = 1;
nodes = (
"213 0 OFFCURVE",
"253 46 OFFCURVE",
"253 102 CURVE",
"252 349 LINE",
"466 94 LINE",
"494 55 OFFCURVE",
"526 0 OFFCURVE",
"572 0 CURVE SMOOTH",
"613 0 OFFCURVE",
"656 33 OFFCURVE",
"656 79 CURVE SMOOTH",
"656 108 OFFCURVE",
"631 147 OFFCURVE",
"609 178 CURVE",
"441 372 LINE",
"598 540 LINE",
"619 568 OFFCURVE",
"644 603 OFFCURVE",
"644 631 CURVE SMOOTH",
"644 677 OFFCURVE",
"604 710 OFFCURVE",
"564 710 CURVE SMOOTH",
"529 710 OFFCURVE",
"506 680 OFFCURVE",
"476 640 CURVE",
"252 389 LINE",
"253 609 LINE SMOOTH",
"253 665 OFFCURVE",
"211 711 OFFCURVE",
"163 711 CURVE SMOOTH",
"113 711 OFFCURVE",
"74 665 OFFCURVE",
"74 609 CURVE SMOOTH",
"74 102 LINE SMOOTH",
"74 46 OFFCURVE",
"113 0 OFFCURVE",
"163 0 CURVE SMOOTH"
);
}
);
width = 693;
}
);
unicode = 004B;
userData = {
anchors = (
);
b = {
};
com.typemytype.robofont.layerData = {
b = {
anchors = (
);
components = (
);
contours = (
);
lib = {
};
name = K;
unicodes = (
);
width = 1210;
};
};
components = (
);
contours = (
);
lib = {
};
name = K;
unicodes = (
);
width = 1329;
};
},
{
glyphname = L;
lastChange = "2016-08-12 14:12:21 +0000";
layers = (
{
anchors = (
{
name = bottom;
position = "{316, 0}";
},
{
name = caron.alt;
position = "{395, 373}";
},
{
name = center;
position = "{263, 347}";
},
{
name = mid;
position = "{119, 328}";
},
{
name = top;
position = "{114, 714}";
},
{
name = topright;
position = "{515, 693}";
}
);
background = {
anchors = (
{
name = bottom;
position = "{316, 0}";
},
{
name = caron.alt;
position = "{395, 373}";
},
{
name = center;
position = "{263, 347}";
},
{
name = mid;
position = "{119, 328}";
},
{
name = top;
position = "{114, 714}";
},
{
name = topright;
position = "{515, 693}";
}
);
paths = (
{
closed = 1;
nodes = (
"149 48 LINE",
"149 666 LINE SMOOTH",
"149 684 OFFCURVE",
"134 693 OFFCURVE",
"120 693 CURVE SMOOTH",
"104 693 OFFCURVE",
"88 683 OFFCURVE",
"88 666 CURVE SMOOTH",
"88 29 LINE SMOOTH",
"88 12 OFFCURVE",
"103 0 OFFCURVE",
"119 0 CURVE SMOOTH",
"485 0 LINE SMOOTH",
"503 0 OFFCURVE",
"513 11 OFFCURVE",
"513 24 CURVE SMOOTH",
"513 38 OFFCURVE",
"505 48 OFFCURVE",
"485 48 CURVE SMOOTH"
);
}
);
};
layerId = "9E718F8A-2CEA-4931-B05D-987794BD97DA";
paths = (
{
closed = 1;
nodes = (
"485 0 LINE SMOOTH",
"503 0 OFFCURVE",
"513 11 OFFCURVE",
"513 24 CURVE SMOOTH",
"513 38 OFFCURVE",
"505 48 OFFCURVE",
"485 48 CURVE SMOOTH",
"149 48 LINE",
"149 666 LINE SMOOTH",
"149 684 OFFCURVE",
"134 693 OFFCURVE",
"120 693 CURVE SMOOTH",
"104 693 OFFCURVE",
"88 683 OFFCURVE",
"88 666 CURVE SMOOTH",
"88 29 LINE SMOOTH",
"88 12 OFFCURVE",
"103 0 OFFCURVE",
"119 0 CURVE SMOOTH"
);
}
);
width = 525;
},
{
anchors = (
{
name = bottom;
position = "{329, 0}";
},
{
name = caron.alt;
position = "{212, 484}";
},
{
name = center;
position = "{291, 355}";
},
{
name = mid;
position = "{165, 363}";
},
{
name = top;
position = "{219, 709}";
},
{
name = topright;
position = "{571, 711}";
}
);
background = {
anchors = (
{
name = bottom;
position = "{329, 0}";
},
{
name = caron.alt;
position = "{212, 484}";
},
{
name = center;
position = "{291, 355}";
},
{
name = mid;
position = "{165, 363}";
},
{
name = top;
position = "{219, 709}";
},
{
name = topright;
position = "{571, 711}";
}
);
paths = (
{
closed = 1;
nodes = (
"254 135 LINE",
"253 609 LINE",
"253 665 OFFCURVE",
"213 711 OFFCURVE",
"163 711 CURVE SMOOTH",
"113 711 OFFCURVE",
"73 665 OFFCURVE",
"73 609 CURVE SMOOTH",
"73 147 LINE SMOOTH",
"73 75 OFFCURVE",
"94 0 OFFCURVE",
"164 0 CURVE SMOOTH",
"499 0 LINE SMOOTH",
"534 0 OFFCURVE",
"563 30 OFFCURVE",
"563 68 CURVE SMOOTH",
"563 105 OFFCURVE",
"534 135 OFFCURVE",
"499 135 CURVE SMOOTH"
);
}
);
};
layerId = "E1B555A7-F4E1-459C-9C1A-AE952106EEF9";
paths = (
{
closed = 1;
nodes = (
"499 0 LINE SMOOTH",
"534 0 OFFCURVE",
"563 30 OFFCURVE",
"563 68 CURVE SMOOTH",
"563 105 OFFCURVE",
"534 135 OFFCURVE",
"499 135 CURVE SMOOTH",
"254 135 LINE",
"253 609 LINE",
"253 665 OFFCURVE",
"213 711 OFFCURVE",
"163 711 CURVE SMOOTH",
"113 711 OFFCURVE",
"73 665 OFFCURVE",
"73 609 CURVE SMOOTH",
"73 147 LINE SMOOTH",
"73 75 OFFCURVE",
"94 0 OFFCURVE",
"164 0 CURVE SMOOTH"
);
}
);
width = 581;
}
);
unicode = 004C;
userData = {
anchors = (
);
b = {
};
com.typemytype.robofont.layerData = {
b = {
anchors = (
);
components = (
);
contours = (
{
points = (
{
segmentType = curve;
smooth = 1;
x = 266;
y = 0;
},
{
segmentType = line;
smooth = 1;
x = 1035;
y = 0;
},
{
smooth = 0;
x = 1084;
y = 0;
},
{
smooth = 0;
x = 1108;
y = 34;
},
{
segmentType = curve;
smooth = 1;
x = 1108;
y = 71;
},
{
smooth = 0;
x = 1108;
y = 107;
},
{
smooth = 0;
x = 1084;
y = 141;
},
{
segmentType = curve;
smooth = 1;
x = 1035;
y = 141;
},
{
segmentType = line;
smooth = 0;
x = 356;
y = 141;
},
{
segmentType = line;
smooth = 0;
x = 356;
y = 665;
},
{
segmentType = line;
smooth = 1;
x = 975;
y = 665;
},
{
smooth = 0;
x = 1024;
y = 665;
},
{
smooth = 0;
x = 1049;
y = 698;
},
{
segmentType = curve;
smooth = 1;
x = 1049;
y = 734;
},
{
smooth = 0;
x = 1049;
y = 770;
},
{
smooth = 0;
x = 1026;
y = 803;
},
{
segmentType = curve;
smooth = 1;
x = 975;
y = 803;
},
{
segmentType = line;
smooth = 0;
x = 356;
y = 803;
},
{
segmentType = line;
smooth = 0;
x = 356;
y = 1285;
},
{
segmentType = line;
smooth = 1;
x = 1007;
y = 1285;
},
{
smooth = 0;
x = 1056;
y = 1285;
},
{
smooth = 0;
x = 1080;
y = 1319;
},
{
segmentType = curve;
smooth = 1;
x = 1080;
y = 1356;
},
{
smooth = 0;
x = 1080;
y = 1392;
},
{
smooth = 0;
x = 1056;
y = 1426;
},
{
segmentType = curve;
smooth = 1;
x = 1007;
y = 1426;
},
{
segmentType = line;
smooth = 1;
x = 261;
y = 1426;
},
{
smooth = 0;
x = 213;
y = 1426;
},
{
smooth = 0;
x = 178;
y = 1383;
},
{
segmentType = curve;
smooth = 1;
x = 178;
y = 1340;
},
{
segmentType = line;
smooth = 1;
x = 178;
y = 86;
},
{
smooth = 0;
x = 178;
y = 41;
},
{
smooth = 0;
x = 222;
y = 0;
}
);
}
);
lib = {
};
name = L;
unicodes = (
);
width = 1095;
};
};
components = (
);
contours = (
);
lib = {
};
name = L;
unicodes = (
);
width = 1169;
};
},
{
glyphname = Lslash;
lastChange = "2016-08-12 14:12:21 +0000";
layers = (
{
background = {
paths = (
{
closed = 1;
nodes = (
"149 48 LINE",
"149 369 LINE",
"229 421 LINE",
"235 425 OFFCURVE",
"237 431 OFFCURVE",
"237 437 CURVE SMOOTH",
"237 450 OFFCURVE",
"226 465 OFFCURVE",
"214 465 CURVE SMOOTH",
"211 465 OFFCURVE",
"207 464 OFFCURVE",
"204 462 CURVE SMOOTH",
"149 425 LINE",
"149 666 LINE SMOOTH",
"149 684 OFFCURVE",
"134 693 OFFCURVE",
"120 693 CURVE SMOOTH",
"104 693 OFFCURVE",
"88 683 OFFCURVE",
"88 666 CURVE SMOOTH",
"88 385 LINE",
"37 350 LINE SMOOTH",
"29 345 OFFCURVE",
"26 338 OFFCURVE",
"26 331 CURVE SMOOTH",
"26 318 OFFCURVE",
"36 306 OFFCURVE",
"48 306 CURVE SMOOTH",
"52 306 OFFCURVE",
"56 307 OFFCURVE",
"60 309 CURVE",
"88 328 LINE",
"88 29 LINE SMOOTH",
"88 12 OFFCURVE",
"103 0 OFFCURVE",
"119 0 CURVE SMOOTH",
"485 0 LINE SMOOTH",
"503 0 OFFCURVE",
"513 11 OFFCURVE",
"513 24 CURVE SMOOTH",
"513 38 OFFCURVE",
"505 48 OFFCURVE",
"485 48 CURVE SMOOTH"
);
}
);
};
layerId = "9E718F8A-2CEA-4931-B05D-987794BD97DA";
paths = (
{
closed = 1;
nodes = (
"485 0 LINE SMOOTH",
"503 0 OFFCURVE",
"513 11 OFFCURVE",
"513 24 CURVE SMOOTH",
"513 38 OFFCURVE",
"505 48 OFFCURVE",
"485 48 CURVE SMOOTH",
"149 48 LINE",
"149 369 LINE",
"229 421 LINE",
"235 425 OFFCURVE",
"237 431 OFFCURVE",
"237 437 CURVE SMOOTH",
"237 450 OFFCURVE",
"226 465 OFFCURVE",
"214 465 CURVE SMOOTH",
"211 465 OFFCURVE",
"207 464 OFFCURVE",
"204 462 CURVE SMOOTH",
"149 425 LINE",
"149 666 LINE SMOOTH",
"149 684 OFFCURVE",
"134 693 OFFCURVE",
"120 693 CURVE SMOOTH",
"104 693 OFFCURVE",
"88 683 OFFCURVE",
"88 666 CURVE SMOOTH",
"88 385 LINE",
"37 350 LINE SMOOTH",
"29 345 OFFCURVE",
"26 338 OFFCURVE",
"26 331 CURVE SMOOTH",
"26 318 OFFCURVE",
"36 306 OFFCURVE",
"48 306 CURVE SMOOTH",
"52 306 OFFCURVE",
"56 307 OFFCURVE",
"60 309 CURVE",
"88 328 LINE",
"88 29 LINE SMOOTH",
"88 12 OFFCURVE",
"103 0 OFFCURVE",
"119 0 CURVE SMOOTH"
);
}
);
width = 555;
},
{
background = {
paths = (
{
closed = 1;
nodes = (
"254 135 LINE",
"254 350 LINE",
"354 415 LINE SMOOTH",
"367 423 OFFCURVE",
"373 436 OFFCURVE",
"373 450 CURVE SMOOTH",
"373 478 OFFCURVE",
"351 508 OFFCURVE",
"325 508 CURVE SMOOTH",
"317 508 OFFCURVE",
"310 506 OFFCURVE",
"303 501 CURVE SMOOTH",
"254 469 LINE",
"253 609 LINE",
"253 665 OFFCURVE",
"213 711 OFFCURVE",
"163 711 CURVE SMOOTH",
"113 711 OFFCURVE",
"73 665 OFFCURVE",
"73 609 CURVE SMOOTH",
"73 353 LINE",
"12 313 LINE SMOOTH",
"-2 303 OFFCURVE",
"-9 288 OFFCURVE",
"-9 272 CURVE SMOOTH",
"-9 246 OFFCURVE",
"10 218 OFFCURVE",
"36 218 CURVE",
"36 218 OFFCURVE",
"51 221 OFFCURVE",
"60 226 CURVE",
"73 234 LINE",
"73 147 LINE SMOOTH",
"73 75 OFFCURVE",
"94 0 OFFCURVE",
"164 0 CURVE SMOOTH",
"499 0 LINE SMOOTH",
"534 0 OFFCURVE",
"563 30 OFFCURVE",
"563 68 CURVE SMOOTH",
"563 105 OFFCURVE",
"534 135 OFFCURVE",
"499 135 CURVE SMOOTH"
);
}
);
};
layerId = "E1B555A7-F4E1-459C-9C1A-AE952106EEF9";
paths = (
{
closed = 1;
nodes = (
"499 0 LINE SMOOTH",
"534 0 OFFCURVE",
"563 30 OFFCURVE",
"563 68 CURVE SMOOTH",
"563 105 OFFCURVE",
"534 135 OFFCURVE",
"499 135 CURVE SMOOTH",
"254 135 LINE",
"254 350 LINE",
"354 415 LINE SMOOTH",
"367 423 OFFCURVE",
"373 436 OFFCURVE",
"373 450 CURVE SMOOTH",
"373 478 OFFCURVE",
"351 508 OFFCURVE",
"325 508 CURVE SMOOTH",
"317 508 OFFCURVE",
"310 506 OFFCURVE",
"303 501 CURVE SMOOTH",
"254 469 LINE",
"253 609 LINE",
"253 665 OFFCURVE",
"213 711 OFFCURVE",
"163 711 CURVE SMOOTH",
"113 711 OFFCURVE",
"73 665 OFFCURVE",
"73 609 CURVE SMOOTH",
"73 353 LINE",
"12 313 LINE SMOOTH",
"-2 303 OFFCURVE",
"-9 288 OFFCURVE",
"-9 272 CURVE SMOOTH",
"-9 246 OFFCURVE",
"10 218 OFFCURVE",
"36 218 CURVE",
"36 218 OFFCURVE",
"51 221 OFFCURVE",
"60 226 CURVE",
"73 234 LINE",
"73 147 LINE SMOOTH",
"73 75 OFFCURVE",
"94 0 OFFCURVE",
"164 0 CURVE SMOOTH"
);
}
);
width = 584;
}
);
unicode = 0141;
},
{
glyphname = M;
lastChange = "2016-08-12 14:12:21 +0000";
layers = (
{
anchors = (
{
name = bottom;
position = "{460, 0}";
},
{
name = top;
position = "{478, 702}";
}
);
background = {
anchors = (
{
name = bottom;
position = "{460, 0}";
},
{
name = top;
position = "{478, 702}";
}
);
paths = (
{
closed = 1;
nodes = (
"146 622 LINE",
"424 40 LINE SMOOTH",
"434 21 OFFCURVE",
"449 12 OFFCURVE",
"463 12 CURVE SMOOTH",
"477 12 OFFCURVE",
"492 21 OFFCURVE",
"502 40 CURVE SMOOTH",
"780 622 LINE",
"780 21 LINE SMOOTH",
"780 4 OFFCURVE",
"794 -4 OFFCURVE",
"808 -4 CURVE SMOOTH",
"821 -4 OFFCURVE",
"835 4 OFFCURVE",
"835 21 CURVE SMOOTH",
"835 645 LINE SMOOTH",
"835 671 OFFCURVE",
"814 694 OFFCURVE",
"790 694 CURVE SMOOTH",
"772 694 OFFCURVE",
"753 683 OFFCURVE",
"738 653 CURVE SMOOTH",
"463 77 LINE",
"188 653 LINE SMOOTH",
"172 683 OFFCURVE",
"153 694 OFFCURVE",
"136 694 CURVE SMOOTH",
"112 694 OFFCURVE",
"91 671 OFFCURVE",
"91 645 CURVE SMOOTH",
"91 21 LINE SMOOTH",
"91 4 OFFCURVE",
"104 -4 OFFCURVE",
"118 -4 CURVE SMOOTH",
"132 -4 OFFCURVE",
"146 4 OFFCURVE",
"146 21 CURVE SMOOTH"
);
}
);
};
layerId = "9E718F8A-2CEA-4931-B05D-987794BD97DA";
paths = (
{
closed = 1;
nodes = (
"132 -4 OFFCURVE",
"146 4 OFFCURVE",
"146 21 CURVE SMOOTH",
"146 622 LINE",
"424 40 LINE SMOOTH",
"434 21 OFFCURVE",
"449 12 OFFCURVE",
"463 12 CURVE SMOOTH",
"477 12 OFFCURVE",
"492 21 OFFCURVE",
"502 40 CURVE SMOOTH",
"780 622 LINE",
"780 21 LINE SMOOTH",
"780 4 OFFCURVE",
"794 -4 OFFCURVE",
"808 -4 CURVE SMOOTH",
"821 -4 OFFCURVE",
"835 4 OFFCURVE",
"835 21 CURVE SMOOTH",
"835 645 LINE SMOOTH",
"835 671 OFFCURVE",
"814 694 OFFCURVE",
"790 694 CURVE SMOOTH",
"772 694 OFFCURVE",
"753 683 OFFCURVE",
"738 653 CURVE SMOOTH",
"463 77 LINE",
"188 653 LINE SMOOTH",
"172 683 OFFCURVE",
"153 694 OFFCURVE",
"136 694 CURVE SMOOTH",
"112 694 OFFCURVE",
"91 671 OFFCURVE",
"91 645 CURVE SMOOTH",
"91 21 LINE SMOOTH",
"91 4 OFFCURVE",
"104 -4 OFFCURVE",
"118 -4 CURVE SMOOTH"
);
}
);
width = 920;
},
{
anchors = (
{
name = bottom;
position = "{490, 0}";
},
{
name = top;
position = "{499, 702}";
}
);
background = {
anchors = (
{
name = bottom;
position = "{490, 0}";
},
{
name = top;
position = "{499, 702}";
}
);
paths = (
{
closed = 1;
nodes = (
"226 532 LINE",
"385 136 LINE SMOOTH",
"410 69 OFFCURVE",
"432 35 OFFCURVE",
"490 35 CURVE SMOOTH",
"547 35 OFFCURVE",
"570 69 OFFCURVE",
"594 136 CURVE SMOOTH",
"754 532 LINE",
"753 63 LINE SMOOTH",
"753 11 OFFCURVE",
"791 -14 OFFCURVE",
"829 -14 CURVE SMOOTH",
"867 -14 OFFCURVE",
"906 12 OFFCURVE",
"906 63 CURVE SMOOTH",
"906 584 LINE SMOOTH",
"906 658 OFFCURVE",
"843 710 OFFCURVE",
"776 710 CURVE SMOOTH",
"721 710 OFFCURVE",
"663 676 OFFCURVE",
"632 592 CURVE",
"490 241 LINE",
"347 592 LINE",
"317 676 OFFCURVE",
"259 710 OFFCURVE",
"204 710 CURVE SMOOTH",
"136 710 OFFCURVE",
"73 658 OFFCURVE",
"73 584 CURVE SMOOTH",
"74 63 LINE SMOOTH",
"74 12 OFFCURVE",
"112 -14 OFFCURVE",
"150 -14 CURVE SMOOTH",
"188 -14 OFFCURVE",
"226 11 OFFCURVE",
"226 63 CURVE SMOOTH"
);
}
);
};
layerId = "E1B555A7-F4E1-459C-9C1A-AE952106EEF9";
paths = (
{
closed = 1;
nodes = (
"188 -14 OFFCURVE",
"226 11 OFFCURVE",
"226 63 CURVE SMOOTH",
"226 532 LINE",
"385 136 LINE SMOOTH",
"410 69 OFFCURVE",
"432 35 OFFCURVE",
"490 35 CURVE SMOOTH",
"547 35 OFFCURVE",
"570 69 OFFCURVE",
"594 136 CURVE SMOOTH",
"754 532 LINE",
"753 63 LINE SMOOTH",
"753 11 OFFCURVE",
"791 -14 OFFCURVE",
"829 -14 CURVE SMOOTH",
"867 -14 OFFCURVE",
"906 12 OFFCURVE",
"906 63 CURVE SMOOTH",
"906 584 LINE SMOOTH",
"906 658 OFFCURVE",
"843 710 OFFCURVE",
"776 710 CURVE SMOOTH",
"721 710 OFFCURVE",
"663 676 OFFCURVE",
"632 592 CURVE",
"490 241 LINE",
"347 592 LINE",
"317 676 OFFCURVE",
"259 710 OFFCURVE",
"204 710 CURVE SMOOTH",
"136 710 OFFCURVE",
"73 658 OFFCURVE",
"73 584 CURVE SMOOTH",
"74 63 LINE SMOOTH",
"74 12 OFFCURVE",
"112 -14 OFFCURVE",
"150 -14 CURVE SMOOTH"
);
}
);
width = 979;
}
);
unicode = 004D;
userData = {
anchors = (
);
b = {
};
com.typemytype.robofont.layerData = {
b = {
anchors = (
);
components = (
);
contours = (
);
lib = {
};
name = M;
unicodes = (
);
width = 1899;
};
};
components = (
);
contours = (
);
lib = {
};
name = M;
unicodes = (
);
width = 1984;
};
},
{
glyphname = N;
lastChange = "2016-08-12 14:12:21 +0000";
layers = (
{
anchors = (
{
name = bottom;
position = "{366, 0}";
},
{
name = top;
position = "{384, 702}";
}
);
background = {
anchors = (
{
name = bottom;
position = "{366, 0}";
},
{
name = top;
position = "{384, 702}";
}
);
paths = (
{
closed = 1;
nodes = (
"568 76 LINE",
"181 653 LINE SMOOTH",
"162 680 OFFCURVE",
"144 693 OFFCURVE",
"128 693 CURVE SMOOTH",
"104 693 OFFCURVE",
"90 676 OFFCURVE",
"90 647 CURVE SMOOTH",
"90 29 LINE SMOOTH",
"90 9 OFFCURVE",
"102 0 OFFCURVE",
"119 0 CURVE SMOOTH",
"134 0 OFFCURVE",
"146 10 OFFCURVE",
"146 29 CURVE SMOOTH",
"146 606 LINE",
"542 20 LINE SMOOTH",
"552 3 OFFCURVE",
"563 0 OFFCURVE",
"579 0 CURVE SMOOTH",
"605 0 OFFCURVE",
"625 16 OFFCURVE",
"625 45 CURVE SMOOTH",
"625 664 LINE SMOOTH",
"625 683 OFFCURVE",
"611 693 OFFCURVE",
"597 693 CURVE SMOOTH",
"581 693 OFFCURVE",
"568 683 OFFCURVE",
"568 664 CURVE SMOOTH"
);
}
);
};
layerId = "9E718F8A-2CEA-4931-B05D-987794BD97DA";
paths = (
{
closed = 1;
nodes = (
"134 0 OFFCURVE",
"146 10 OFFCURVE",
"146 29 CURVE SMOOTH",
"146 606 LINE",
"542 20 LINE SMOOTH",
"552 3 OFFCURVE",
"563 0 OFFCURVE",
"579 0 CURVE SMOOTH",
"605 0 OFFCURVE",
"625 16 OFFCURVE",
"625 45 CURVE SMOOTH",
"625 664 LINE SMOOTH",
"625 683 OFFCURVE",
"611 693 OFFCURVE",
"597 693 CURVE SMOOTH",
"581 693 OFFCURVE",
"568 683 OFFCURVE",
"568 664 CURVE SMOOTH",
"568 76 LINE",
"181 653 LINE SMOOTH",
"162 680 OFFCURVE",
"144 693 OFFCURVE",
"128 693 CURVE SMOOTH",
"104 693 OFFCURVE",
"90 676 OFFCURVE",
"90 647 CURVE SMOOTH",
"90 29 LINE SMOOTH",
"90 9 OFFCURVE",
"102 0 OFFCURVE",
"119 0 CURVE SMOOTH"
);
}
);
width = 715;
},
{
anchors = (
{
name = bottom;
position = "{405, 0}";
},
{
name = top;
position = "{426, 709}";
}
);
background = {
anchors = (
{
name = bottom;
position = "{405, 0}";
},
{
name = top;
position = "{426, 709}";
}
);
paths = (
{
closed = 1;
nodes = (
"560 252 LINE",
"271 627 LINE",
"241 672 OFFCURVE",
"203 710 OFFCURVE",
"162 711 CURVE SMOOTH",
"113 711 OFFCURVE",
"73 674 OFFCURVE",
"73 607 CURVE SMOOTH",
"73 81 LINE SMOOTH",
"73 38 OFFCURVE",
"106 0 OFFCURVE",
"149 0 CURVE SMOOTH",
"191 0 OFFCURVE",
"226 37 OFFCURVE",
"226 81 CURVE SMOOTH",
"226 465 LINE",
"518 83 LINE",
"550 37 OFFCURVE",
"585 0 OFFCURVE",
"625 0 CURVE SMOOTH",
"701 0 OFFCURVE",
"712 71 OFFCURVE",
"712 147 CURVE SMOOTH",
"712 630 LINE SMOOTH",
"712 674 OFFCURVE",
"678 711 OFFCURVE",
"636 711 CURVE SMOOTH",
"593 711 OFFCURVE",
"560 674 OFFCURVE",
"560 630 CURVE SMOOTH"
);
}
);
};
layerId = "E1B555A7-F4E1-459C-9C1A-AE952106EEF9";
paths = (
{
closed = 1;
nodes = (
"191 0 OFFCURVE",
"226 37 OFFCURVE",
"226 81 CURVE SMOOTH",
"226 465 LINE",
"518 83 LINE",
"550 37 OFFCURVE",
"585 0 OFFCURVE",
"625 0 CURVE SMOOTH",
"701 0 OFFCURVE",
"712 71 OFFCURVE",
"712 147 CURVE SMOOTH",
"712 630 LINE SMOOTH",
"712 674 OFFCURVE",
"678 711 OFFCURVE",
"636 711 CURVE SMOOTH",
"593 711 OFFCURVE",
"560 674 OFFCURVE",
"560 630 CURVE SMOOTH",
"560 252 LINE",
"271 627 LINE",
"241 672 OFFCURVE",
"203 710 OFFCURVE",
"162 711 CURVE SMOOTH",
"113 711 OFFCURVE",
"73 674 OFFCURVE",
"73 607 CURVE SMOOTH",
"73 81 LINE SMOOTH",
"73 38 OFFCURVE",
"106 0 OFFCURVE",
"149 0 CURVE SMOOTH"
);
}
);
width = 786;
}
);
unicode = 004E;
userData = {
anchors = (
);
b = {
};
com.typemytype.robofont.layerData = {
b = {
anchors = (
);
components = (
);
contours = (
);
lib = {
};
name = N;
unicodes = (
);
width = 1499;
};
};
components = (
);
contours = (
);
lib = {
};
name = N;
unicodes = (
);
width = 1557;
};
},
{
glyphname = Eng;
lastChange = "2016-08-12 14:12:21 +0000";
layers = (
{
background = {
paths = (
{
closed = 1;
nodes = (
"148 606 LINE",
"570 -3 LINE",
"570 -3 LINE",
"570 -106 OFFCURVE",
"548 -158 OFFCURVE",
"461 -158 CURVE SMOOTH",
"426 -158 OFFCURVE",
"380 -149 OFFCURVE",
"319 -133 CURVE SMOOTH",
"316 -132 OFFCURVE",
"313 -132 OFFCURVE",
"310 -132 CURVE SMOOTH",
"292 -132 OFFCURVE",
"280 -142 OFFCURVE",
"280 -156 CURVE SMOOTH",
"280 -168 OFFCURVE",
"289 -180 OFFCURVE",
"312 -185 CURVE SMOOTH",
"365 -198 OFFCURVE",
"417 -207 OFFCURVE",
"459 -207 CURVE SMOOTH",
"569 -207 OFFCURVE",
"626 -155 OFFCURVE",
"626 24 CURVE SMOOTH",
"626 664 LINE SMOOTH",
"626 683 OFFCURVE",
"613 693 OFFCURVE",
"598 693 CURVE SMOOTH",
"582 693 OFFCURVE",
"570 683 OFFCURVE",
"570 664 CURVE SMOOTH",
"570 85 LINE",
"182 653 LINE SMOOTH",
"164 680 OFFCURVE",
"146 693 OFFCURVE",
"130 693 CURVE SMOOTH",
"106 693 OFFCURVE",
"91 676 OFFCURVE",
"91 647 CURVE SMOOTH",
"91 29 LINE SMOOTH",
"91 9 OFFCURVE",
"104 0 OFFCURVE",
"120 0 CURVE SMOOTH",
"135 0 OFFCURVE",
"148 10 OFFCURVE",
"148 29 CURVE SMOOTH"
);
}
);
};
layerId = "9E718F8A-2CEA-4931-B05D-987794BD97DA";
paths = (
{
closed = 1;
nodes = (
"569 -207 OFFCURVE",
"626 -155 OFFCURVE",
"626 24 CURVE SMOOTH",
"626 664 LINE SMOOTH",
"626 683 OFFCURVE",
"613 693 OFFCURVE",
"598 693 CURVE SMOOTH",
"582 693 OFFCURVE",
"570 683 OFFCURVE",
"570 664 CURVE SMOOTH",
"570 85 LINE",
"182 653 LINE SMOOTH",
"164 680 OFFCURVE",
"146 693 OFFCURVE",
"130 693 CURVE SMOOTH",
"106 693 OFFCURVE",
"91 676 OFFCURVE",
"91 647 CURVE SMOOTH",
"91 29 LINE SMOOTH",
"91 9 OFFCURVE",
"104 0 OFFCURVE",
"120 0 CURVE SMOOTH",
"135 0 OFFCURVE",
"148 10 OFFCURVE",
"148 29 CURVE SMOOTH",
"148 606 LINE",
"570 -3 LINE",
"570 -3 LINE",
"570 -106 OFFCURVE",
"548 -158 OFFCURVE",
"461 -158 CURVE SMOOTH",
"426 -158 OFFCURVE",
"380 -149 OFFCURVE",
"319 -133 CURVE SMOOTH",
"316 -132 OFFCURVE",
"313 -132 OFFCURVE",
"310 -132 CURVE SMOOTH",
"292 -132 OFFCURVE",
"280 -142 OFFCURVE",
"280 -156 CURVE SMOOTH",
"280 -168 OFFCURVE",
"289 -180 OFFCURVE",
"312 -185 CURVE SMOOTH",
"365 -198 OFFCURVE",
"417 -207 OFFCURVE",
"459 -207 CURVE SMOOTH"
);
}
);
width = 712;
},
{
background = {
paths = (
{
closed = 1;
nodes = (
"226 465 LINE",
"558 -2 LINE",
"558 -3 LINE",
"558 -88 OFFCURVE",
"532 -129 OFFCURVE",
"461 -129 CURVE SMOOTH",
"435 -129 OFFCURVE",
"403 -124 OFFCURVE",
"364 -113 CURVE SMOOTH",
"359 -111 OFFCURVE",
"353 -110 OFFCURVE",
"348 -110 CURVE SMOOTH",
"320 -110 OFFCURVE",
"301 -136 OFFCURVE",
"301 -161 CURVE SMOOTH",
"301 -182 OFFCURVE",
"314 -204 OFFCURVE",
"344 -211 CURVE SMOOTH",
"401 -225 OFFCURVE",
"452 -233 OFFCURVE",
"497 -233 CURVE SMOOTH",
"633 -233 OFFCURVE",
"712 -162 OFFCURVE",
"712 24 CURVE SMOOTH",
"712 630 LINE SMOOTH",
"712 674 OFFCURVE",
"678 711 OFFCURVE",
"636 711 CURVE SMOOTH",
"593 711 OFFCURVE",
"560 674 OFFCURVE",
"560 630 CURVE SMOOTH",
"560 228 LINE",
"271 627 LINE SMOOTH",
"239 671 OFFCURVE",
"203 710 OFFCURVE",
"162 711 CURVE SMOOTH",
"113 711 OFFCURVE",
"73 674 OFFCURVE",
"73 607 CURVE SMOOTH",
"73 81 LINE SMOOTH",
"73 38 OFFCURVE",
"106 0 OFFCURVE",
"149 0 CURVE SMOOTH",
"191 0 OFFCURVE",
"226 37 OFFCURVE",
"226 81 CURVE SMOOTH"
);
}
);
};
layerId = "E1B555A7-F4E1-459C-9C1A-AE952106EEF9";
paths = (
{
closed = 1;
nodes = (
"633 -233 OFFCURVE",
"712 -162 OFFCURVE",
"712 24 CURVE SMOOTH",
"712 630 LINE SMOOTH",
"712 674 OFFCURVE",
"678 711 OFFCURVE",
"636 711 CURVE SMOOTH",
"593 711 OFFCURVE",
"560 674 OFFCURVE",
"560 630 CURVE SMOOTH",
"560 228 LINE",
"271 627 LINE SMOOTH",
"239 671 OFFCURVE",
"203 710 OFFCURVE",
"162 711 CURVE SMOOTH",
"113 711 OFFCURVE",
"73 674 OFFCURVE",
"73 607 CURVE SMOOTH",
"73 81 LINE SMOOTH",
"73 38 OFFCURVE",
"106 0 OFFCURVE",
"149 0 CURVE SMOOTH",
"191 0 OFFCURVE",
"226 37 OFFCURVE",
"226 81 CURVE SMOOTH",
"226 465 LINE",
"558 -2 LINE",
"558 -3 LINE",
"558 -88 OFFCURVE",
"532 -129 OFFCURVE",
"461 -129 CURVE SMOOTH",
"435 -129 OFFCURVE",
"403 -124 OFFCURVE",
"364 -113 CURVE SMOOTH",
"359 -111 OFFCURVE",
"353 -110 OFFCURVE",
"348 -110 CURVE SMOOTH",
"320 -110 OFFCURVE",
"301 -136 OFFCURVE",
"301 -161 CURVE SMOOTH",
"301 -182 OFFCURVE",
"314 -204 OFFCURVE",
"344 -211 CURVE SMOOTH",
"401 -225 OFFCURVE",
"452 -233 OFFCURVE",
"497 -233 CURVE SMOOTH"
);
}
);
width = 786;
}
);
unicode = 014A;
userData = {
com.typemytype.robofont.layerData = {
b = {
anchors = (
);
components = (
);
contours = (
);
lib = {
};
name = Eng;
unicodes = (
);
width = 1495;
};
};
};
},
{
glyphname = O;
lastChange = "2016-08-12 14:12:21 +0000";
layers = (
{
anchors = (
{
name = bottom;
position = "{389, 0}";
},
{
name = center;
position = "{389, 347}";
},
{
name = ogonek;
position = "{700, 5}";
},
{
name = top;
position = "{388, 702}";
},
{
name = topleft;
position = "{10, 693}";
},
{
name = topright;
position = "{768, 693}";
}
);
background = {
anchors = (
{
name = bottom;
position = "{389, 0}";
},
{
name = center;
position = "{389, 347}";
},
{
name = ogonek;
position = "{700, 5}";
},
{
name = top;
position = "{388, 702}";
},
{
name = topleft;
position = "{10, 693}";
},
{
name = topright;
position = "{768, 693}";
}
);
paths = (
{
closed = 1;
nodes = (
"199 689 OFFCURVE",
"71 558 OFFCURVE",
"71 339 CURVE SMOOTH",
"71 121 OFFCURVE",
"199 -11 OFFCURVE",
"389 -11 CURVE SMOOTH",
"578 -11 OFFCURVE",
"707 121 OFFCURVE",
"707 339 CURVE SMOOTH",
"707 558 OFFCURVE",
"578 689 OFFCURVE",
"389 689 CURVE SMOOTH"
);
},
{
closed = 1;
nodes = (
"539 641 OFFCURVE",
"642 533 OFFCURVE",
"642 339 CURVE SMOOTH",
"642 147 OFFCURVE",
"540 38 OFFCURVE",
"389 38 CURVE SMOOTH",
"239 38 OFFCURVE",
"136 147 OFFCURVE",
"136 339 CURVE SMOOTH",
"136 533 OFFCURVE",
"239 641 OFFCURVE",
"389 641 CURVE SMOOTH"
);
}
);
};
layerId = "9E718F8A-2CEA-4931-B05D-987794BD97DA";
paths = (
{
closed = 1;
nodes = (
"578 -11 OFFCURVE",
"707 121 OFFCURVE",
"707 339 CURVE SMOOTH",
"707 558 OFFCURVE",
"578 689 OFFCURVE",
"389 689 CURVE SMOOTH",
"199 689 OFFCURVE",
"71 558 OFFCURVE",
"71 339 CURVE SMOOTH",
"71 121 OFFCURVE",
"199 -11 OFFCURVE",
"389 -11 CURVE SMOOTH"
);
},
{
closed = 1;
nodes = (
"239 38 OFFCURVE",
"136 147 OFFCURVE",
"136 339 CURVE SMOOTH",
"136 533 OFFCURVE",
"239 641 OFFCURVE",
"389 641 CURVE SMOOTH",
"539 641 OFFCURVE",
"642 533 OFFCURVE",
"642 339 CURVE SMOOTH",
"642 147 OFFCURVE",
"540 38 OFFCURVE",
"389 38 CURVE SMOOTH"
);
}
);
width = 778;
},
{
anchors = (
{
name = bottom;
position = "{399, 0}";
},
{
name = center;
position = "{399, 355}";
},
{
name = ogonek;
position = "{718, 5}";
},
{
name = top;
position = "{398, 709}";
},
{
name = topleft;
position = "{10, 711}";
},
{
name = topright;
position = "{788, 711}";
}
);
background = {
anchors = (
{
name = bottom;
position = "{399, 0}";
},
{
name = center;
position = "{399, 355}";
},
{
name = ogonek;
position = "{718, 5}";
},
{
name = top;
position = "{398, 709}";
},
{
name = topleft;
position = "{10, 711}";
},
{
name = topright;
position = "{788, 711}";
}
);
paths = (
{
closed = 1;
nodes = (
"169 726 OFFCURVE",
"50 603 OFFCURVE",
"50 354 CURVE SMOOTH",
"50 105 OFFCURVE",
"169 -19 OFFCURVE",
"399 -19 CURVE SMOOTH",
"628 -19 OFFCURVE",
"748 105 OFFCURVE",
"748 354 CURVE SMOOTH",
"748 603 OFFCURVE",
"628 726 OFFCURVE",
"399 726 CURVE SMOOTH"
);
},
{
closed = 1;
nodes = (
"514 595 OFFCURVE",
"560 533 OFFCURVE",
"560 354 CURVE SMOOTH",
"560 175 OFFCURVE",
"514 113 OFFCURVE",
"399 113 CURVE SMOOTH",
"285 113 OFFCURVE",
"239 175 OFFCURVE",
"239 354 CURVE SMOOTH",
"239 533 OFFCURVE",
"285 595 OFFCURVE",
"399 595 CURVE SMOOTH"
);
}
);
};
layerId = "E1B555A7-F4E1-459C-9C1A-AE952106EEF9";
paths = (
{
closed = 1;
nodes = (
"628 -19 OFFCURVE",
"748 105 OFFCURVE",
"748 354 CURVE SMOOTH",
"748 603 OFFCURVE",
"628 726 OFFCURVE",
"399 726 CURVE SMOOTH",
"169 726 OFFCURVE",
"50 603 OFFCURVE",
"50 354 CURVE SMOOTH",
"50 105 OFFCURVE",
"169 -19 OFFCURVE",
"399 -19 CURVE SMOOTH"
);
},
{
closed = 1;
nodes = (
"285 113 OFFCURVE",
"239 175 OFFCURVE",
"239 354 CURVE SMOOTH",
"239 533 OFFCURVE",
"285 595 OFFCURVE",
"399 595 CURVE SMOOTH",
"514 595 OFFCURVE",
"560 533 OFFCURVE",
"560 354 CURVE SMOOTH",
"560 175 OFFCURVE",
"514 113 OFFCURVE",
"399 113 CURVE SMOOTH"
);
}
);
width = 797;
}
);
unicode = 004F;
userData = {
anchors = (
);
b = {
};
com.typemytype.robofont.guides = (
);
com.typemytype.robofont.layerData = {
b = {
anchors = (
);
components = (
);
contours = (
);
lib = {
};
name = O;
unicodes = (
);
width = 1597;
};
};
components = (
);
contours = (
);
lib = {
};
name = O;
unicodes = (
);
width = 1604;
};
},
{
glyphname = Oslash;
lastChange = "2016-08-12 14:12:21 +0000";
layers = (
{
anchors = (
{
name = bottom;
position = "{389, 0}";
},
{
name = top;
position = "{389, 693}";
}
);
background = {
anchors = (
{
name = bottom;
position = "{389, 0}";
},
{
name = top;
position = "{389, 693}";
}
);
components = (
{
name = O;
}
);
paths = (
{
closed = 1;
nodes = (
"110 -11 LINE",
"107 -16 OFFCURVE",
"106 -19 OFFCURVE",
"106 -23 CURVE SMOOTH",
"106 -34 OFFCURVE",
"116 -44 OFFCURVE",
"128 -44 CURVE SMOOTH",
"135 -44 OFFCURVE",
"144 -44 OFFCURVE",
"152 -34 CURVE",
"674 697 LINE SMOOTH",
"681 706 OFFCURVE",
"683 714 OFFCURVE",
"683 720 CURVE SMOOTH",
"683 734 OFFCURVE",
"672 743 OFFCURVE",
"661 743 CURVE SMOOTH",
"653 743 OFFCURVE",
"643 740 OFFCURVE",
"634 728 CURVE SMOOTH"
);
}
);
};
components = (
{
name = O;
}
);
layerId = "9E718F8A-2CEA-4931-B05D-987794BD97DA";
paths = (
{
closed = 1;
nodes = (
"135 -44 OFFCURVE",
"144 -44 OFFCURVE",
"152 -34 CURVE",
"674 697 LINE SMOOTH",
"681 706 OFFCURVE",
"683 714 OFFCURVE",
"683 720 CURVE SMOOTH",
"683 734 OFFCURVE",
"672 743 OFFCURVE",
"661 743 CURVE SMOOTH",
"653 743 OFFCURVE",
"643 740 OFFCURVE",
"634 728 CURVE SMOOTH",
"110 -11 LINE",
"107 -16 OFFCURVE",
"106 -19 OFFCURVE",
"106 -23 CURVE SMOOTH",
"106 -34 OFFCURVE",
"116 -44 OFFCURVE",
"128 -44 CURVE SMOOTH"
);
}
);
width = 778;
},
{
anchors = (
{
name = bottom;
position = "{394, 0}";
},
{
name = top;
position = "{394, 711}";
}
);
background = {
anchors = (
{
name = bottom;
position = "{394, 0}";
},
{
name = top;
position = "{394, 711}";
}
);
components = (
{
name = O;
}
);
paths = (
{
closed = 1;
nodes = (
"123 -25 LINE SMOOTH",
"115 -39 OFFCURVE",
"109 -55 OFFCURVE",
"109 -69 CURVE SMOOTH",
"109 -97 OFFCURVE",
"130 -113 OFFCURVE",
"154 -113 CURVE SMOOTH",
"175 -113 OFFCURVE",
"186 -94 OFFCURVE",
"199 -71 CURVE SMOOTH",
"690 715 LINE SMOOTH",
"698 728 OFFCURVE",
"705 744 OFFCURVE",
"705 758 CURVE SMOOTH",
"705 784 OFFCURVE",
"683 802 OFFCURVE",
"659 802 CURVE SMOOTH",
"643 802 OFFCURVE",
"629 794 OFFCURVE",
"620 778 CURVE SMOOTH"
);
}
);
};
components = (
{
name = O;
}
);
layerId = "E1B555A7-F4E1-459C-9C1A-AE952106EEF9";
paths = (
{
closed = 1;
nodes = (
"175 -113 OFFCURVE",
"186 -94 OFFCURVE",
"199 -71 CURVE SMOOTH",
"690 715 LINE SMOOTH",
"698 728 OFFCURVE",
"705 744 OFFCURVE",
"705 758 CURVE SMOOTH",
"705 784 OFFCURVE",
"683 802 OFFCURVE",
"659 802 CURVE SMOOTH",
"643 802 OFFCURVE",
"629 794 OFFCURVE",
"620 778 CURVE SMOOTH",
"123 -25 LINE SMOOTH",
"115 -39 OFFCURVE",
"109 -55 OFFCURVE",
"109 -69 CURVE SMOOTH",
"109 -97 OFFCURVE",
"130 -113 OFFCURVE",
"154 -113 CURVE SMOOTH"
);
}
);
width = 787;
}
);
unicode = 00D8;
userData = {
com.typemytype.robofont.layerData = {
b = {
anchors = (
);
components = (
);
contours = (
);
lib = {
};
name = Oslash;
unicodes = (
);
width = 1597;
};
};
};
},
{
glyphname = OE;
lastChange = "2016-08-12 14:12:21 +0000";
layers = (
{
anchors = (
{
name = bottom;
position = "{488, 0}";
},
{
name = top;
position = "{488, 693}";
}
);
background = {
anchors = (
{
name = bottom;
position = "{488, 0}";
},
{
name = top;
position = "{488, 693}";
}
);
paths = (
{
closed = 1;
nodes = (
"597 54 LINE",
"597 330 LINE",
"852 330 LINE SMOOTH",
"874 330 OFFCURVE",
"884 344 OFFCURVE",
"884 357 CURVE SMOOTH",
"884 372 OFFCURVE",
"874 386 OFFCURVE",
"852 386 CURVE SMOOTH",
"597 386 LINE",
"597 638 LINE",
"866 638 LINE SMOOTH",
"885 638 OFFCURVE",
"896 652 OFFCURVE",
"896 666 CURVE SMOOTH",
"896 681 OFFCURVE",
"885 693 OFFCURVE",
"866 693 CURVE SMOOTH",
"536 693 LINE SMOOTH",
"536 693 OFFCURVE",
"417 708 OFFCURVE",
"351 708 CURVE SMOOTH",
"171 708 OFFCURVE",
"62 562 OFFCURVE",
"62 346 CURVE SMOOTH",
"62 130 OFFCURVE",
"171 -16 OFFCURVE",
"351 -16 CURVE SMOOTH",
"416 -16 OFFCURVE",
"536 0 OFFCURVE",
"536 0 CURVE",
"880 0 LINE SMOOTH",
"899 0 OFFCURVE",
"909 12 OFFCURVE",
"909 26 CURVE SMOOTH",
"909 41 OFFCURVE",
"899 54 OFFCURVE",
"880 54 CURVE SMOOTH"
);
},
{
closed = 1;
nodes = (
"536 54 LINE",
"536 54 OFFCURVE",
"464 42 OFFCURVE",
"351 40 CURVE SMOOTH",
"194 40 OFFCURVE",
"125 194 OFFCURVE",
"125 346 CURVE SMOOTH",
"125 498 OFFCURVE",
"194 652 OFFCURVE",
"351 652 CURVE SMOOTH",
"470 652 OFFCURVE",
"535 641 OFFCURVE",
"536 641 CURVE"
);
}
);
};
layerId = "9E718F8A-2CEA-4931-B05D-987794BD97DA";
paths = (
{
closed = 1;
nodes = (
"416 -16 OFFCURVE",
"536 0 OFFCURVE",
"536 0 CURVE",
"880 0 LINE SMOOTH",
"899 0 OFFCURVE",
"909 12 OFFCURVE",
"909 26 CURVE SMOOTH",
"909 41 OFFCURVE",
"899 54 OFFCURVE",
"880 54 CURVE SMOOTH",
"597 54 LINE",
"597 330 LINE",
"852 330 LINE SMOOTH",
"874 330 OFFCURVE",
"884 344 OFFCURVE",
"884 357 CURVE SMOOTH",
"884 372 OFFCURVE",
"874 386 OFFCURVE",
"852 386 CURVE SMOOTH",
"597 386 LINE",
"597 638 LINE",
"866 638 LINE SMOOTH",
"885 638 OFFCURVE",
"896 652 OFFCURVE",
"896 666 CURVE SMOOTH",
"896 681 OFFCURVE",
"885 693 OFFCURVE",
"866 693 CURVE SMOOTH",
"536 693 LINE SMOOTH",
"536 693 OFFCURVE",
"417 708 OFFCURVE",
"351 708 CURVE SMOOTH",
"171 708 OFFCURVE",
"62 562 OFFCURVE",
"62 346 CURVE SMOOTH",
"62 130 OFFCURVE",
"171 -16 OFFCURVE",
"351 -16 CURVE SMOOTH"
);
},
{
closed = 1;
nodes = (
"194 40 OFFCURVE",
"125 194 OFFCURVE",
"125 346 CURVE SMOOTH",
"125 498 OFFCURVE",
"194 652 OFFCURVE",
"351 652 CURVE SMOOTH",
"470 652 OFFCURVE",
"535 641 OFFCURVE",
"536 641 CURVE",
"536 54 LINE",
"536 54 OFFCURVE",
"464 42 OFFCURVE",
"351 40 CURVE SMOOTH"
);
}
);
width = 976;
},
{
anchors = (
{
name = bottom;
position = "{488, 0}";
},
{
name = top;
position = "{488, 711}";
}
);
background = {
anchors = (
{
name = bottom;
position = "{488, 0}";
},
{
name = top;
position = "{488, 711}";
}
);
paths = (
{
closed = 1;
nodes = (
"659 131 LINE",
"659 296 LINE",
"791 296 LINE SMOOTH",
"859 296 OFFCURVE",
"901 305 OFFCURVE",
"901 361 CURVE SMOOTH",
"901 423 OFFCURVE",
"851 427 OFFCURVE",
"804 427 CURVE SMOOTH",
"659 427 LINE",
"659 579 LINE",
"814 579 LINE SMOOTH",
"884 579 OFFCURVE",
"925 588 OFFCURVE",
"925 645 CURVE SMOOTH",
"925 700 OFFCURVE",
"884 710 OFFCURVE",
"838 710 CURVE SMOOTH",
"541 710 LINE SMOOTH",
"515 710 OFFCURVE",
"432 718 OFFCURVE",
"375 718 CURVE SMOOTH",
"162 718 OFFCURVE",
"42 582 OFFCURVE",
"42 354 CURVE SMOOTH",
"42 124 OFFCURVE",
"168 -8 OFFCURVE",
"357 -8 CURVE SMOOTH",
"372 -8 OFFCURVE",
"504 0 OFFCURVE",
"518 0 CURVE SMOOTH",
"847 0 LINE SMOOTH",
"899 0 OFFCURVE",
"933 15 OFFCURVE",
"933 65 CURVE SMOOTH",
"933 129 OFFCURVE",
"874 131 OFFCURVE",
"820 131 CURVE SMOOTH"
);
},
{
closed = 1;
nodes = (
"487 125 LINE",
"481 122 OFFCURVE",
"433 113 OFFCURVE",
"372 113 CURVE SMOOTH",
"260 113 OFFCURVE",
"219 210 OFFCURVE",
"219 358 CURVE SMOOTH",
"219 508 OFFCURVE",
"269 597 OFFCURVE",
"373 597 CURVE SMOOTH",
"439 597 OFFCURVE",
"479 590 OFFCURVE",
"487 586 CURVE"
);
}
);
};
layerId = "E1B555A7-F4E1-459C-9C1A-AE952106EEF9";
paths = (
{
closed = 1;
nodes = (
"372 -8 OFFCURVE",
"504 0 OFFCURVE",
"518 0 CURVE SMOOTH",
"847 0 LINE SMOOTH",
"899 0 OFFCURVE",
"933 15 OFFCURVE",
"933 65 CURVE SMOOTH",
"933 129 OFFCURVE",
"874 131 OFFCURVE",
"820 131 CURVE SMOOTH",
"659 131 LINE",
"659 296 LINE",
"791 296 LINE SMOOTH",
"859 296 OFFCURVE",
"901 305 OFFCURVE",
"901 361 CURVE SMOOTH",
"901 423 OFFCURVE",
"851 427 OFFCURVE",
"804 427 CURVE SMOOTH",
"659 427 LINE",
"659 579 LINE",
"814 579 LINE SMOOTH",
"884 579 OFFCURVE",
"925 588 OFFCURVE",
"925 645 CURVE SMOOTH",
"925 700 OFFCURVE",
"884 710 OFFCURVE",
"838 710 CURVE SMOOTH",
"541 710 LINE SMOOTH",
"515 710 OFFCURVE",
"432 718 OFFCURVE",
"375 718 CURVE SMOOTH",
"162 718 OFFCURVE",
"42 582 OFFCURVE",
"42 354 CURVE SMOOTH",
"42 124 OFFCURVE",
"168 -8 OFFCURVE",
"357 -8 CURVE SMOOTH"
);
},
{
closed = 1;
nodes = (
"260 113 OFFCURVE",
"219 210 OFFCURVE",
"219 358 CURVE SMOOTH",
"219 508 OFFCURVE",
"269 597 OFFCURVE",
"373 597 CURVE SMOOTH",
"439 597 OFFCURVE",
"479 590 OFFCURVE",
"487 586 CURVE",
"487 125 LINE",
"481 122 OFFCURVE",
"433 113 OFFCURVE",
"372 113 CURVE SMOOTH"
);
}
);
width = 976;
}
);
unicode = 0152;
},
{
glyphname = P;
lastChange = "2016-08-12 14:12:21 +0000";
layers = (
{
anchors = (
{
name = bottom;
position = "{281, 0}";
},
{
name = top;
position = "{306, 702}";
}
);
background = {
anchors = (
{
name = bottom;
position = "{281, 0}";
},
{
name = top;
position = "{306, 702}";
}
);
paths = (
{
closed = 1;
nodes = (
"149 320 LINE",
"311 320 LINE SMOOTH",
"441 320 OFFCURVE",
"552 361 OFFCURVE",
"552 505 CURVE SMOOTH",
"552 647 OFFCURVE",
"463 693 OFFCURVE",
"315 693 CURVE SMOOTH",
"119 693 LINE SMOOTH",
"101 693 OFFCURVE",
"88 680 OFFCURVE",
"88 664 CURVE SMOOTH",
"88 28 LINE SMOOTH",
"88 10 OFFCURVE",
"104 0 OFFCURVE",
"119 0 CURVE SMOOTH",
"133 0 OFFCURVE",
"149 9 OFFCURVE",
"149 28 CURVE SMOOTH"
);
},
{
closed = 1;
nodes = (
"149 368 LINE",
"149 645 LINE",
"323 645 LINE SMOOTH",
"452 645 OFFCURVE",
"493 595 OFFCURVE",
"493 505 CURVE SMOOTH",
"493 414 OFFCURVE",
"440 368 OFFCURVE",
"314 368 CURVE SMOOTH"
);
}
);
};
layerId = "9E718F8A-2CEA-4931-B05D-987794BD97DA";
paths = (
{
closed = 1;
nodes = (
"133 0 OFFCURVE",
"149 9 OFFCURVE",
"149 28 CURVE SMOOTH",
"149 320 LINE",
"311 320 LINE SMOOTH",
"441 320 OFFCURVE",
"552 361 OFFCURVE",
"552 505 CURVE SMOOTH",
"552 647 OFFCURVE",
"463 693 OFFCURVE",
"315 693 CURVE SMOOTH",
"119 693 LINE SMOOTH",
"101 693 OFFCURVE",
"88 680 OFFCURVE",
"88 664 CURVE SMOOTH",
"88 28 LINE SMOOTH",
"88 10 OFFCURVE",
"104 0 OFFCURVE",
"119 0 CURVE SMOOTH"
);
},
{
closed = 1;
nodes = (
"149 645 LINE",
"323 645 LINE SMOOTH",
"452 645 OFFCURVE",
"493 595 OFFCURVE",
"493 505 CURVE SMOOTH",
"493 414 OFFCURVE",
"440 368 OFFCURVE",
"314 368 CURVE SMOOTH",
"149 368 LINE"
);
}
);
width = 562;
},
{
anchors = (
{
name = bottom;
position = "{337, 0}";
},
{
name = top;
position = "{359, 702}";
}
);
background = {
anchors = (
{
name = bottom;
position = "{337, 0}";
},
{
name = top;
position = "{359, 702}";
}
);
paths = (
{
closed = 1;
nodes = (
"254 268 LINE",
"380 268 LINE SMOOTH",
"553 268 OFFCURVE",
"654 342 OFFCURVE",
"654 490 CURVE SMOOTH",
"654 668 OFFCURVE",
"531 711 OFFCURVE",
"380 711 CURVE SMOOTH",
"189 711 LINE SMOOTH",
"86 711 OFFCURVE",
"73 646 OFFCURVE",
"73 563 CURVE SMOOTH",
"73 102 LINE SMOOTH",
"73 46 OFFCURVE",
"113 0 OFFCURVE",
"163 0 CURVE SMOOTH",
"213 0 OFFCURVE",
"254 46 OFFCURVE",
"254 102 CURVE SMOOTH"
);
},
{
closed = 1;
nodes = (
"254 379 LINE",
"254 593 LINE",
"359 593 LINE SMOOTH",
"436 593 OFFCURVE",
"478 576 OFFCURVE",
"478 490 CURVE SMOOTH",
"478 401 OFFCURVE",
"434 381 OFFCURVE",
"351 379 CURVE SMOOTH"
);
}
);
};
layerId = "E1B555A7-F4E1-459C-9C1A-AE952106EEF9";
paths = (
{
closed = 1;
nodes = (
"213 0 OFFCURVE",
"254 46 OFFCURVE",
"254 102 CURVE SMOOTH",
"254 268 LINE",
"380 268 LINE SMOOTH",
"553 268 OFFCURVE",
"654 342 OFFCURVE",
"654 490 CURVE SMOOTH",
"654 668 OFFCURVE",
"531 711 OFFCURVE",
"380 711 CURVE SMOOTH",
"189 711 LINE SMOOTH",
"86 711 OFFCURVE",
"73 646 OFFCURVE",
"73 563 CURVE SMOOTH",
"73 102 LINE SMOOTH",
"73 46 OFFCURVE",
"113 0 OFFCURVE",
"163 0 CURVE SMOOTH"
);
},
{
closed = 1;
nodes = (
"254 593 LINE",
"359 593 LINE SMOOTH",
"436 593 OFFCURVE",
"478 576 OFFCURVE",
"478 490 CURVE SMOOTH",
"478 401 OFFCURVE",
"434 381 OFFCURVE",
"351 379 CURVE SMOOTH",
"254 379 LINE"
);
}
);
width = 675;
}
);
unicode = 0050;
userData = {
anchors = (
);
b = {
};
com.typemytype.robofont.layerData = {
b = {
anchors = (
);
components = (
);
contours = (
{
points = (
{
segmentType = curve;
smooth = 1;
x = 266;
y = 0;
},
{
segmentType = line;
smooth = 1;
x = 1035;
y = 0;
},
{
smooth = 0;
x = 1084;
y = 0;
},
{
smooth = 0;
x = 1108;
y = 34;
},
{
segmentType = curve;
smooth = 1;
x = 1108;
y = 71;
},
{
smooth = 0;
x = 1108;
y = 107;
},
{
smooth = 0;
x = 1084;
y = 141;
},
{
segmentType = curve;
smooth = 1;
x = 1035;
y = 141;
},
{
segmentType = line;
smooth = 0;
x = 356;
y = 141;
},
{
segmentType = line;
smooth = 0;
x = 356;
y = 665;
},
{
segmentType = line;
smooth = 1;
x = 975;
y = 665;
},
{
smooth = 0;
x = 1024;
y = 665;
},
{
smooth = 0;
x = 1049;
y = 698;
},
{
segmentType = curve;
smooth = 1;
x = 1049;
y = 734;
},
{
smooth = 0;
x = 1049;
y = 770;
},
{
smooth = 0;
x = 1026;
y = 803;
},
{
segmentType = curve;
smooth = 1;
x = 975;
y = 803;
},
{
segmentType = line;
smooth = 0;
x = 356;
y = 803;
},
{
segmentType = line;
smooth = 0;
x = 356;
y = 1285;
},
{
segmentType = line;
smooth = 1;
x = 1007;
y = 1285;
},
{
smooth = 0;
x = 1056;
y = 1285;
},
{
smooth = 0;
x = 1080;
y = 1319;
},
{
segmentType = curve;
smooth = 1;
x = 1080;
y = 1356;
},
{
smooth = 0;
x = 1080;
y = 1392;
},
{
smooth = 0;
x = 1056;
y = 1426;
},
{
segmentType = curve;
smooth = 1;
x = 1007;
y = 1426;
},
{
segmentType = line;
smooth = 1;
x = 261;
y = 1426;
},
{
smooth = 0;
x = 213;
y = 1426;
},
{
smooth = 0;
x = 178;
y = 1383;
},
{
segmentType = curve;
smooth = 1;
x = 178;
y = 1340;
},
{
segmentType = line;
smooth = 1;
x = 178;
y = 86;
},
{
smooth = 0;
x = 178;
y = 41;
},
{
smooth = 0;
x = 222;
y = 0;
}
);
}
);
lib = {
};
name = P;
unicodes = (
);
width = 1201;
};
};
components = (
);
contours = (
);
lib = {
};
name = P;
unicodes = (
);
width = 1319;
};
},
{
glyphname = Thorn;
lastChange = "2016-08-12 14:12:21 +0000";
layers = (
{
anchors = (
{
name = bottom;
position = "{304, 0}";
},
{
name = top;
position = "{304, 693}";
}
);
background = {
anchors = (
{
name = bottom;
position = "{304, 0}";
},
{
name = top;
position = "{304, 693}";
}
);
paths = (
{
closed = 1;
nodes = (
"161 214 LINE",
"294 214 LINE SMOOTH",
"427 214 OFFCURVE",
"573 250 OFFCURVE",
"573 410 CURVE SMOOTH",
"573 569 OFFCURVE",
"427 605 OFFCURVE",
"293 605 CURVE SMOOTH",
"161 605 LINE",
"161 667 LINE SMOOTH",
"161 686 OFFCURVE",
"146 695 OFFCURVE",
"130 695 CURVE SMOOTH",
"116 695 OFFCURVE",
"101 686 OFFCURVE",
"101 667 CURVE SMOOTH",
"101 27 LINE SMOOTH",
"101 9 OFFCURVE",
"116 0 OFFCURVE",
"131 0 CURVE SMOOTH",
"146 0 OFFCURVE",
"161 8 OFFCURVE",
"161 27 CURVE SMOOTH"
);
},
{
closed = 1;
nodes = (
"161 271 LINE",
"161 549 LINE",
"322 549 LINE SMOOTH",
"420 549 OFFCURVE",
"507 520 OFFCURVE",
"507 410 CURVE SMOOTH",
"507 299 OFFCURVE",
"420 271 OFFCURVE",
"323 271 CURVE SMOOTH"
);
}
);
};
layerId = "9E718F8A-2CEA-4931-B05D-987794BD97DA";
paths = (
{
closed = 1;
nodes = (
"146 0 OFFCURVE",
"161 8 OFFCURVE",
"161 27 CURVE SMOOTH",
"161 214 LINE",
"294 214 LINE SMOOTH",
"427 214 OFFCURVE",
"573 250 OFFCURVE",
"573 410 CURVE SMOOTH",
"573 569 OFFCURVE",
"427 605 OFFCURVE",
"293 605 CURVE SMOOTH",
"161 605 LINE",
"161 667 LINE SMOOTH",
"161 686 OFFCURVE",
"146 695 OFFCURVE",
"130 695 CURVE SMOOTH",
"116 695 OFFCURVE",
"101 686 OFFCURVE",
"101 667 CURVE SMOOTH",
"101 27 LINE SMOOTH",
"101 9 OFFCURVE",
"116 0 OFFCURVE",
"131 0 CURVE SMOOTH"
);
},
{
closed = 1;
nodes = (
"161 549 LINE",
"322 549 LINE SMOOTH",
"420 549 OFFCURVE",
"507 520 OFFCURVE",
"507 410 CURVE SMOOTH",
"507 299 OFFCURVE",
"420 271 OFFCURVE",
"323 271 CURVE SMOOTH",
"161 271 LINE"
);
}
);
width = 608;
},
{
anchors = (
{
name = bottom;
position = "{339, 0}";
},
{
name = top;
position = "{339, 711}";
}
);
background = {
anchors = (
{
name = bottom;
position = "{339, 0}";
},
{
name = top;
position = "{339, 711}";
}
);
paths = (
{
closed = 1;
nodes = (
"255 153 LINE",
"367 153 LINE SMOOTH",
"544 153 OFFCURVE",
"655 231 OFFCURVE",
"655 375 CURVE SMOOTH",
"655 532 OFFCURVE",
"518 595 OFFCURVE",
"353 595 CURVE SMOOTH",
"255 595 LINE",
"255 611 LINE SMOOTH",
"255 688 OFFCURVE",
"218 726 OFFCURVE",
"160 726 CURVE SMOOTH",
"84 726 OFFCURVE",
"74 655 OFFCURVE",
"74 590 CURVE SMOOTH",
"74 123 LINE SMOOTH",
"74 46 OFFCURVE",
"98 2 OFFCURVE",
"160 2 CURVE SMOOTH",
"226 2 OFFCURVE",
"255 68 OFFCURVE",
"255 152 CURVE SMOOTH"
);
},
{
closed = 1;
nodes = (
"255 272 LINE",
"255 476 LINE",
"346 476 LINE SMOOTH",
"424 476 OFFCURVE",
"479 451 OFFCURVE",
"479 375 CURVE SMOOTH",
"479 298 OFFCURVE",
"421 272 OFFCURVE",
"338 272 CURVE SMOOTH"
);
}
);
};
layerId = "E1B555A7-F4E1-459C-9C1A-AE952106EEF9";
paths = (
{
closed = 1;
nodes = (
"226 2 OFFCURVE",
"255 68 OFFCURVE",
"255 152 CURVE SMOOTH",
"255 153 LINE",
"367 153 LINE SMOOTH",
"544 153 OFFCURVE",
"655 231 OFFCURVE",
"655 375 CURVE SMOOTH",
"655 532 OFFCURVE",
"518 595 OFFCURVE",
"353 595 CURVE SMOOTH",
"255 595 LINE",
"255 611 LINE SMOOTH",
"255 688 OFFCURVE",
"218 726 OFFCURVE",
"160 726 CURVE SMOOTH",
"84 726 OFFCURVE",
"74 655 OFFCURVE",
"74 590 CURVE SMOOTH",
"74 123 LINE SMOOTH",
"74 46 OFFCURVE",
"98 2 OFFCURVE",
"160 2 CURVE SMOOTH"
);
},
{
closed = 1;
nodes = (
"255 476 LINE",
"346 476 LINE SMOOTH",
"424 476 OFFCURVE",
"479 451 OFFCURVE",
"479 375 CURVE SMOOTH",
"479 298 OFFCURVE",
"421 272 OFFCURVE",
"338 272 CURVE SMOOTH",
"255 272 LINE"
);
}
);
width = 679;
}
);
unicode = 00DE;
},
{
glyphname = Q;
lastChange = "2016-08-12 14:12:21 +0000";
layers = (
{
anchors = (
{
name = bottom;
position = "{389, 0}";
},
{
name = top;
position = "{389, 693}";
}
);
background = {
anchors = (
{
name = bottom;
position = "{389, 0}";
},
{
name = top;
position = "{389, 693}";
}
);
components = (
{
name = O;
}
);
paths = (
{
closed = 1;
nodes = (
"476 18 LINE",
"359 11 LINE",
"663 -118 LINE SMOOTH",
"667 -120 OFFCURVE",
"672 -120 OFFCURVE",
"676 -120 CURVE SMOOTH",
"689 -120 OFFCURVE",
"702 -110 OFFCURVE",
"702 -94 CURVE SMOOTH",
"702 -83 OFFCURVE",
"696 -72 OFFCURVE",
"685 -68 CURVE"
);
}
);
};
components = (
{
name = O;
}
);
layerId = "9E718F8A-2CEA-4931-B05D-987794BD97DA";
paths = (
{
closed = 1;
nodes = (
"689 -120 OFFCURVE",
"702 -110 OFFCURVE",
"702 -94 CURVE SMOOTH",
"702 -83 OFFCURVE",
"696 -72 OFFCURVE",
"685 -68 CURVE",
"476 18 LINE",
"359 11 LINE",
"663 -118 LINE SMOOTH",
"667 -120 OFFCURVE",
"672 -120 OFFCURVE",
"676 -120 CURVE SMOOTH"
);
}
);
width = 778;
},
{
anchors = (
{
name = bottom;
position = "{399, 0}";
},
{
name = top;
position = "{399, 711}";
}
);
background = {
anchors = (
{
name = bottom;
position = "{399, 0}";
},
{
name = top;
position = "{399, 711}";
}
);
components = (
{
name = O;
}
);
paths = (
{
closed = 1;
nodes = (
"526 91 LINE",
"372 34 LINE",
"632 -128 LINE SMOOTH",
"648 -138 OFFCURVE",
"664 -144 OFFCURVE",
"679 -144 CURVE SMOOTH",
"710 -144 OFFCURVE",
"736 -110 OFFCURVE",
"736 -80 CURVE SMOOTH",
"736 -58 OFFCURVE",
"721 -41 OFFCURVE",
"699 -26 CURVE SMOOTH"
);
}
);
};
components = (
{
name = O;
}
);
layerId = "E1B555A7-F4E1-459C-9C1A-AE952106EEF9";
paths = (
{
closed = 1;
nodes = (
"710 -144 OFFCURVE",
"736 -110 OFFCURVE",
"736 -80 CURVE SMOOTH",
"736 -58 OFFCURVE",
"721 -41 OFFCURVE",
"699 -26 CURVE SMOOTH",
"526 91 LINE",
"372 34 LINE",
"632 -128 LINE SMOOTH",
"648 -138 OFFCURVE",
"664 -144 OFFCURVE",
"679 -144 CURVE SMOOTH"
);
}
);
width = 797;
}
);
unicode = 0051;
userData = {
anchors = (
);
b = {
};
com.typemytype.robofont.layerData = {
b = {
anchors = (
);
components = (
);
contours = (
);
lib = {
};
name = Q;
unicodes = (
);
width = 1597;
};
};
components = (
);
contours = (
);
lib = {
};
name = Q;
unicodes = (
);
width = 1604;
};
},
{
glyphname = R;
lastChange = "2016-08-12 14:12:21 +0000";
layers = (
{
anchors = (
{
name = bottom;
position = "{325, 0}";
},
{
name = top;
position = "{336, 702}";
}
);
background = {
anchors = (
{
name = bottom;
position = "{325, 0}";
},
{
name = top;
position = "{336, 702}";
}
);
paths = (
{
closed = 1;
nodes = (
"149 335 LINE",
"347 335 LINE SMOOTH",
"454 335 OFFCURVE",
"474 316 OFFCURVE",
"490 174 CURVE SMOOTH",
"507 29 LINE SMOOTH",
"509 9 OFFCURVE",
"526 0 OFFCURVE",
"541 0 CURVE SMOOTH",
"557 0 OFFCURVE",
"568 12 OFFCURVE",
"568 30 CURVE SMOOTH",
"568 32 OFFCURVE",
"568 34 OFFCURVE",
"567 36 CURVE",
"547 215 LINE SMOOTH",
"537 301 OFFCURVE",
"502 348 OFFCURVE",
"432 362 CURVE",
"432 364 LINE",
"524 385 OFFCURVE",
"565 446 OFFCURVE",
"565 521 CURVE SMOOTH",
"565 671 OFFCURVE",
"435 693 OFFCURVE",
"321 693 CURVE SMOOTH",
"119 693 LINE SMOOTH",
"102 693 OFFCURVE",
"88 680 OFFCURVE",
"88 664 CURVE SMOOTH",
"88 28 LINE SMOOTH",
"88 9 OFFCURVE",
"104 0 OFFCURVE",
"119 0 CURVE SMOOTH",
"133 0 OFFCURVE",
"149 8 OFFCURVE",
"149 28 CURVE SMOOTH"
);
},
{
closed = 1;
nodes = (
"149 382 LINE",
"149 645 LINE",
"335 645 LINE SMOOTH",
"407 645 OFFCURVE",
"506 628 OFFCURVE",
"506 521 CURVE SMOOTH",
"506 414 OFFCURVE",
"429 382 OFFCURVE",
"336 382 CURVE SMOOTH"
);
}
);
};
layerId = "9E718F8A-2CEA-4931-B05D-987794BD97DA";
paths = (
{
closed = 1;
nodes = (
"133 0 OFFCURVE",
"149 8 OFFCURVE",
"149 28 CURVE SMOOTH",
"149 335 LINE",
"347 335 LINE SMOOTH",
"454 335 OFFCURVE",
"474 316 OFFCURVE",
"490 174 CURVE SMOOTH",
"507 29 LINE SMOOTH",
"509 9 OFFCURVE",
"526 0 OFFCURVE",
"541 0 CURVE SMOOTH",
"557 0 OFFCURVE",
"568 12 OFFCURVE",
"568 30 CURVE SMOOTH",
"568 32 OFFCURVE",
"568 34 OFFCURVE",
"567 36 CURVE",
"547 215 LINE SMOOTH",
"537 301 OFFCURVE",
"502 348 OFFCURVE",
"432 362 CURVE",
"432 364 LINE",
"524 385 OFFCURVE",
"565 446 OFFCURVE",
"565 521 CURVE SMOOTH",
"565 671 OFFCURVE",
"435 693 OFFCURVE",
"321 693 CURVE SMOOTH",
"119 693 LINE SMOOTH",
"102 693 OFFCURVE",
"88 680 OFFCURVE",
"88 664 CURVE SMOOTH",
"88 28 LINE SMOOTH",
"88 9 OFFCURVE",
"104 0 OFFCURVE",
"119 0 CURVE SMOOTH"
);
},
{
closed = 1;
nodes = (
"149 645 LINE",
"335 645 LINE SMOOTH",
"407 645 OFFCURVE",
"506 628 OFFCURVE",
"506 521 CURVE SMOOTH",
"506 414 OFFCURVE",
"429 382 OFFCURVE",
"336 382 CURVE SMOOTH",
"149 382 LINE"
);
}
);
width = 641;
},
{
anchors = (
{
name = bottom;
position = "{372, 0}";
},
{
name = top;
position = "{359, 702}";
}
);
background = {
anchors = (
{
name = bottom;
position = "{372, 0}";
},
{
name = top;
position = "{359, 702}";
}
);
paths = (
{
closed = 1;
nodes = (
"253 289 LINE",
"354 289 LINE SMOOTH",
"432 289 OFFCURVE",
"460 256 OFFCURVE",
"467 184 CURVE SMOOTH",
"474 120 LINE SMOOTH",
"481 36 OFFCURVE",
"509 0 OFFCURVE",
"568 0 CURVE SMOOTH",
"626 0 OFFCURVE",
"652 31 OFFCURVE",
"652 101 CURVE SMOOTH",
"652 113 OFFCURVE",
"651 127 OFFCURVE",
"650 143 CURVE",
"641 208 LINE SMOOTH",
"628 314 OFFCURVE",
"601 352 OFFCURVE",
"498 364 CURVE",
"498 366 LINE",
"613 386 OFFCURVE",
"655 451 OFFCURVE",
"655 533 CURVE SMOOTH",
"655 682 OFFCURVE",
"524 711 OFFCURVE",
"380 711 CURVE SMOOTH",
"184 711 LINE SMOOTH",
"125 711 OFFCURVE",
"73 681 OFFCURVE",
"73 616 CURVE SMOOTH",
"73 102 LINE SMOOTH",
"73 36 OFFCURVE",
"113 0 OFFCURVE",
"163 0 CURVE SMOOTH",
"213 0 OFFCURVE",
"253 33 OFFCURVE",
"253 102 CURVE SMOOTH"
);
},
{
closed = 1;
nodes = (
"250 405 LINE",
"250 600 LINE",
"326 600 LINE SMOOTH",
"403 600 OFFCURVE",
"478 597 OFFCURVE",
"478 501 CURVE SMOOTH",
"478 418 OFFCURVE",
"400 405 OFFCURVE",
"330 405 CURVE SMOOTH"
);
}
);
};
layerId = "E1B555A7-F4E1-459C-9C1A-AE952106EEF9";
paths = (
{
closed = 1;
nodes = (
"213 0 OFFCURVE",
"253 33 OFFCURVE",
"253 102 CURVE SMOOTH",
"253 289 LINE",
"354 289 LINE SMOOTH",
"432 289 OFFCURVE",
"460 256 OFFCURVE",
"467 184 CURVE SMOOTH",
"474 120 LINE SMOOTH",
"481 36 OFFCURVE",
"509 0 OFFCURVE",
"568 0 CURVE SMOOTH",
"626 0 OFFCURVE",
"652 31 OFFCURVE",
"652 101 CURVE SMOOTH",
"652 113 OFFCURVE",
"651 127 OFFCURVE",
"650 143 CURVE",
"641 208 LINE SMOOTH",
"628 314 OFFCURVE",
"601 352 OFFCURVE",
"498 364 CURVE",
"498 366 LINE",
"613 386 OFFCURVE",
"655 451 OFFCURVE",
"655 533 CURVE SMOOTH",
"655 682 OFFCURVE",
"524 711 OFFCURVE",
"380 711 CURVE SMOOTH",
"184 711 LINE SMOOTH",
"125 711 OFFCURVE",
"73 681 OFFCURVE",
"73 616 CURVE SMOOTH",
"73 102 LINE SMOOTH",
"73 36 OFFCURVE",
"113 0 OFFCURVE",
"163 0 CURVE SMOOTH"
);
},
{
closed = 1;
nodes = (
"250 600 LINE",
"326 600 LINE SMOOTH",
"403 600 OFFCURVE",
"478 597 OFFCURVE",
"478 501 CURVE SMOOTH",
"478 418 OFFCURVE",
"400 405 OFFCURVE",
"330 405 CURVE SMOOTH",
"250 405 LINE"
);
}
);
width = 707;
}
);
unicode = 0052;
userData = {
anchors = (
);
b = {
};
com.typemytype.robofont.guides = (
);
com.typemytype.robofont.layerData = {
b = {
anchors = (
);
components = (
);
contours = (
{
points = (
{
segmentType = curve;
smooth = 1;
x = 267;
y = 0;
},
{
smooth = 0;
x = 311;
y = 0;
},
{
smooth = 0;
x = 356;
y = 27;
},
{
segmentType = curve;
smooth = 1;
x = 356;
y = 84;
},
{
segmentType = line;
smooth = 0;
x = 356;
y = 628;
},
{
segmentType = line;
smooth = 1;
x = 669;
y = 628;
},
{
smooth = 0;
x = 962;
y = 628;
},
{
smooth = 0;
x = 1182;
y = 722;
},
{
segmentType = curve;
smooth = 1;
x = 1182;
y = 1026;
},
{
smooth = 0;
x = 1182;
y = 1324;
},
{
smooth = 0;
x = 993;
y = 1426;
},
{
segmentType = curve;
smooth = 1;
x = 684;
y = 1426;
},
{
segmentType = line;
smooth = 1;
x = 268;
y = 1426;
},
{
smooth = 0;
x = 217;
y = 1426;
},
{
smooth = 0;
x = 178;
y = 1387;
},
{
segmentType = curve;
smooth = 1;
x = 178;
y = 1339;
},
{
segmentType = line;
smooth = 1;
x = 178;
y = 84;
},
{
smooth = 0;
x = 178;
y = 28;
},
{
smooth = 0;
x = 222;
y = 0;
}
);
},
{
points = (
{
segmentType = line;
smooth = 0;
x = 356;
y = 764;
},
{
segmentType = line;
smooth = 0;
x = 356;
y = 1285;
},
{
segmentType = line;
smooth = 1;
x = 684;
y = 1285;
},
{
smooth = 0;
x = 914;
y = 1285;
},
{
smooth = 0;
x = 1008;
y = 1210;
},
{
segmentType = curve;
smooth = 1;
x = 1008;
y = 1026;
},
{
smooth = 0;
x = 1008;
y = 838;
},
{
smooth = 0;
x = 901;
y = 764;
},
{
segmentType = curve;
smooth = 1;
x = 670;
y = 764;
}
);
}
);
lib = {
};
name = R;
unicodes = (
);
width = 1363;
};
};
components = (
);
contours = (
);
lib = {
};
name = R;
unicodes = (
);
width = 1408;
};
},
{
glyphname = S;
lastChange = "2016-08-12 14:12:21 +0000";
layers = (
{
anchors = (
{
name = bottom;
position = "{306, 7}";
},
{
name = top;
position = "{310, 702}";
}
);
background = {
anchors = (
{
name = bottom;
position = "{306, 7}";
},
{
name = top;
position = "{310, 702}";
}
);
paths = (
{
closed = 1;
nodes = (
"268 393 LINE SMOOTH",
"181 421 OFFCURVE",
"135 450 OFFCURVE",
"135 517 CURVE SMOOTH",
"135 584 OFFCURVE",
"197 641 OFFCURVE",
"310 641 CURVE SMOOTH",
"397 641 OFFCURVE",
"465 596 OFFCURVE",
"483 580 CURVE",
"488 575 OFFCURVE",
"495 573 OFFCURVE",
"501 573 CURVE SMOOTH",
"514 573 OFFCURVE",
"526 582 OFFCURVE",
"526 594 CURVE SMOOTH",
"526 600 OFFCURVE",
"523 605 OFFCURVE",
"518 611 CURVE",
"485 645 OFFCURVE",
"400 689 OFFCURVE",
"304 689 CURVE SMOOTH",
"178 689 OFFCURVE",
"76 622 OFFCURVE",
"76 516 CURVE SMOOTH",
"76 418 OFFCURVE",
"144 378 OFFCURVE",
"229 349 CURVE SMOOTH",
"344 310 LINE SMOOTH",
"441 278 OFFCURVE",
"486 254 OFFCURVE",
"486 167 CURVE SMOOTH",
"486 82 OFFCURVE",
"406 38 OFFCURVE",
"309 38 CURVE SMOOTH",
"226 38 OFFCURVE",
"161 73 OFFCURVE",
"124 107 CURVE",
"121 110 OFFCURVE",
"116 112 OFFCURVE",
"111 112 CURVE SMOOTH",
"97 112 OFFCURVE",
"78 100 OFFCURVE",
"78 87 CURVE SMOOTH",
"78 84 OFFCURVE",
"80 81 OFFCURVE",
"83 78 CURVE SMOOTH",
"134 25 OFFCURVE",
"208 -11 OFFCURVE",
"300 -11 CURVE SMOOTH",
"447 -11 OFFCURVE",
"544 53 OFFCURVE",
"544 180 CURVE SMOOTH",
"544 285 OFFCURVE",
"475 324 OFFCURVE",
"384 354 CURVE SMOOTH"
);
}
);
};
layerId = "9E718F8A-2CEA-4931-B05D-987794BD97DA";
paths = (
{
closed = 1;
nodes = (
"447 -11 OFFCURVE",
"544 53 OFFCURVE",
"544 180 CURVE SMOOTH",
"544 285 OFFCURVE",
"475 324 OFFCURVE",
"384 354 CURVE SMOOTH",
"268 393 LINE SMOOTH",
"181 421 OFFCURVE",
"135 450 OFFCURVE",
"135 517 CURVE SMOOTH",
"135 584 OFFCURVE",
"197 641 OFFCURVE",
"310 641 CURVE SMOOTH",
"397 641 OFFCURVE",
"465 596 OFFCURVE",
"483 580 CURVE",
"488 575 OFFCURVE",
"495 573 OFFCURVE",
"501 573 CURVE SMOOTH",
"514 573 OFFCURVE",
"526 582 OFFCURVE",
"526 594 CURVE SMOOTH",
"526 600 OFFCURVE",
"523 605 OFFCURVE",
"518 611 CURVE",
"485 645 OFFCURVE",
"400 689 OFFCURVE",
"304 689 CURVE SMOOTH",
"178 689 OFFCURVE",
"76 622 OFFCURVE",
"76 516 CURVE SMOOTH",
"76 418 OFFCURVE",
"144 378 OFFCURVE",
"229 349 CURVE SMOOTH",
"344 310 LINE SMOOTH",
"441 278 OFFCURVE",
"486 254 OFFCURVE",
"486 167 CURVE SMOOTH",
"486 82 OFFCURVE",
"406 38 OFFCURVE",
"309 38 CURVE SMOOTH",
"226 38 OFFCURVE",
"161 73 OFFCURVE",
"124 107 CURVE",
"121 110 OFFCURVE",
"116 112 OFFCURVE",
"111 112 CURVE SMOOTH",
"97 112 OFFCURVE",
"78 100 OFFCURVE",
"78 87 CURVE SMOOTH",
"78 84 OFFCURVE",
"80 81 OFFCURVE",
"83 78 CURVE SMOOTH",
"134 25 OFFCURVE",
"208 -11 OFFCURVE",
"300 -11 CURVE SMOOTH"
);
}
);
width = 609;
},
{
anchors = (
{
name = bottom;
position = "{328, 0}";
},
{
name = top;
position = "{329, 702}";
}
);
background = {
anchors = (
{
name = bottom;
position = "{328, 0}";
},
{
name = top;
position = "{329, 702}";
}
);
paths = (
{
closed = 1;
nodes = (
"316 437 LINE",
"259 456 OFFCURVE",
"213 477 OFFCURVE",
"213 522 CURVE SMOOTH",
"213 574 OFFCURVE",
"277 595 OFFCURVE",
"340 595 CURVE SMOOTH",
"407 595 OFFCURVE",
"448 585 OFFCURVE",
"508 551 CURVE SMOOTH",
"515 548 OFFCURVE",
"521 546 OFFCURVE",
"527 546 CURVE SMOOTH",
"558 546 OFFCURVE",
"585 580 OFFCURVE",
"585 614 CURVE SMOOTH",
"585 630 OFFCURVE",
"579 647 OFFCURVE",
"565 661 CURVE",
"515 708 OFFCURVE",
"407 726 OFFCURVE",
"333 726 CURVE SMOOTH",
"154 726 OFFCURVE",
"42 640 OFFCURVE",
"42 509 CURVE SMOOTH",
"42 410 OFFCURVE",
"91 364 OFFCURVE",
"209 320 CURVE",
"371 266 LINE SMOOTH",
"413 252 OFFCURVE",
"446 231 OFFCURVE",
"446 190 CURVE SMOOTH",
"446 135 OFFCURVE",
"390 113 OFFCURVE",
"323 113 CURVE SMOOTH",
"262 113 OFFCURVE",
"205 128 OFFCURVE",
"159 148 CURVE",
"147 153 OFFCURVE",
"137 156 OFFCURVE",
"127 156 CURVE SMOOTH",
"89 156 OFFCURVE",
"63 120 OFFCURVE",
"63 85 CURVE SMOOTH",
"63 65 OFFCURVE",
"71 46 OFFCURVE",
"90 34 CURVE SMOOTH",
"147 -1 OFFCURVE",
"230 -19 OFFCURVE",
"328 -19 CURVE SMOOTH",
"507 -19 OFFCURVE",
"620 68 OFFCURVE",
"620 206 CURVE SMOOTH",
"620 333 OFFCURVE",
"529 380 OFFCURVE",
"392 422 CURVE"
);
}
);
};
layerId = "E1B555A7-F4E1-459C-9C1A-AE952106EEF9";
paths = (
{
closed = 1;
nodes = (
"507 -19 OFFCURVE",
"620 68 OFFCURVE",
"620 206 CURVE SMOOTH",
"620 333 OFFCURVE",
"529 380 OFFCURVE",
"392 422 CURVE",
"316 437 LINE",
"259 456 OFFCURVE",
"213 477 OFFCURVE",
"213 522 CURVE SMOOTH",
"213 574 OFFCURVE",
"277 595 OFFCURVE",
"340 595 CURVE SMOOTH",
"407 595 OFFCURVE",
"448 585 OFFCURVE",
"508 551 CURVE SMOOTH",
"515 548 OFFCURVE",
"521 546 OFFCURVE",
"527 546 CURVE SMOOTH",
"558 546 OFFCURVE",
"585 580 OFFCURVE",
"585 614 CURVE SMOOTH",
"585 630 OFFCURVE",
"579 647 OFFCURVE",
"565 661 CURVE",
"515 708 OFFCURVE",
"407 726 OFFCURVE",
"333 726 CURVE SMOOTH",
"154 726 OFFCURVE",
"42 640 OFFCURVE",
"42 509 CURVE SMOOTH",
"42 410 OFFCURVE",
"91 364 OFFCURVE",
"209 320 CURVE",
"371 266 LINE SMOOTH",
"413 252 OFFCURVE",
"446 231 OFFCURVE",
"446 190 CURVE SMOOTH",
"446 135 OFFCURVE",
"390 113 OFFCURVE",
"323 113 CURVE SMOOTH",
"262 113 OFFCURVE",
"205 128 OFFCURVE",
"159 148 CURVE",
"147 153 OFFCURVE",
"137 156 OFFCURVE",
"127 156 CURVE SMOOTH",
"89 156 OFFCURVE",
"63 120 OFFCURVE",
"63 85 CURVE SMOOTH",
"63 65 OFFCURVE",
"71 46 OFFCURVE",
"90 34 CURVE SMOOTH",
"147 -1 OFFCURVE",
"230 -19 OFFCURVE",
"328 -19 CURVE SMOOTH"
);
}
);
width = 651;
}
);
unicode = 0053;
userData = {
anchors = (
);
b = {
};
com.typemytype.robofont.layerData = {
b = {
anchors = (
);
components = (
);
contours = (
);
lib = {
};
name = S;
unicodes = (
);
width = 1274;
};
};
components = (
);
contours = (
);
lib = {
};
name = S;
unicodes = (
);
width = 1317;
};
},
{
glyphname = T;
lastChange = "2016-08-12 14:12:21 +0000";
layers = (
{
anchors = (
{
name = bottom;
position = "{279, 7}";
},
{
name = center;
position = "{277, 347}";
},
{
name = mid;
position = "{282, 373}";
},
{
name = top;
position = "{286, 702}";
}
);
background = {
anchors = (
{
name = bottom;
position = "{279, 7}";
},
{
name = center;
position = "{277, 347}";
},
{
name = mid;
position = "{282, 373}";
},
{
name = top;
position = "{286, 702}";
}
);
paths = (
{
closed = 1;
nodes = (
"249 645 LINE",
"249 29 LINE SMOOTH",
"249 10 OFFCURVE",
"263 0 OFFCURVE",
"279 0 CURVE SMOOTH",
"293 0 OFFCURVE",
"310 10 OFFCURVE",
"310 29 CURVE SMOOTH",
"310 645 LINE",
"511 645 LINE SMOOTH",
"529 645 OFFCURVE",
"540 655 OFFCURVE",
"540 668 CURVE SMOOTH",
"540 682 OFFCURVE",
"531 693 OFFCURVE",
"511 693 CURVE SMOOTH",
"42 693 LINE SMOOTH",
"23 693 OFFCURVE",
"14 682 OFFCURVE",
"14 668 CURVE SMOOTH",
"14 655 OFFCURVE",
"23 645 OFFCURVE",
"42 645 CURVE SMOOTH"
);
}
);
};
layerId = "9E718F8A-2CEA-4931-B05D-987794BD97DA";
paths = (
{
closed = 1;
nodes = (
"293 0 OFFCURVE",
"310 10 OFFCURVE",
"310 29 CURVE SMOOTH",
"310 645 LINE",
"511 645 LINE SMOOTH",
"529 645 OFFCURVE",
"540 655 OFFCURVE",
"540 668 CURVE SMOOTH",
"540 682 OFFCURVE",
"531 693 OFFCURVE",
"511 693 CURVE SMOOTH",
"42 693 LINE SMOOTH",
"23 693 OFFCURVE",
"14 682 OFFCURVE",
"14 668 CURVE SMOOTH",
"14 655 OFFCURVE",
"23 645 OFFCURVE",
"42 645 CURVE SMOOTH",
"249 645 LINE",
"249 29 LINE SMOOTH",
"249 10 OFFCURVE",
"263 0 OFFCURVE",
"279 0 CURVE SMOOTH"
);
}
);
width = 553;
},
{
anchors = (
{
name = bottom;
position = "{297, 0}";
},
{
name = center;
position = "{298, 355}";
},
{
name = mid;
position = "{301, 360}";
},
{
name = top;
position = "{305, 710}";
}
);
background = {
anchors = (
{
name = bottom;
position = "{297, 0}";
},
{
name = center;
position = "{298, 355}";
},
{
name = mid;
position = "{301, 360}";
},
{
name = top;
position = "{305, 710}";
}
);
paths = (
{
closed = 1;
nodes = (
"209 576 LINE",
"209 102 LINE SMOOTH",
"209 46 OFFCURVE",
"249 0 OFFCURVE",
"299 0 CURVE SMOOTH",
"349 0 OFFCURVE",
"389 46 OFFCURVE",
"389 102 CURVE SMOOTH",
"389 576 LINE",
"521 576 LINE SMOOTH",
"558 576 OFFCURVE",
"590 606 OFFCURVE",
"590 643 CURVE SMOOTH",
"590 681 OFFCURVE",
"558 711 OFFCURVE",
"521 711 CURVE SMOOTH",
"75 711 LINE SMOOTH",
"37 711 OFFCURVE",
"5 681 OFFCURVE",
"5 644 CURVE SMOOTH",
"5 606 OFFCURVE",
"37 576 OFFCURVE",
"75 576 CURVE SMOOTH"
);
}
);
};
layerId = "E1B555A7-F4E1-459C-9C1A-AE952106EEF9";
paths = (
{
closed = 1;
nodes = (
"349 0 OFFCURVE",
"389 46 OFFCURVE",
"389 102 CURVE SMOOTH",
"389 576 LINE",
"521 576 LINE SMOOTH",
"558 576 OFFCURVE",
"590 606 OFFCURVE",
"590 643 CURVE SMOOTH",
"590 681 OFFCURVE",
"558 711 OFFCURVE",
"521 711 CURVE SMOOTH",
"75 711 LINE SMOOTH",
"37 711 OFFCURVE",
"5 681 OFFCURVE",
"5 644 CURVE SMOOTH",
"5 606 OFFCURVE",
"37 576 OFFCURVE",
"75 576 CURVE SMOOTH",
"209 576 LINE",
"209 102 LINE SMOOTH",
"209 46 OFFCURVE",
"249 0 OFFCURVE",
"299 0 CURVE SMOOTH"
);
}
);
width = 595;
}
);
unicode = 0054;
userData = {
anchors = (
);
b = {
};
com.typemytype.robofont.layerData = {
b = {
anchors = (
);
components = (
);
contours = (
{
points = (
{
segmentType = curve;
smooth = 1;
x = 581;
y = 0;
},
{
segmentType = line;
smooth = 1;
x = 1350;
y = 0;
},
{
smooth = 0;
x = 1399;
y = 0;
},
{
smooth = 0;
x = 1423;
y = 34;
},
{
segmentType = curve;
smooth = 1;
x = 1423;
y = 71;
},
{
smooth = 0;
x = 1423;
y = 107;
},
{
smooth = 0;
x = 1399;
y = 141;
},
{
segmentType = curve;
smooth = 1;
x = 1350;
y = 141;
},
{
segmentType = line;
smooth = 0;
x = 671;
y = 141;
},
{
segmentType = line;
smooth = 0;
x = 671;
y = 665;
},
{
segmentType = line;
smooth = 1;
x = 1290;
y = 665;
},
{
smooth = 0;
x = 1339;
y = 665;
},
{
smooth = 0;
x = 1364;
y = 698;
},
{
segmentType = curve;
smooth = 1;
x = 1364;
y = 734;
},
{
smooth = 0;
x = 1364;
y = 770;
},
{
smooth = 0;
x = 1341;
y = 803;
},
{
segmentType = curve;
smooth = 1;
x = 1290;
y = 803;
},
{
segmentType = line;
smooth = 0;
x = 671;
y = 803;
},
{
segmentType = line;
smooth = 0;
x = 671;
y = 1285;
},
{
segmentType = line;
smooth = 1;
x = 1322;
y = 1285;
},
{
smooth = 0;
x = 1371;
y = 1285;
},
{
smooth = 0;
x = 1395;
y = 1319;
},
{
segmentType = curve;
smooth = 1;
x = 1395;
y = 1356;
},
{
smooth = 0;
x = 1395;
y = 1392;
},
{
smooth = 0;
x = 1371;
y = 1426;
},
{
segmentType = curve;
smooth = 1;
x = 1322;
y = 1426;
},
{
segmentType = line;
smooth = 1;
x = 576;
y = 1426;
},
{
smooth = 0;
x = 528;
y = 1426;
},
{
smooth = 0;
x = 493;
y = 1383;
},
{
segmentType = curve;
smooth = 1;
x = 493;
y = 1340;
},
{
segmentType = line;
smooth = 1;
x = 493;
y = 86;
},
{
smooth = 0;
x = 493;
y = 41;
},
{
smooth = 0;
x = 537;
y = 0;
}
);
}
);
lib = {
};
name = T;
unicodes = (
);
width = 1158;
};
};
components = (
);
contours = (
);
lib = {
};
name = T;
unicodes = (
);
width = 1199;
};
},
{
glyphname = U;
lastChange = "2016-08-12 14:12:21 +0000";
layers = (
{
anchors = (
{
name = bottom;
position = "{360, 0}";
},
{
name = ogonek;
position = "{407, 4}";
},
{
name = top;
position = "{363, 702}";
},
{
name = topright;
position = "{711, 693}";
}
);
background = {
anchors = (
{
name = bottom;
position = "{360, 0}";
},
{
name = ogonek;
position = "{407, 4}";
},
{
name = top;
position = "{363, 702}";
},
{
name = topright;
position = "{711, 693}";
}
);
paths = (
{
closed = 1;
nodes = (
"99 241 LINE SMOOTH",
"99 70 OFFCURVE",
"230 -11 OFFCURVE",
"360 -11 CURVE SMOOTH",
"491 -11 OFFCURVE",
"623 70 OFFCURVE",
"623 241 CURVE SMOOTH",
"623 662 LINE SMOOTH",
"623 681 OFFCURVE",
"607 690 OFFCURVE",
"593 690 CURVE SMOOTH",
"577 690 OFFCURVE",
"562 680 OFFCURVE",
"562 662 CURVE SMOOTH",
"562 242 LINE SMOOTH",
"562 106 OFFCURVE",
"461 38 OFFCURVE",
"360 38 CURVE SMOOTH",
"260 38 OFFCURVE",
"160 106 OFFCURVE",
"160 242 CURVE SMOOTH",
"160 662 LINE SMOOTH",
"160 681 OFFCURVE",
"145 690 OFFCURVE",
"130 690 CURVE SMOOTH",
"114 690 OFFCURVE",
"99 680 OFFCURVE",
"99 662 CURVE SMOOTH"
);
}
);
};
layerId = "9E718F8A-2CEA-4931-B05D-987794BD97DA";
paths = (
{
closed = 1;
nodes = (
"491 -11 OFFCURVE",
"623 70 OFFCURVE",
"623 241 CURVE SMOOTH",
"623 662 LINE SMOOTH",
"623 681 OFFCURVE",
"607 690 OFFCURVE",
"593 690 CURVE SMOOTH",
"577 690 OFFCURVE",
"562 680 OFFCURVE",
"562 662 CURVE SMOOTH",
"562 242 LINE SMOOTH",
"562 106 OFFCURVE",
"461 38 OFFCURVE",
"360 38 CURVE SMOOTH",
"260 38 OFFCURVE",
"160 106 OFFCURVE",
"160 242 CURVE SMOOTH",
"160 662 LINE SMOOTH",
"160 681 OFFCURVE",
"145 690 OFFCURVE",
"130 690 CURVE SMOOTH",
"114 690 OFFCURVE",
"99 680 OFFCURVE",
"99 662 CURVE SMOOTH",
"99 241 LINE SMOOTH",
"99 70 OFFCURVE",
"230 -11 OFFCURVE",
"360 -11 CURVE SMOOTH"
);
}
);
width = 721;
},
{
anchors = (
{
name = bottom;
position = "{373, 0}";
},
{
name = ogonek;
position = "{459, 4}";
},
{
name = top;
position = "{376, 702}";
},
{
name = topright;
position = "{736, 711}";
}
);
background = {
anchors = (
{
name = bottom;
position = "{373, 0}";
},
{
name = ogonek;
position = "{459, 4}";
},
{
name = top;
position = "{376, 702}";
},
{
name = topright;
position = "{736, 711}";
}
);
paths = (
{
closed = 1;
nodes = (
"68 239 LINE SMOOTH",
"68 65 OFFCURVE",
"197 -19 OFFCURVE",
"373 -19 CURVE SMOOTH",
"550 -19 OFFCURVE",
"678 68 OFFCURVE",
"678 239 CURVE SMOOTH",
"678 608 LINE SMOOTH",
"678 664 OFFCURVE",
"638 710 OFFCURVE",
"588 710 CURVE SMOOTH",
"538 710 OFFCURVE",
"498 664 OFFCURVE",
"498 608 CURVE SMOOTH",
"498 242 LINE SMOOTH",
"498 152 OFFCURVE",
"435 113 OFFCURVE",
"373 113 CURVE SMOOTH",
"311 113 OFFCURVE",
"248 152 OFFCURVE",
"248 242 CURVE SMOOTH",
"248 608 LINE SMOOTH",
"248 664 OFFCURVE",
"208 710 OFFCURVE",
"158 710 CURVE SMOOTH",
"107 710 OFFCURVE",
"68 664 OFFCURVE",
"68 608 CURVE SMOOTH"
);
}
);
};
layerId = "E1B555A7-F4E1-459C-9C1A-AE952106EEF9";
paths = (
{
closed = 1;
nodes = (
"550 -19 OFFCURVE",
"678 68 OFFCURVE",
"678 239 CURVE SMOOTH",
"678 608 LINE SMOOTH",
"678 664 OFFCURVE",
"638 710 OFFCURVE",
"588 710 CURVE SMOOTH",
"538 710 OFFCURVE",
"498 664 OFFCURVE",
"498 608 CURVE SMOOTH",
"498 242 LINE SMOOTH",
"498 152 OFFCURVE",
"435 113 OFFCURVE",
"373 113 CURVE SMOOTH",
"311 113 OFFCURVE",
"248 152 OFFCURVE",
"248 242 CURVE SMOOTH",
"248 608 LINE SMOOTH",
"248 664 OFFCURVE",
"208 710 OFFCURVE",
"158 710 CURVE SMOOTH",
"107 710 OFFCURVE",
"68 664 OFFCURVE",
"68 608 CURVE SMOOTH",
"68 239 LINE SMOOTH",
"68 65 OFFCURVE",
"197 -19 OFFCURVE",
"373 -19 CURVE SMOOTH"
);
}
);
width = 746;
}
);
unicode = 0055;
userData = {
anchors = (
);
b = {
};
com.typemytype.robofont.layerData = {
b = {
anchors = (
);
components = (
);
contours = (
);
lib = {
};
name = U;
unicodes = (
);
width = 1490;
};
};
components = (
);
contours = (
);
lib = {
};
name = U;
unicodes = (
);
width = 1513;
};
},
{
glyphname = V;
lastChange = "2016-08-12 14:12:21 +0000";
layers = (
{
anchors = (
{
name = bottom;
position = "{304, 0}";
},
{
name = top;
position = "{304, 693}";
}
);
background = {
anchors = (
{
name = bottom;
position = "{304, 0}";
},
{
name = top;
position = "{304, 693}";
}
);
paths = (
{
closed = 1;
nodes = (
"307 73 LINE",
"71 671 LINE SMOOTH",
"66 684 OFFCURVE",
"56 689 OFFCURVE",
"46 689 CURVE SMOOTH",
"30 689 OFFCURVE",
"15 677 OFFCURVE",
"15 661 CURVE SMOOTH",
"15 657 OFFCURVE",
"16 654 OFFCURVE",
"17 650 CURVE SMOOTH",
"259 41 LINE",
"269 21 OFFCURVE",
"290 1 OFFCURVE",
"307 1 CURVE SMOOTH",
"325 1 OFFCURVE",
"346 21 OFFCURVE",
"355 41 CURVE",
"597 650 LINE SMOOTH",
"599 654 OFFCURVE",
"600 658 OFFCURVE",
"600 661 CURVE SMOOTH",
"600 677 OFFCURVE",
"584 689 OFFCURVE",
"569 689 CURVE SMOOTH",
"559 689 OFFCURVE",
"549 684 OFFCURVE",
"543 671 CURVE SMOOTH"
);
}
);
};
layerId = "9E718F8A-2CEA-4931-B05D-987794BD97DA";
paths = (
{
closed = 1;
nodes = (
"325 1 OFFCURVE",
"346 21 OFFCURVE",
"355 41 CURVE",
"597 650 LINE SMOOTH",
"599 654 OFFCURVE",
"600 658 OFFCURVE",
"600 661 CURVE SMOOTH",
"600 677 OFFCURVE",
"584 689 OFFCURVE",
"569 689 CURVE SMOOTH",
"559 689 OFFCURVE",
"549 684 OFFCURVE",
"543 671 CURVE SMOOTH",
"307 73 LINE",
"71 671 LINE SMOOTH",
"66 684 OFFCURVE",
"56 689 OFFCURVE",
"46 689 CURVE SMOOTH",
"30 689 OFFCURVE",
"15 677 OFFCURVE",
"15 661 CURVE SMOOTH",
"15 657 OFFCURVE",
"16 654 OFFCURVE",
"17 650 CURVE SMOOTH",
"259 41 LINE",
"269 21 OFFCURVE",
"290 1 OFFCURVE",
"307 1 CURVE SMOOTH"
);
}
);
width = 607;
},
{
anchors = (
{
name = bottom;
position = "{354, 0}";
},
{
name = top;
position = "{354, 711}";
}
);
background = {
anchors = (
{
name = bottom;
position = "{354, 0}";
},
{
name = top;
position = "{354, 711}";
}
);
paths = (
{
closed = 1;
nodes = (
"350 191 LINE",
"201 621 LINE",
"182 684 OFFCURVE",
"142 710 OFFCURVE",
"105 710 CURVE SMOOTH",
"66 710 OFFCURVE",
"30 678 OFFCURVE",
"30 626 CURVE SMOOTH",
"30 613 OFFCURVE",
"33 598 OFFCURVE",
"38 582 CURVE",
"184 206 LINE",
"232 56 OFFCURVE",
"252 1 OFFCURVE",
"350 1 CURVE SMOOTH",
"448 1 OFFCURVE",
"468 56 OFFCURVE",
"516 206 CURVE",
"662 582 LINE",
"667 598 OFFCURVE",
"669 613 OFFCURVE",
"669 626 CURVE SMOOTH",
"669 678 OFFCURVE",
"634 710 OFFCURVE",
"594 710 CURVE SMOOTH",
"558 710 OFFCURVE",
"518 684 OFFCURVE",
"499 621 CURVE"
);
}
);
};
layerId = "E1B555A7-F4E1-459C-9C1A-AE952106EEF9";
paths = (
{
closed = 1;
nodes = (
"448 1 OFFCURVE",
"468 56 OFFCURVE",
"516 206 CURVE",
"662 582 LINE",
"667 598 OFFCURVE",
"669 613 OFFCURVE",
"669 626 CURVE SMOOTH",
"669 678 OFFCURVE",
"634 710 OFFCURVE",
"594 710 CURVE SMOOTH",
"558 710 OFFCURVE",
"518 684 OFFCURVE",
"499 621 CURVE",
"350 191 LINE",
"201 621 LINE",
"182 684 OFFCURVE",
"142 710 OFFCURVE",
"105 710 CURVE SMOOTH",
"66 710 OFFCURVE",
"30 678 OFFCURVE",
"30 626 CURVE SMOOTH",
"30 613 OFFCURVE",
"33 598 OFFCURVE",
"38 582 CURVE",
"184 206 LINE",
"232 56 OFFCURVE",
"252 1 OFFCURVE",
"350 1 CURVE SMOOTH"
);
}
);
width = 708;
}
);
unicode = 0056;
userData = {
anchors = (
);
b = {
};
com.typemytype.robofont.guides = (
);
com.typemytype.robofont.layerData = {
b = {
anchors = (
);
components = (
);
contours = (
{
points = (
{
segmentType = curve;
smooth = 1;
x = 644;
y = "-5";
},
{
smooth = 0;
x = 712;
y = "-5";
},
{
smooth = 0;
x = 764;
y = 38;
},
{
segmentType = curve;
smooth = 1;
x = 793;
y = 117;
},
{
segmentType = line;
smooth = 1;
x = 1243;
y = 1324;
},
{
smooth = 0;
x = 1247;
y = 1335;
},
{
smooth = 0;
x = 1248;
y = 1342;
},
{
segmentType = curve;
smooth = 1;
x = 1248;
y = 1351;
},
{
smooth = 0;
x = 1248;
y = 1395;
},
{
smooth = 0;
x = 1203;
y = 1427;
},
{
segmentType = curve;
smooth = 1;
x = 1160;
y = 1427;
},
{
smooth = 0;
x = 1125;
y = 1427;
},
{
smooth = 0;
x = 1090;
y = 1408;
},
{
segmentType = curve;
smooth = 1;
x = 1076;
y = 1369;
},
{
segmentType = line;
smooth = 0;
x = 651;
y = 192;
},
{
segmentType = line;
smooth = 0;
x = 650;
y = 190;
},
{
segmentType = line;
smooth = 1;
x = 214;
y = 1370;
},
{
smooth = 0;
x = 200;
y = 1407;
},
{
smooth = 0;
x = 170;
y = 1427;
},
{
segmentType = curve;
smooth = 1;
x = 135;
y = 1427;
},
{
smooth = 0;
x = 90;
y = 1427;
},
{
smooth = 0;
x = 43;
y = 1392;
},
{
segmentType = curve;
smooth = 1;
x = 43;
y = 1344;
},
{
smooth = 0;
x = 43;
y = 1336;
},
{
smooth = 0;
x = 44;
y = 1326;
},
{
segmentType = curve;
smooth = 0;
x = 48;
y = 1318;
},
{
segmentType = line;
smooth = 1;
x = 501;
y = 117;
},
{
smooth = 0;
x = 532;
y = 35;
},
{
smooth = 0;
x = 581;
y = "-5";
}
);
}
);
lib = {
};
name = V;
unicodes = (
);
width = 1289;
};
};
components = (
);
contours = (
);
lib = {
};
name = V;
unicodes = (
);
width = 1365;
};
},
{
glyphname = W;
lastChange = "2016-08-12 14:12:21 +0000";
layers = (
{
anchors = (
{
name = bottom;
position = "{527, 0}";
},
{
name = top;
position = "{523, 702}";
}
);
background = {
anchors = (
{
name = bottom;
position = "{527, 0}";
},
{
name = top;
position = "{523, 702}";
}
);
paths = (
{
closed = 1;
nodes = (
"782 56 LINE",
"578 627 LINE SMOOTH",
"557 687 OFFCURVE",
"545 692 OFFCURVE",
"525 692 CURVE SMOOTH",
"504 692 OFFCURVE",
"491 681 OFFCURVE",
"472 627 CURVE SMOOTH",
"268 56 LINE",
"104 673 LINE SMOOTH",
"100 689 OFFCURVE",
"87 697 OFFCURVE",
"74 697 CURVE SMOOTH",
"60 697 OFFCURVE",
"46 687 OFFCURVE",
"46 668 CURVE SMOOTH",
"46 664 OFFCURVE",
"47 659 OFFCURVE",
"48 654 CURVE SMOOTH",
"219 33 LINE SMOOTH",
"227 7 OFFCURVE",
"244 -6 OFFCURVE",
"263 -6 CURVE SMOOTH",
"282 -6 OFFCURVE",
"303 8 OFFCURVE",
"313 34 CURVE SMOOTH",
"525 623 LINE",
"737 34 LINE SMOOTH",
"748 6 OFFCURVE",
"766 -5 OFFCURVE",
"785 -5 CURVE SMOOTH",
"805 -5 OFFCURVE",
"824 9 OFFCURVE",
"831 33 CURVE SMOOTH",
"1002 654 LINE SMOOTH",
"1003 659 OFFCURVE",
"1004 664 OFFCURVE",
"1004 667 CURVE SMOOTH",
"1004 687 OFFCURVE",
"990 697 OFFCURVE",
"976 697 CURVE SMOOTH",
"963 697 OFFCURVE",
"950 689 OFFCURVE",
"946 673 CURVE SMOOTH"
);
}
);
};
layerId = "9E718F8A-2CEA-4931-B05D-987794BD97DA";
paths = (
{
closed = 1;
nodes = (
"282 -6 OFFCURVE",
"303 8 OFFCURVE",
"313 34 CURVE SMOOTH",
"525 623 LINE",
"737 34 LINE SMOOTH",
"748 6 OFFCURVE",
"766 -5 OFFCURVE",
"785 -5 CURVE SMOOTH",
"805 -5 OFFCURVE",
"824 9 OFFCURVE",
"831 33 CURVE SMOOTH",
"1002 654 LINE SMOOTH",
"1003 659 OFFCURVE",
"1004 664 OFFCURVE",
"1004 667 CURVE SMOOTH",
"1004 687 OFFCURVE",
"990 697 OFFCURVE",
"976 697 CURVE SMOOTH",
"963 697 OFFCURVE",
"950 689 OFFCURVE",
"946 673 CURVE SMOOTH",
"782 56 LINE",
"578 627 LINE SMOOTH",
"557 687 OFFCURVE",
"545 692 OFFCURVE",
"525 692 CURVE SMOOTH",
"504 692 OFFCURVE",
"491 681 OFFCURVE",
"472 627 CURVE SMOOTH",
"268 56 LINE",
"104 673 LINE SMOOTH",
"100 689 OFFCURVE",
"87 697 OFFCURVE",
"74 697 CURVE SMOOTH",
"60 697 OFFCURVE",
"46 687 OFFCURVE",
"46 668 CURVE SMOOTH",
"46 664 OFFCURVE",
"47 659 OFFCURVE",
"48 654 CURVE SMOOTH",
"219 33 LINE SMOOTH",
"227 7 OFFCURVE",
"244 -6 OFFCURVE",
"263 -6 CURVE SMOOTH"
);
}
);
width = 1055;
},
{
anchors = (
{
name = bottom;
position = "{535, 0}";
},
{
name = top;
position = "{534, 702}";
}
);
background = {
anchors = (
{
name = bottom;
position = "{535, 0}";
},
{
name = top;
position = "{534, 702}";
}
);
paths = (
{
closed = 1;
nodes = (
"781 183 LINE",
"666 560 LINE",
"643 648 OFFCURVE",
"615 710 OFFCURVE",
"535 710 CURVE SMOOTH",
"454 710 OFFCURVE",
"426 648 OFFCURVE",
"403 560 CURVE",
"288 183 LINE",
"189 635 LINE SMOOTH",
"177 693 OFFCURVE",
"144 717 OFFCURVE",
"110 717 CURVE SMOOTH",
"70 717 OFFCURVE",
"30 683 OFFCURVE",
"30 632 CURVE SMOOTH",
"30 625 OFFCURVE",
"31 618 OFFCURVE",
"32 610 CURVE",
"157 79 LINE SMOOTH",
"170 24 OFFCURVE",
"221 -8 OFFCURVE",
"275 -8 CURVE SMOOTH",
"328 -8 OFFCURVE",
"383 24 OFFCURVE",
"403 100 CURVE SMOOTH",
"535 545 LINE",
"666 100 LINE SMOOTH",
"686 24 OFFCURVE",
"741 -8 OFFCURVE",
"794 -8 CURVE SMOOTH",
"848 -8 OFFCURVE",
"899 24 OFFCURVE",
"912 79 CURVE SMOOTH",
"1037 610 LINE",
"1038 618 OFFCURVE",
"1039 625 OFFCURVE",
"1039 632 CURVE SMOOTH",
"1039 683 OFFCURVE",
"999 718 OFFCURVE",
"959 718 CURVE SMOOTH",
"926 718 OFFCURVE",
"892 693 OFFCURVE",
"880 635 CURVE SMOOTH"
);
}
);
};
layerId = "E1B555A7-F4E1-459C-9C1A-AE952106EEF9";
paths = (
{
closed = 1;
nodes = (
"328 -8 OFFCURVE",
"383 24 OFFCURVE",
"403 100 CURVE SMOOTH",
"535 545 LINE",
"666 100 LINE SMOOTH",
"686 24 OFFCURVE",
"741 -8 OFFCURVE",
"794 -8 CURVE SMOOTH",
"848 -8 OFFCURVE",
"899 24 OFFCURVE",
"912 79 CURVE SMOOTH",
"1037 610 LINE",
"1038 618 OFFCURVE",
"1039 625 OFFCURVE",
"1039 632 CURVE SMOOTH",
"1039 683 OFFCURVE",
"999 718 OFFCURVE",
"959 718 CURVE SMOOTH",
"926 718 OFFCURVE",
"892 693 OFFCURVE",
"880 635 CURVE SMOOTH",
"781 183 LINE",
"666 560 LINE",
"643 648 OFFCURVE",
"615 710 OFFCURVE",
"535 710 CURVE SMOOTH",
"454 710 OFFCURVE",
"426 648 OFFCURVE",
"403 560 CURVE",
"288 183 LINE",
"189 635 LINE SMOOTH",
"177 693 OFFCURVE",
"144 717 OFFCURVE",
"110 717 CURVE SMOOTH",
"70 717 OFFCURVE",
"30 683 OFFCURVE",
"30 632 CURVE SMOOTH",
"30 625 OFFCURVE",
"31 618 OFFCURVE",
"32 610 CURVE",
"157 79 LINE SMOOTH",
"170 24 OFFCURVE",
"221 -8 OFFCURVE",
"275 -8 CURVE SMOOTH"
);
}
);
width = 1069;
}
);
unicode = 0057;
userData = {
anchors = (
);
b = {
};
com.typemytype.robofont.layerData = {
b = {
anchors = (
);
components = (
);
contours = (
);
lib = {
};
name = W;
unicodes = (
);
width = 2126;
};
};
components = (
);
contours = (
);
lib = {
};
name = W;
unicodes = (
);
width = 2070;
};
},
{
glyphname = X;
lastChange = "2016-08-12 14:12:21 +0000";
layers = (
{
anchors = (
{
name = bottom;
position = "{304, 0}";
},
{
name = top;
position = "{304, 693}";
}
);
background = {
anchors = (
{
name = bottom;
position = "{304, 0}";
},
{
name = top;
position = "{304, 693}";
}
);
paths = (
{
closed = 1;
nodes = (
"307 398 LINE",
"111 674 LINE SMOOTH",
"105 683 OFFCURVE",
"97 687 OFFCURVE",
"88 687 CURVE SMOOTH",
"72 687 OFFCURVE",
"55 671 OFFCURVE",
"55 659 CURVE SMOOTH",
"55 656 OFFCURVE",
"56 654 OFFCURVE",
"58 652 CURVE",
"271 354 LINE",
"45 45 LINE",
"43 41 OFFCURVE",
"42 37 OFFCURVE",
"42 33 CURVE SMOOTH",
"42 19 OFFCURVE",
"54 3 OFFCURVE",
"69 3 CURVE SMOOTH",
"77 3 OFFCURVE",
"84 7 OFFCURVE",
"92 18 CURVE SMOOTH",
"302 310 LINE",
"508 20 LINE",
"514 11 OFFCURVE",
"522 7 OFFCURVE",
"531 7 CURVE SMOOTH",
"546 7 OFFCURVE",
"562 20 OFFCURVE",
"562 34 CURVE SMOOTH",
"562 37 OFFCURVE",
"561 41 OFFCURVE",
"559 44 CURVE",
"338 354 LINE",
"551 649 LINE SMOOTH",
"554 654 OFFCURVE",
"556 658 OFFCURVE",
"556 663 CURVE SMOOTH",
"556 676 OFFCURVE",
"542 686 OFFCURVE",
"528 686 CURVE SMOOTH",
"520 686 OFFCURVE",
"511 682 OFFCURVE",
"505 673 CURVE SMOOTH"
);
}
);
};
layerId = "9E718F8A-2CEA-4931-B05D-987794BD97DA";
paths = (
{
closed = 1;
nodes = (
"77 3 OFFCURVE",
"84 7 OFFCURVE",
"92 18 CURVE SMOOTH",
"302 310 LINE",
"508 20 LINE",
"514 11 OFFCURVE",
"522 7 OFFCURVE",
"531 7 CURVE SMOOTH",
"546 7 OFFCURVE",
"562 20 OFFCURVE",
"562 34 CURVE SMOOTH",
"562 37 OFFCURVE",
"561 41 OFFCURVE",
"559 44 CURVE",
"338 354 LINE",
"551 649 LINE SMOOTH",
"554 654 OFFCURVE",
"556 658 OFFCURVE",
"556 663 CURVE SMOOTH",
"556 676 OFFCURVE",
"542 686 OFFCURVE",
"528 686 CURVE SMOOTH",
"520 686 OFFCURVE",
"511 682 OFFCURVE",
"505 673 CURVE SMOOTH",
"307 398 LINE",
"111 674 LINE SMOOTH",
"105 683 OFFCURVE",
"97 687 OFFCURVE",
"88 687 CURVE SMOOTH",
"72 687 OFFCURVE",
"55 671 OFFCURVE",
"55 659 CURVE SMOOTH",
"55 656 OFFCURVE",
"56 654 OFFCURVE",
"58 652 CURVE",
"271 354 LINE",
"45 45 LINE",
"43 41 OFFCURVE",
"42 37 OFFCURVE",
"42 33 CURVE SMOOTH",
"42 19 OFFCURVE",
"54 3 OFFCURVE",
"69 3 CURVE SMOOTH"
);
}
);
width = 608;
},
{
anchors = (
{
name = bottom;
position = "{335, 0}";
},
{
name = top;
position = "{335, 711}";
}
);
background = {
anchors = (
{
name = bottom;
position = "{335, 0}";
},
{
name = top;
position = "{335, 711}";
}
);
paths = (
{
closed = 1;
nodes = (
"349 479 LINE",
"205 667 LINE",
"182 700 OFFCURVE",
"154 713 OFFCURVE",
"128 713 CURVE SMOOTH",
"87 713 OFFCURVE",
"51 680 OFFCURVE",
"51 634 CURVE SMOOTH",
"51 615 OFFCURVE",
"58 594 OFFCURVE",
"72 572 CURVE",
"238 357 LINE",
"63 151 LINE",
"44 125 OFFCURVE",
"36 101 OFFCURVE",
"36 79 CURVE SMOOTH",
"36 36 OFFCURVE",
"69 5 OFFCURVE",
"107 5 CURVE SMOOTH",
"131 5 OFFCURVE",
"158 18 OFFCURVE",
"179 47 CURVE",
"329 238 LINE",
"479 43 LINE",
"504 7 OFFCURVE",
"533 -7 OFFCURVE",
"559 -7 CURVE SMOOTH",
"601 -7 OFFCURVE",
"637 30 OFFCURVE",
"637 74 CURVE SMOOTH",
"637 91 OFFCURVE",
"631 109 OFFCURVE",
"618 126 CURVE SMOOTH",
"437 363 LINE",
"616 584 LINE SMOOTH",
"627 599 OFFCURVE",
"631 614 OFFCURVE",
"631 629 CURVE SMOOTH",
"631 669 OFFCURVE",
"599 706 OFFCURVE",
"559 706 CURVE SMOOTH",
"535 706 OFFCURVE",
"507 692 OFFCURVE",
"482 655 CURVE"
);
}
);
};
layerId = "E1B555A7-F4E1-459C-9C1A-AE952106EEF9";
paths = (
{
closed = 1;
nodes = (
"601 -7 OFFCURVE",
"637 30 OFFCURVE",
"637 74 CURVE SMOOTH",
"637 91 OFFCURVE",
"631 109 OFFCURVE",
"618 126 CURVE SMOOTH",
"437 363 LINE",
"616 584 LINE SMOOTH",
"627 599 OFFCURVE",
"631 614 OFFCURVE",
"631 629 CURVE SMOOTH",
"631 669 OFFCURVE",
"599 706 OFFCURVE",
"559 706 CURVE SMOOTH",
"535 706 OFFCURVE",
"507 692 OFFCURVE",
"482 655 CURVE",
"349 479 LINE",
"205 667 LINE",
"182 700 OFFCURVE",
"154 713 OFFCURVE",
"128 713 CURVE SMOOTH",
"87 713 OFFCURVE",
"51 680 OFFCURVE",
"51 634 CURVE SMOOTH",
"51 615 OFFCURVE",
"58 594 OFFCURVE",
"72 572 CURVE",
"238 357 LINE",
"63 151 LINE",
"44 125 OFFCURVE",
"36 101 OFFCURVE",
"36 79 CURVE SMOOTH",
"36 36 OFFCURVE",
"69 5 OFFCURVE",
"107 5 CURVE SMOOTH",
"131 5 OFFCURVE",
"158 18 OFFCURVE",
"179 47 CURVE",
"329 238 LINE",
"479 43 LINE",
"504 7 OFFCURVE",
"533 -7 OFFCURVE",
"559 -7 CURVE SMOOTH"
);
}
);
width = 670;
}
);
unicode = 0058;
userData = {
anchors = (
);
b = {
};
com.typemytype.robofont.layerData = {
b = {
anchors = (
);
components = (
);
contours = (
{
points = (
{
segmentType = curve;
smooth = 1;
x = 151;
y = 0;
},
{
smooth = 0;
x = 176;
y = 0;
},
{
smooth = 0;
x = 201;
y = 12;
},
{
segmentType = curve;
smooth = 1;
x = 222;
y = 41;
},
{
segmentType = line;
smooth = 0;
x = 641;
y = 616;
},
{
segmentType = line;
smooth = 0;
x = 746;
y = 734;
},
{
segmentType = line;
smooth = 1;
x = 1175;
y = 1310;
},
{
smooth = 0;
x = 1186;
y = 1325;
},
{
smooth = 0;
x = 1190;
y = 1338;
},
{
segmentType = curve;
smooth = 1;
x = 1190;
y = 1353;
},
{
smooth = 0;
x = 1190;
y = 1393;
},
{
smooth = 0;
x = 1153;
y = 1426;
},
{
segmentType = curve;
smooth = 1;
x = 1110;
y = 1426;
},
{
smooth = 0;
x = 1083;
y = 1426;
},
{
smooth = 0;
x = 1058;
y = 1414;
},
{
segmentType = curve;
smooth = 1;
x = 1037;
y = 1385;
},
{
segmentType = line;
smooth = 0;
x = 648;
y = 844;
},
{
segmentType = line;
smooth = 0;
x = 542;
y = 732;
},
{
segmentType = line;
smooth = 1;
x = 84;
y = 121;
},
{
smooth = 0;
x = 73;
y = 106;
},
{
smooth = 0;
x = 68;
y = 91;
},
{
segmentType = curve;
smooth = 1;
x = 68;
y = 76;
},
{
smooth = 0;
x = 68;
y = 35;
},
{
smooth = 0;
x = 108;
y = 0;
}
);
},
{
points = (
{
segmentType = curve;
smooth = 1;
x = 1104;
y = 0;
},
{
smooth = 0;
x = 1151;
y = 0;
},
{
smooth = 0;
x = 1200;
y = 40;
},
{
segmentType = curve;
smooth = 1;
x = 1200;
y = 85;
},
{
smooth = 0;
x = 1200;
y = 98;
},
{
smooth = 0;
x = 1195;
y = 113;
},
{
segmentType = curve;
smooth = 0;
x = 1186;
y = 126;
},
{
segmentType = line;
smooth = 0;
x = 272;
y = 1385;
},
{
smooth = 0;
x = 252;
y = 1414;
},
{
smooth = 0;
x = 225;
y = 1426;
},
{
segmentType = curve;
smooth = 1;
x = 197;
y = 1426;
},
{
smooth = 0;
x = 149;
y = 1426;
},
{
smooth = 0;
x = 100;
y = 1388;
},
{
segmentType = curve;
smooth = 1;
x = 100;
y = 1343;
},
{
smooth = 0;
x = 100;
y = 1328;
},
{
smooth = 0;
x = 105;
y = 1315;
},
{
segmentType = curve;
smooth = 0;
x = 114;
y = 1303;
},
{
segmentType = line;
smooth = 0;
x = 1033;
y = 40;
},
{
smooth = 0;
x = 1052;
y = 13;
},
{
smooth = 0;
x = 1076;
y = 0;
}
);
}
);
lib = {
};
name = X;
unicodes = (
);
width = 1274;
};
};
components = (
);
contours = (
);
lib = {
};
name = X;
unicodes = (
);
width = 1322;
};
},
{
glyphname = Y;
lastChange = "2016-08-12 14:12:21 +0000";
layers = (
{
anchors = (
{
name = bottom;
position = "{309, 0}";
},
{
name = top;
position = "{327, 702}";
},
{
name = topleft;
position = "{10, 693}";
}
);
background = {
anchors = (
{
name = bottom;
position = "{309, 0}";
},
{
name = top;
position = "{327, 702}";
},
{
name = topleft;
position = "{10, 693}";
}
);
paths = (
{
closed = 1;
nodes = (
"281 300 LINE",
"281 28 LINE SMOOTH",
"281 10 OFFCURVE",
"296 1 OFFCURVE",
"312 1 CURVE SMOOTH",
"327 1 OFFCURVE",
"342 10 OFFCURVE",
"342 29 CURVE SMOOTH",
"342 301 LINE",
"576 648 LINE SMOOTH",
"579 654 OFFCURVE",
"581 659 OFFCURVE",
"581 665 CURVE SMOOTH",
"581 679 OFFCURVE",
"570 691 OFFCURVE",
"557 691 CURVE SMOOTH",
"548 691 OFFCURVE",
"539 686 OFFCURVE",
"531 674 CURVE SMOOTH",
"315 349 LINE",
"94 680 LINE",
"88 688 OFFCURVE",
"80 691 OFFCURVE",
"71 691 CURVE SMOOTH",
"56 691 OFFCURVE",
"40 681 OFFCURVE",
"40 665 CURVE SMOOTH",
"40 660 OFFCURVE",
"42 653 OFFCURVE",
"46 647 CURVE SMOOTH"
);
}
);
};
layerId = "9E718F8A-2CEA-4931-B05D-987794BD97DA";
paths = (
{
closed = 1;
nodes = (
"327 1 OFFCURVE",
"342 10 OFFCURVE",
"342 29 CURVE SMOOTH",
"342 301 LINE",
"576 648 LINE SMOOTH",
"579 654 OFFCURVE",
"581 659 OFFCURVE",
"581 665 CURVE SMOOTH",
"581 679 OFFCURVE",
"570 691 OFFCURVE",
"557 691 CURVE SMOOTH",
"548 691 OFFCURVE",
"539 686 OFFCURVE",
"531 674 CURVE SMOOTH",
"315 349 LINE",
"94 680 LINE",
"88 688 OFFCURVE",
"80 691 OFFCURVE",
"71 691 CURVE SMOOTH",
"56 691 OFFCURVE",
"40 681 OFFCURVE",
"40 665 CURVE SMOOTH",
"40 660 OFFCURVE",
"42 653 OFFCURVE",
"46 647 CURVE SMOOTH",
"281 300 LINE",
"281 28 LINE SMOOTH",
"281 10 OFFCURVE",
"296 1 OFFCURVE",
"312 1 CURVE SMOOTH"
);
}
);
width = 617;
},
{
anchors = (
{
name = bottom;
position = "{324, 0}";
},
{
name = top;
position = "{332, 702}";
},
{
name = topleft;
position = "{10, 711}";
}
);
background = {
anchors = (
{
name = bottom;
position = "{324, 0}";
},
{
name = top;
position = "{332, 702}";
},
{
name = topleft;
position = "{10, 711}";
}
);
paths = (
{
closed = 1;
nodes = (
"231 269 LINE",
"231 95 LINE SMOOTH",
"231 31 OFFCURVE",
"277 -1 OFFCURVE",
"322 -1 CURVE SMOOTH",
"367 -1 OFFCURVE",
"413 31 OFFCURVE",
"413 95 CURVE SMOOTH",
"413 271 LINE",
"600 577 LINE SMOOTH",
"610 594 OFFCURVE",
"614 611 OFFCURVE",
"614 626 CURVE SMOOTH",
"614 669 OFFCURVE",
"580 701 OFFCURVE",
"542 701 CURVE SMOOTH",
"516 701 OFFCURVE",
"488 685 OFFCURVE",
"468 647 CURVE",
"331 415 LINE",
"200 642 LINE",
"176 688 OFFCURVE",
"143 708 OFFCURVE",
"112 708 CURVE SMOOTH",
"71 708 OFFCURVE",
"35 673 OFFCURVE",
"35 623 CURVE SMOOTH",
"35 604 OFFCURVE",
"40 584 OFFCURVE",
"52 562 CURVE"
);
}
);
};
layerId = "E1B555A7-F4E1-459C-9C1A-AE952106EEF9";
paths = (
{
closed = 1;
nodes = (
"367 -1 OFFCURVE",
"413 31 OFFCURVE",
"413 95 CURVE SMOOTH",
"413 271 LINE",
"600 577 LINE SMOOTH",
"610 594 OFFCURVE",
"614 611 OFFCURVE",
"614 626 CURVE SMOOTH",
"614 669 OFFCURVE",
"580 701 OFFCURVE",
"542 701 CURVE SMOOTH",
"516 701 OFFCURVE",
"488 685 OFFCURVE",
"468 647 CURVE",
"331 415 LINE",
"200 642 LINE",
"176 688 OFFCURVE",
"143 708 OFFCURVE",
"112 708 CURVE SMOOTH",
"71 708 OFFCURVE",
"35 673 OFFCURVE",
"35 623 CURVE SMOOTH",
"35 604 OFFCURVE",
"40 584 OFFCURVE",
"52 562 CURVE",
"231 269 LINE",
"231 95 LINE SMOOTH",
"231 31 OFFCURVE",
"277 -1 OFFCURVE",
"322 -1 CURVE SMOOTH"
);
}
);
width = 648;
}
);
unicode = 0059;
userData = {
anchors = (
);
b = {
};
com.typemytype.robofont.guides = (
);
com.typemytype.robofont.layerData = {
b = {
anchors = (
);
components = (
);
contours = (
{
points = (
{
segmentType = curve;
smooth = 1;
x = 641;
y = 0;
},
{
smooth = 0;
x = 685;
y = 0;
},
{
smooth = 0;
x = 730;
y = 29;
},
{
segmentType = curve;
smooth = 1;
x = 730;
y = 85;
},
{
segmentType = line;
smooth = 0;
x = 730;
y = 1285;
},
{
segmentType = line;
smooth = 1;
x = 1115;
y = 1285;
},
{
smooth = 0;
x = 1164;
y = 1285;
},
{
smooth = 0;
x = 1190;
y = 1319;
},
{
segmentType = curve;
smooth = 1;
x = 1190;
y = 1355;
},
{
smooth = 0;
x = 1190;
y = 1392;
},
{
smooth = 0;
x = 1166;
y = 1426;
},
{
segmentType = curve;
smooth = 1;
x = 1115;
y = 1426;
},
{
segmentType = line;
smooth = 1;
x = 160;
y = 1426;
},
{
smooth = 0;
x = 111;
y = 1426;
},
{
smooth = 0;
x = 86;
y = 1392;
},
{
segmentType = curve;
smooth = 1;
x = 86;
y = 1355;
},
{
smooth = 0;
x = 86;
y = 1319;
},
{
smooth = 0;
x = 111;
y = 1285;
},
{
segmentType = curve;
smooth = 1;
x = 160;
y = 1285;
},
{
segmentType = line;
smooth = 0;
x = 552;
y = 1285;
},
{
segmentType = line;
smooth = 1;
x = 552;
y = 85;
},
{
smooth = 0;
x = 552;
y = 29;
},
{
smooth = 0;
x = 596;
y = 0;
}
);
}
);
lib = {
};
name = Y;
unicodes = (
);
width = 1278;
};
};
components = (
);
contours = (
);
lib = {
};
name = Y;
unicodes = (
);
width = 1321;
};
},
{
glyphname = Z;
lastChange = "2016-08-12 14:12:21 +0000";
layers = (
{
anchors = (
{
name = bottom;
position = "{280, 0}";
},
{
name = top;
position = "{308, 702}";
}
);
background = {
anchors = (
{
name = bottom;
position = "{280, 0}";
},
{
name = top;
position = "{308, 702}";
}
);
paths = (
{
closed = 1;
nodes = (
"470 645 LINE",
"63 65 LINE",
"58 57 OFFCURVE",
"55 48 OFFCURVE",
"55 39 CURVE SMOOTH",
"55 19 OFFCURVE",
"68 0 OFFCURVE",
"102 0 CURVE SMOOTH",
"498 0 LINE SMOOTH",
"517 0 OFFCURVE",
"526 10 OFFCURVE",
"526 24 CURVE SMOOTH",
"526 38 OFFCURVE",
"517 48 OFFCURVE",
"498 48 CURVE SMOOTH",
"116 48 LINE",
"521 628 LINE SMOOTH",
"529 639 OFFCURVE",
"532 650 OFFCURVE",
"532 659 CURVE SMOOTH",
"532 679 OFFCURVE",
"518 693 OFFCURVE",
"495 693 CURVE SMOOTH",
"85 693 LINE SMOOTH",
"66 693 OFFCURVE",
"57 682 OFFCURVE",
"57 669 CURVE SMOOTH",
"57 654 OFFCURVE",
"67 645 OFFCURVE",
"85 645 CURVE SMOOTH"
);
}
);
};
layerId = "9E718F8A-2CEA-4931-B05D-987794BD97DA";
paths = (
{
closed = 1;
nodes = (
"498 0 LINE SMOOTH",
"517 0 OFFCURVE",
"526 10 OFFCURVE",
"526 24 CURVE SMOOTH",
"526 38 OFFCURVE",
"517 48 OFFCURVE",
"498 48 CURVE SMOOTH",
"116 48 LINE",
"521 628 LINE SMOOTH",
"529 639 OFFCURVE",
"532 650 OFFCURVE",
"532 659 CURVE SMOOTH",
"532 679 OFFCURVE",
"518 693 OFFCURVE",
"495 693 CURVE SMOOTH",
"85 693 LINE SMOOTH",
"66 693 OFFCURVE",
"57 682 OFFCURVE",
"57 669 CURVE SMOOTH",
"57 654 OFFCURVE",
"67 645 OFFCURVE",
"85 645 CURVE SMOOTH",
"470 645 LINE",
"63 65 LINE",
"58 57 OFFCURVE",
"55 48 OFFCURVE",
"55 39 CURVE SMOOTH",
"55 19 OFFCURVE",
"68 0 OFFCURVE",
"102 0 CURVE SMOOTH"
);
}
);
width = 560;
},
{
anchors = (
{
name = bottom;
position = "{301, 0}";
},
{
name = top;
position = "{315, 702}";
}
);
background = {
anchors = (
{
name = bottom;
position = "{301, 0}";
},
{
name = top;
position = "{315, 702}";
}
);
paths = (
{
closed = 1;
nodes = (
"362 580 LINE",
"67 144 LINE SMOOTH",
"50 117 OFFCURVE",
"37 84 OFFCURVE",
"37 61 CURVE SMOOTH",
"37 26 OFFCURVE",
"62 0 OFFCURVE",
"109 0 CURVE SMOOTH",
"514 0 LINE SMOOTH",
"549 0 OFFCURVE",
"577 28 OFFCURVE",
"577 65 CURVE SMOOTH",
"577 103 OFFCURVE",
"549 131 OFFCURVE",
"514 131 CURVE SMOOTH",
"250 131 LINE",
"546 569 LINE",
"562 594 OFFCURVE",
"576 625 OFFCURVE",
"576 648 CURVE SMOOTH",
"576 697 OFFCURVE",
"539 711 OFFCURVE",
"494 711 CURVE SMOOTH",
"106 711 LINE SMOOTH",
"72 711 OFFCURVE",
"44 682 OFFCURVE",
"44 645 CURVE SMOOTH",
"44 607 OFFCURVE",
"72 580 OFFCURVE",
"106 580 CURVE SMOOTH"
);
}
);
};
layerId = "E1B555A7-F4E1-459C-9C1A-AE952106EEF9";
paths = (
{
closed = 1;
nodes = (
"514 0 LINE SMOOTH",
"549 0 OFFCURVE",
"577 28 OFFCURVE",
"577 65 CURVE SMOOTH",
"577 103 OFFCURVE",
"549 131 OFFCURVE",
"514 131 CURVE SMOOTH",
"250 131 LINE",
"546 569 LINE",
"562 594 OFFCURVE",
"576 625 OFFCURVE",
"576 648 CURVE SMOOTH",
"576 697 OFFCURVE",
"539 711 OFFCURVE",
"494 711 CURVE SMOOTH",
"106 711 LINE SMOOTH",
"72 711 OFFCURVE",
"44 682 OFFCURVE",
"44 645 CURVE SMOOTH",
"44 607 OFFCURVE",
"72 580 OFFCURVE",
"106 580 CURVE SMOOTH",
"362 580 LINE",
"67 144 LINE SMOOTH",
"50 117 OFFCURVE",
"37 84 OFFCURVE",
"37 61 CURVE SMOOTH",
"37 26 OFFCURVE",
"62 0 OFFCURVE",
"109 0 CURVE SMOOTH"
);
}
);
width = 602;
}
);
unicode = 005A;
userData = {
anchors = (
);
b = {
};
com.typemytype.robofont.layerData = {
b = {
anchors = (
);
components = (
);
contours = (
{
points = (
{
segmentType = curve;
smooth = 1;
x = 266;
y = 0;
},
{
segmentType = line;
smooth = 1;
x = 1035;
y = 0;
},
{
smooth = 0;
x = 1084;
y = 0;
},
{
smooth = 0;
x = 1108;
y = 34;
},
{
segmentType = curve;
smooth = 1;
x = 1108;
y = 71;
},
{
smooth = 0;
x = 1108;
y = 107;
},
{
smooth = 0;
x = 1084;
y = 141;
},
{
segmentType = curve;
smooth = 1;
x = 1035;
y = 141;
},
{
segmentType = line;
smooth = 0;
x = 356;
y = 141;
},
{
segmentType = line;
smooth = 0;
x = 356;
y = 665;
},
{
segmentType = line;
smooth = 1;
x = 975;
y = 665;
},
{
smooth = 0;
x = 1024;
y = 665;
},
{
smooth = 0;
x = 1049;
y = 698;
},
{
segmentType = curve;
smooth = 1;
x = 1049;
y = 734;
},
{
smooth = 0;
x = 1049;
y = 770;
},
{
smooth = 0;
x = 1026;
y = 803;
},
{
segmentType = curve;
smooth = 1;
x = 975;
y = 803;
},
{
segmentType = line;
smooth = 0;
x = 356;
y = 803;
},
{
segmentType = line;
smooth = 0;
x = 356;
y = 1285;
},
{
segmentType = line;
smooth = 1;
x = 1007;
y = 1285;
},
{
smooth = 0;
x = 1056;
y = 1285;
},
{
smooth = 0;
x = 1080;
y = 1319;
},
{
segmentType = curve;
smooth = 1;
x = 1080;
y = 1356;
},
{
smooth = 0;
x = 1080;
y = 1392;
},
{
smooth = 0;
x = 1056;
y = 1426;
},
{
segmentType = curve;
smooth = 1;
x = 1007;
y = 1426;
},
{
segmentType = line;
smooth = 1;
x = 261;
y = 1426;
},
{
smooth = 0;
x = 213;
y = 1426;
},
{
smooth = 0;
x = 178;
y = 1383;
},
{
segmentType = curve;
smooth = 1;
x = 178;
y = 1340;
},
{
segmentType = line;
smooth = 1;
x = 178;
y = 86;
},
{
smooth = 0;
x = 178;
y = 41;
},
{
smooth = 0;
x = 222;
y = 0;
}
);
}
);
lib = {
};
name = Z;
unicodes = (
);
width = 1165;
};
};
components = (
);
contours = (
);
lib = {
};
name = Z;
unicodes = (
);
width = 1222;
};
},
{
color = 4;
glyphname = a;
lastChange = "2016-08-12 14:12:21 +0000";
layers = (
{
background = {
paths = (
{
closed = 1;
nodes = (
"376 204 LINE SMOOTH",
"376 105 OFFCURVE",
"307 44 OFFCURVE",
"224 44 CURVE SMOOTH",
"155 44 OFFCURVE",
"110 89 OFFCURVE",
"110 142 CURVE SMOOTH",
"110 208 OFFCURVE",
"144 236 OFFCURVE",
"357 236 CURVE SMOOTH",
"387 236 LINE",
"387 279 LINE",
"355 279 LINE SMOOTH",
"127 279 OFFCURVE",
"51 246 OFFCURVE",
"52 137 CURVE SMOOTH",
"53 60 OFFCURVE",
"124 -5 OFFCURVE",
"221 -5 CURVE SMOOTH",
"301 -5 OFFCURVE",
"366 42 OFFCURVE",
"388 111 CURVE",
"377 129 LINE",
"377 24 LINE SMOOTH",
"377 6 OFFCURVE",
"389 -4 OFFCURVE",
"404 -4 CURVE SMOOTH",
"420 -4 OFFCURVE",
"431 6 OFFCURVE",
"431 24 CURVE SMOOTH",
"431 317 LINE SMOOTH",
"431 443 OFFCURVE",
"363 495 OFFCURVE",
"258 495 CURVE SMOOTH",
"203 495 OFFCURVE",
"143 480 OFFCURVE",
"96 452 CURVE SMOOTH",
"69 436 OFFCURVE",
"61 424 OFFCURVE",
"61 410 CURVE SMOOTH",
"61 397 OFFCURVE",
"71 387 OFFCURVE",
"82 387 CURVE SMOOTH",
"109 387 OFFCURVE",
"142 446 OFFCURVE",
"262 446 CURVE SMOOTH",
"335 446 OFFCURVE",
"376 414 OFFCURVE",
"376 312 CURVE SMOOTH"
);
}
);
};
layerId = "9E718F8A-2CEA-4931-B05D-987794BD97DA";
paths = (
{
closed = 1;
nodes = (
"301 -5 OFFCURVE",
"366 42 OFFCURVE",
"388 111 CURVE",
"377 129 LINE",
"377 24 LINE SMOOTH",
"377 6 OFFCURVE",
"389 -4 OFFCURVE",
"404 -4 CURVE SMOOTH",
"420 -4 OFFCURVE",
"431 6 OFFCURVE",
"431 24 CURVE SMOOTH",
"431 317 LINE SMOOTH",
"431 443 OFFCURVE",
"363 495 OFFCURVE",
"258 495 CURVE SMOOTH",
"203 495 OFFCURVE",
"143 480 OFFCURVE",
"96 452 CURVE SMOOTH",
"69 436 OFFCURVE",
"61 424 OFFCURVE",
"61 410 CURVE SMOOTH",
"61 397 OFFCURVE",
"71 387 OFFCURVE",
"82 387 CURVE SMOOTH",
"92 387 OFFCURVE",
"103 395 OFFCURVE",
"119 406 CURVE SMOOTH",
"146 423 OFFCURVE",
"195 446 OFFCURVE",
"262 446 CURVE SMOOTH",
"335 446 OFFCURVE",
"376 414 OFFCURVE",
"376 312 CURVE SMOOTH",
"376 204 LINE SMOOTH",
"376 105 OFFCURVE",
"307 44 OFFCURVE",
"224 44 CURVE SMOOTH",
"155 44 OFFCURVE",
"110 89 OFFCURVE",
"110 142 CURVE SMOOTH",
"110 208 OFFCURVE",
"144 236 OFFCURVE",
"357 236 CURVE SMOOTH",
"387 236 LINE",
"387 279 LINE",
"355 279 LINE SMOOTH",
"127 279 OFFCURVE",
"51 246 OFFCURVE",
"52 137 CURVE SMOOTH",
"53 60 OFFCURVE",
"124 -5 OFFCURVE",
"221 -5 CURVE SMOOTH"
);
}
);
width = 508;
},
{
background = {
paths = (
{
closed = 1;
nodes = (
"345 202 LINE SMOOTH",
"345 137 OFFCURVE",
"300 101 OFFCURVE",
"250 101 CURVE SMOOTH",
"214 101 OFFCURVE",
"187 126 OFFCURVE",
"187 161 CURVE SMOOTH",
"187 199 OFFCURVE",
"214 218 OFFCURVE",
"328 218 CURVE SMOOTH",
"361 218 LINE",
"361 293 LINE",
"319 293 LINE SMOOTH",
"107 293 OFFCURVE",
"37 252 OFFCURVE",
"37 150 CURVE SMOOTH",
"37 67 OFFCURVE",
"106 -6 OFFCURVE",
"217 -6 CURVE SMOOTH",
"285 -6 OFFCURVE",
"341 31 OFFCURVE",
"354 100 CURVE",
"346 103 LINE",
"346 68 LINE SMOOTH",
"346 16 OFFCURVE",
"385 -4 OFFCURVE",
"419 -4 CURVE SMOOTH",
"460 -4 OFFCURVE",
"493 17 OFFCURVE",
"493 68 CURVE SMOOTH",
"493 289 LINE SMOOTH",
"493 439 OFFCURVE",
"419 501 OFFCURVE",
"279 501 CURVE SMOOTH",
"208 501 OFFCURVE",
"136 482 OFFCURVE",
"93 460 CURVE SMOOTH",
"65 446 OFFCURVE",
"55 429 OFFCURVE",
"55 403 CURVE SMOOTH",
"55 373 OFFCURVE",
"71 345 OFFCURVE",
"104 345 CURVE SMOOTH",
"139 345 OFFCURVE",
"191 385 OFFCURVE",
"267 385 CURVE SMOOTH",
"320 385 OFFCURVE",
"345 367 OFFCURVE",
"345 310 CURVE SMOOTH"
);
}
);
};
layerId = "E1B555A7-F4E1-459C-9C1A-AE952106EEF9";
paths = (
{
closed = 1;
nodes = (
"285 -6 OFFCURVE",
"341 31 OFFCURVE",
"354 100 CURVE",
"346 103 LINE",
"346 68 LINE SMOOTH",
"346 16 OFFCURVE",
"385 -4 OFFCURVE",
"419 -4 CURVE SMOOTH",
"460 -4 OFFCURVE",
"493 17 OFFCURVE",
"493 68 CURVE SMOOTH",
"493 289 LINE SMOOTH",
"493 439 OFFCURVE",
"419 501 OFFCURVE",
"279 501 CURVE SMOOTH",
"208 501 OFFCURVE",
"136 482 OFFCURVE",
"93 460 CURVE SMOOTH",
"65 446 OFFCURVE",
"55 429 OFFCURVE",
"55 403 CURVE SMOOTH",
"55 373 OFFCURVE",
"71 345 OFFCURVE",
"104 345 CURVE SMOOTH",
"115 345 OFFCURVE",
"128 349 OFFCURVE",
"143 355 CURVE SMOOTH",
"175 367 OFFCURVE",
"223 385 OFFCURVE",
"267 385 CURVE SMOOTH",
"320 385 OFFCURVE",
"345 367 OFFCURVE",
"345 310 CURVE SMOOTH",
"345 202 LINE SMOOTH",
"345 137 OFFCURVE",
"300 101 OFFCURVE",
"250 101 CURVE SMOOTH",
"214 101 OFFCURVE",
"187 126 OFFCURVE",
"187 161 CURVE SMOOTH",
"187 199 OFFCURVE",
"214 218 OFFCURVE",
"328 218 CURVE SMOOTH",
"361 218 LINE",
"361 293 LINE",
"319 293 LINE SMOOTH",
"107 293 OFFCURVE",
"37 252 OFFCURVE",
"37 150 CURVE SMOOTH",
"37 67 OFFCURVE",
"106 -6 OFFCURVE",
"217 -6 CURVE SMOOTH"
);
}
);
width = 549;
}
);
rightMetricsKey = n;
unicode = 0061;
userData = {
anchors = (
);
b = {
};
com.typemytype.robofont.layerData = {
b = {
anchors = (
);
components = (
);
contours = (
);
lib = {
};
name = a;
unicodes = (
);
width = 1040;
};
};
components = (
);
contours = (
);
lib = {
};
name = a;
unicodes = (
);
width = 1101;
};
},
{
color = 3;
glyphname = ae;
lastChange = "2016-08-12 14:12:21 +0000";
layers = (
{
background = {
paths = (
{
closed = 1;
nodes = (
"1165 296 LINE",
"1144 296 OFFCURVE",
"1125 297 OFFCURVE",
"1106 298 CURVE",
"948 298 OFFCURVE",
"837 254 OFFCURVE",
"837 135 CURVE SMOOTH",
"837 41 OFFCURVE",
"910 -15 OFFCURVE",
"1003 -15 CURVE SMOOTH",
"1067 -15 OFFCURVE",
"1156 17 OFFCURVE",
"1195 103 CURVE",
"1224 34 OFFCURVE",
"1277 -15 OFFCURVE",
"1358 -15 CURVE SMOOTH",
"1447 -15 OFFCURVE",
"1546 39 OFFCURVE",
"1546 78 CURVE SMOOTH",
"1546 89 OFFCURVE",
"1538 98 OFFCURVE",
"1525 98 CURVE SMOOTH",
"1519 98 OFFCURVE",
"1511 96 OFFCURVE",
"1504 89 CURVE",
"1475 63 OFFCURVE",
"1424 37 OFFCURVE",
"1377 37 CURVE SMOOTH",
"1270 37 OFFCURVE",
"1228 124 OFFCURVE",
"1226 228 CURVE",
"1536 228 LINE SMOOTH",
"1557 228 OFFCURVE",
"1564 242 OFFCURVE",
"1564 256 CURVE",
"1559 389 OFFCURVE",
"1504 496 OFFCURVE",
"1367 496 CURVE SMOOTH",
"1293 496 OFFCURVE",
"1239 458 OFFCURVE",
"1205 403 CURVE",
"1181 468 OFFCURVE",
"1127 496 OFFCURVE",
"1045 496 CURVE SMOOTH",
"978 496 OFFCURVE",
"917 475 OFFCURVE",
"872 439 CURVE",
"865 433 OFFCURVE",
"862 426 OFFCURVE",
"862 418 CURVE SMOOTH",
"862 404 OFFCURVE",
"873 393 OFFCURVE",
"886 393 CURVE SMOOTH",
"892 393 OFFCURVE",
"898 395 OFFCURVE",
"905 400 CURVE SMOOTH",
"944 428 OFFCURVE",
"976 445 OFFCURVE",
"1045 445 CURVE SMOOTH",
"1115 445 OFFCURVE",
"1165 420 OFFCURVE",
"1165 340 CURVE SMOOTH"
);
},
{
closed = 1;
nodes = (
"1164 193 LINE",
"1159 89 OFFCURVE",
"1093 39 OFFCURVE",
"1011 37 CURVE",
"950 39 OFFCURVE",
"899 69 OFFCURVE",
"899 134 CURVE SMOOTH",
"899 260 OFFCURVE",
"1078 237 OFFCURVE",
"1164 243 CURVE"
);
},
{
closed = 1;
nodes = (
"1229 280 LINE",
"1236 364 OFFCURVE",
"1280 444 OFFCURVE",
"1368 444 CURVE SMOOTH",
"1456 444 OFFCURVE",
"1496 372 OFFCURVE",
"1503 280 CURVE"
);
},
{
closed = 1;
nodes = (
"376 204 LINE SMOOTH",
"376 105 OFFCURVE",
"307 44 OFFCURVE",
"224 44 CURVE SMOOTH",
"155 44 OFFCURVE",
"110 89 OFFCURVE",
"110 142 CURVE SMOOTH",
"110 208 OFFCURVE",
"144 236 OFFCURVE",
"357 236 CURVE SMOOTH",
"387 236 LINE",
"387 279 LINE",
"355 279 LINE SMOOTH",
"127 279 OFFCURVE",
"51 246 OFFCURVE",
"52 137 CURVE SMOOTH",
"53 60 OFFCURVE",
"124 -5 OFFCURVE",
"221 -5 CURVE SMOOTH",
"301 -5 OFFCURVE",
"366 42 OFFCURVE",
"388 111 CURVE",
"377 129 LINE",
"377 24 LINE SMOOTH",
"377 6 OFFCURVE",
"389 -4 OFFCURVE",
"404 -4 CURVE SMOOTH",
"420 -4 OFFCURVE",
"431 6 OFFCURVE",
"431 24 CURVE SMOOTH",
"431 317 LINE SMOOTH",
"431 443 OFFCURVE",
"363 495 OFFCURVE",
"258 495 CURVE SMOOTH",
"196 495 OFFCURVE",
"143 480 OFFCURVE",
"96 452 CURVE SMOOTH",
"71 437 OFFCURVE",
"61 424 OFFCURVE",
"61 410 CURVE SMOOTH",
"61 397 OFFCURVE",
"70 387 OFFCURVE",
"81 387 CURVE SMOOTH",
"104 387 OFFCURVE",
"146 446 OFFCURVE",
"263 446 CURVE SMOOTH",
"335 446 OFFCURVE",
"376 414 OFFCURVE",
"376 312 CURVE SMOOTH"
);
},
{
closed = 1;
nodes = (
"656 -5 OFFCURVE",
"709 8 OFFCURVE",
"759 38 CURVE SMOOTH",
"784 53 OFFCURVE",
"793 66 OFFCURVE",
"793 80 CURVE SMOOTH",
"793 93 OFFCURVE",
"784 103 OFFCURVE",
"773 103 CURVE SMOOTH",
"750 103 OFFCURVE",
"708 44 OFFCURVE",
"609 44 CURVE SMOOTH",
"503 44 OFFCURVE",
"431 106 OFFCURVE",
"431 246 CURVE SMOOTH",
"431 381 OFFCURVE",
"502 449 OFFCURVE",
"598 449 CURVE SMOOTH",
"688 449 OFFCURVE",
"751 390 OFFCURVE",
"747 256 CURVE",
"767 279 LINE",
"411 279 LINE",
"412 236 LINE",
"764 236 LINE SMOOTH",
"788 236 OFFCURVE",
"797 247 OFFCURVE",
"797 271 CURVE SMOOTH",
"797 396 OFFCURVE",
"731 495 OFFCURVE",
"598 495 CURVE SMOOTH",
"471 495 OFFCURVE",
"377 396 OFFCURVE",
"382 241 CURVE SMOOTH",
"387 82 OFFCURVE",
"474 -5 OFFCURVE",
"610 -5 CURVE SMOOTH"
);
}
);
};
layerId = "9E718F8A-2CEA-4931-B05D-987794BD97DA";
paths = (
{
closed = 1;
nodes = (
"656 -5 OFFCURVE",
"709 8 OFFCURVE",
"759 38 CURVE SMOOTH",
"784 53 OFFCURVE",
"793 66 OFFCURVE",
"793 80 CURVE SMOOTH",
"793 93 OFFCURVE",
"784 103 OFFCURVE",
"773 103 CURVE SMOOTH",
"750 103 OFFCURVE",
"708 44 OFFCURVE",
"611 44 CURVE SMOOTH",
"507 44 OFFCURVE",
"435 106 OFFCURVE",
"435 246 CURVE SMOOTH",
"435 381 OFFCURVE",
"506 449 OFFCURVE",
"600 449 CURVE SMOOTH",
"688 449 OFFCURVE",
"751 390 OFFCURVE",
"747 256 CURVE",
"767 279 LINE",
"415 279 LINE",
"416 236 LINE",
"764 236 LINE SMOOTH",
"788 236 OFFCURVE",
"797 247 OFFCURVE",
"797 271 CURVE SMOOTH",
"797 396 OFFCURVE",
"731 495 OFFCURVE",
"600 495 CURVE SMOOTH",
"475 495 OFFCURVE",
"381 396 OFFCURVE",
"386 241 CURVE SMOOTH",
"391 82 OFFCURVE",
"478 -5 OFFCURVE",
"612 -5 CURVE SMOOTH"
);
},
{
closed = 1;
nodes = (
"305 -5 OFFCURVE",
"402 42 OFFCURVE",
"424 171 CURVE",
"433 171 LINE",
"433 317 LINE",
"433 443 OFFCURVE",
"367 495 OFFCURVE",
"260 495 CURVE SMOOTH",
"196 495 OFFCURVE",
"143 480 OFFCURVE",
"96 452 CURVE SMOOTH",
"71 437 OFFCURVE",
"61 424 OFFCURVE",
"61 410 CURVE SMOOTH",
"61 397 OFFCURVE",
"70 387 OFFCURVE",
"81 387 CURVE SMOOTH",
"104 387 OFFCURVE",
"146 446 OFFCURVE",
"265 446 CURVE SMOOTH",
"339 446 OFFCURVE",
"380 414 OFFCURVE",
"380 312 CURVE SMOOTH",
"380 204 LINE SMOOTH",
"380 105 OFFCURVE",
"311 44 OFFCURVE",
"229 44 CURVE SMOOTH",
"155 44 OFFCURVE",
"110 89 OFFCURVE",
"110 142 CURVE SMOOTH",
"110 208 OFFCURVE",
"144 236 OFFCURVE",
"361 236 CURVE SMOOTH",
"391 236 LINE",
"391 279 LINE",
"359 279 LINE SMOOTH",
"127 279 OFFCURVE",
"51 246 OFFCURVE",
"52 137 CURVE SMOOTH",
"53 60 OFFCURVE",
"123 -5 OFFCURVE",
"226 -5 CURVE SMOOTH"
);
}
);
width = 841;
},
{
background = {
paths = (
{
closed = 1;
nodes = (
"1248 300 LINE",
"1237 300 OFFCURVE",
"1218 301 OFFCURVE",
"1207 301 CURVE SMOOTH",
"1033 301 OFFCURVE",
"925 255 OFFCURVE",
"925 134 CURVE SMOOTH",
"925 41 OFFCURVE",
"996 -9 OFFCURVE",
"1112 -9 CURVE SMOOTH",
"1205 -9 OFFCURVE",
"1273 16 OFFCURVE",
"1310 75 CURVE",
"1349 21 OFFCURVE",
"1408 -9 OFFCURVE",
"1489 -9 CURVE SMOOTH",
"1523 -9 OFFCURVE",
"1701 -6 OFFCURVE",
"1701 81 CURVE SMOOTH",
"1701 103 OFFCURVE",
"1688 129 OFFCURVE",
"1665 129 CURVE SMOOTH",
"1662 129 OFFCURVE",
"1658 129 OFFCURVE",
"1654 128 CURVE",
"1610 118 OFFCURVE",
"1571 98 OFFCURVE",
"1515 98 CURVE SMOOTH",
"1420 98 OFFCURVE",
"1396 150 OFFCURVE",
"1395 219 CURVE",
"1669 219 LINE SMOOTH",
"1701 219 OFFCURVE",
"1724 227 OFFCURVE",
"1724 261 CURVE SMOOTH",
"1724 406 OFFCURVE",
"1644 505 OFFCURVE",
"1495 505 CURVE SMOOTH",
"1426 505 OFFCURVE",
"1370 480 OFFCURVE",
"1331 436 CURVE",
"1301 483 OFFCURVE",
"1254 503 OFFCURVE",
"1187 505 CURVE SMOOTH",
"1132 507 OFFCURVE",
"1029 500 OFFCURVE",
"986 460 CURVE",
"975 448 OFFCURVE",
"968 432 OFFCURVE",
"968 412 CURVE SMOOTH",
"968 387 OFFCURVE",
"986 372 OFFCURVE",
"1008 372 CURVE SMOOTH",
"1016 372 OFFCURVE",
"1023 372 OFFCURVE",
"1031 374 CURVE",
"1066 381 OFFCURVE",
"1103 395 OFFCURVE",
"1155 395 CURVE SMOOTH",
"1204 395 OFFCURVE",
"1248 384 OFFCURVE",
"1248 324 CURVE SMOOTH"
);
},
{
closed = 1;
nodes = (
"1247 197 LINE SMOOTH",
"1247 121 OFFCURVE",
"1205 76 OFFCURVE",
"1144 76 CURVE SMOOTH",
"1098 76 OFFCURVE",
"1065 100 OFFCURVE",
"1065 147 CURVE SMOOTH",
"1065 219 OFFCURVE",
"1204 227 OFFCURVE",
"1247 227 CURVE"
);
},
{
closed = 1;
nodes = (
"1394 293 LINE",
"1398 368 OFFCURVE",
"1433 416 OFFCURVE",
"1496 416 CURVE SMOOTH",
"1557 416 OFFCURVE",
"1590 373 OFFCURVE",
"1594 293 CURVE"
);
},
{
closed = 1;
nodes = (
"343 202 LINE SMOOTH",
"343 137 OFFCURVE",
"298 101 OFFCURVE",
"249 101 CURVE SMOOTH",
"214 101 OFFCURVE",
"187 126 OFFCURVE",
"187 161 CURVE SMOOTH",
"187 199 OFFCURVE",
"214 218 OFFCURVE",
"326 218 CURVE SMOOTH",
"359 218 LINE",
"359 293 LINE",
"317 293 LINE SMOOTH",
"107 293 OFFCURVE",
"37 252 OFFCURVE",
"37 150 CURVE SMOOTH",
"37 67 OFFCURVE",
"106 -6 OFFCURVE",
"216 -6 CURVE SMOOTH",
"283 -6 OFFCURVE",
"339 31 OFFCURVE",
"352 100 CURVE",
"344 103 LINE",
"344 68 LINE SMOOTH",
"344 16 OFFCURVE",
"383 -4 OFFCURVE",
"417 -4 CURVE SMOOTH",
"458 -4 OFFCURVE",
"491 17 OFFCURVE",
"491 68 CURVE SMOOTH",
"491 289 LINE SMOOTH",
"491 439 OFFCURVE",
"417 501 OFFCURVE",
"278 501 CURVE SMOOTH",
"198 501 OFFCURVE",
"133 482 OFFCURVE",
"93 460 CURVE SMOOTH",
"71 448 OFFCURVE",
"55 429 OFFCURVE",
"55 403 CURVE SMOOTH",
"55 373 OFFCURVE",
"70 345 OFFCURVE",
"101 345 CURVE SMOOTH",
"140 345 OFFCURVE",
"177 385 OFFCURVE",
"266 385 CURVE SMOOTH",
"318 385 OFFCURVE",
"343 367 OFFCURVE",
"343 310 CURVE SMOOTH"
);
},
{
closed = 1;
nodes = (
"670 -6 OFFCURVE",
"735 13 OFFCURVE",
"775 35 CURVE SMOOTH",
"797 47 OFFCURVE",
"813 66 OFFCURVE",
"813 92 CURVE SMOOTH",
"813 122 OFFCURVE",
"798 150 OFFCURVE",
"767 150 CURVE SMOOTH",
"728 150 OFFCURVE",
"687 110 OFFCURVE",
"612 110 CURVE SMOOTH",
"529 110 OFFCURVE",
"491 150 OFFCURVE",
"491 263 CURVE SMOOTH",
"491 353 OFFCURVE",
"530 394 OFFCURVE",
"589 394 CURVE SMOOTH",
"648 394 OFFCURVE",
"679 353 OFFCURVE",
"679 278 CURVE",
"717 293 LINE",
"481 293 LINE",
"480 216 LINE",
"770 216 LINE SMOOTH",
"797 216 OFFCURVE",
"810 234 OFFCURVE",
"810 262 CURVE SMOOTH",
"810 399 OFFCURVE",
"729 501 OFFCURVE",
"585 501 CURVE SMOOTH",
"451 501 OFFCURVE",
"362 399 OFFCURVE",
"362 247 CURVE SMOOTH",
"362 92 OFFCURVE",
"449 -6 OFFCURVE",
"609 -6 CURVE SMOOTH"
);
}
);
};
layerId = "E1B555A7-F4E1-459C-9C1A-AE952106EEF9";
paths = (
{
closed = 1;
nodes = (
"664 -6 OFFCURVE",
"729 13 OFFCURVE",
"769 35 CURVE SMOOTH",
"791 47 OFFCURVE",
"807 66 OFFCURVE",
"807 92 CURVE SMOOTH",
"807 122 OFFCURVE",
"792 150 OFFCURVE",
"761 150 CURVE SMOOTH",
"722 150 OFFCURVE",
"681 110 OFFCURVE",
"609 110 CURVE SMOOTH",
"529 110 OFFCURVE",
"491 150 OFFCURVE",
"491 263 CURVE SMOOTH",
"491 353 OFFCURVE",
"530 394 OFFCURVE",
"589 394 CURVE SMOOTH",
"642 394 OFFCURVE",
"673 353 OFFCURVE",
"673 278 CURVE",
"711 293 LINE",
"481 293 LINE",
"480 216 LINE",
"764 216 LINE SMOOTH",
"791 216 OFFCURVE",
"804 234 OFFCURVE",
"804 262 CURVE SMOOTH",
"804 399 OFFCURVE",
"723 501 OFFCURVE",
"592 501 CURVE SMOOTH",
"454 501 OFFCURVE",
"363 399 OFFCURVE",
"363 247 CURVE SMOOTH",
"363 92 OFFCURVE",
"448 -6 OFFCURVE",
"606 -6 CURVE SMOOTH"
);
},
{
closed = 1;
nodes = (
"367 -6 OFFCURVE",
"444 74 OFFCURVE",
"444 193 CURVE",
"475 202 LINE",
"475 289 LINE SMOOTH",
"475 439 OFFCURVE",
"409 501 OFFCURVE",
"275 501 CURVE SMOOTH",
"198 501 OFFCURVE",
"133 482 OFFCURVE",
"93 460 CURVE SMOOTH",
"71 448 OFFCURVE",
"55 429 OFFCURVE",
"55 403 CURVE SMOOTH",
"55 373 OFFCURVE",
"70 345 OFFCURVE",
"101 345 CURVE SMOOTH",
"140 345 OFFCURVE",
"177 385 OFFCURVE",
"266 385 CURVE SMOOTH",
"317 385 OFFCURVE",
"343 365 OFFCURVE",
"343 310 CURVE SMOOTH",
"343 202 LINE SMOOTH",
"343 136 OFFCURVE",
"298 101 OFFCURVE",
"255 101 CURVE SMOOTH",
"214 101 OFFCURVE",
"187 126 OFFCURVE",
"187 161 CURVE SMOOTH",
"187 199 OFFCURVE",
"214 218 OFFCURVE",
"326 218 CURVE SMOOTH",
"349 218 LINE",
"349 293 LINE",
"317 293 LINE SMOOTH",
"107 293 OFFCURVE",
"37 252 OFFCURVE",
"37 150 CURVE SMOOTH",
"37 67 OFFCURVE",
"110 -6 OFFCURVE",
"236 -6 CURVE SMOOTH"
);
}
);
width = 836;
}
);
leftMetricsKey = a;
rightMetricsKey = e;
unicode = 00E6;
userData = {
com.typemytype.robofont.layerData = {
b = {
anchors = (
);
components = (
);
contours = (
);
lib = {
};
name = ae;
unicodes = (
);
width = 1734;
};
};
};
},
{
color = 4;
glyphname = b;
lastChange = "2016-08-12 08:27:40 +0000";
layers = (
{
background = {
paths = (
{
closed = 1;
nodes = (
"460 -12 OFFCURVE",
"523 107 OFFCURVE",
"523 244 CURVE SMOOTH",
"523 369 OFFCURVE",
"452 495 OFFCURVE",
"307 495 CURVE SMOOTH",
"235 495 OFFCURVE",
"166 454 OFFCURVE",
"140 385 CURVE",
"140 667 LINE SMOOTH",
"140 683 OFFCURVE",
"126 692 OFFCURVE",
"112 692 CURVE SMOOTH",
"98 692 OFFCURVE",
"83 683 OFFCURVE",
"83 667 CURVE SMOOTH",
"83 26 LINE SMOOTH",
"83 9 OFFCURVE",
"96 2 OFFCURVE",
"110 2 CURVE SMOOTH",
"138 2 OFFCURVE",
"140 21 OFFCURVE",
"140 26 CURVE SMOOTH",
"140 97 LINE",
"171 25 OFFCURVE",
"241 -12 OFFCURVE",
"315 -12 CURVE SMOOTH"
);
},
{
closed = 1;
nodes = (
"181 27 OFFCURVE",
"141 137 OFFCURVE",
"141 244 CURVE SMOOTH",
"141 349 OFFCURVE",
"188 455 OFFCURVE",
"306 455 CURVE SMOOTH",
"425 455 OFFCURVE",
"467 339 OFFCURVE",
"467 239 CURVE SMOOTH",
"467 143 OFFCURVE",
"432 30 OFFCURVE",
"315 27 CURVE SMOOTH"
);
}
);
};
components = (
{
name = d;
transform = "{-1, 0, 0, 1, 563, 0}";
}
);
layerId = "9E718F8A-2CEA-4931-B05D-987794BD97DA";
width = 563;
},
{
background = {
paths = (
{
closed = 1;
nodes = (
"236 607 LINE SMOOTH",
"236 674 OFFCURVE",
"212 711 OFFCURVE",
"155 711 CURVE SMOOTH",
"101 711 OFFCURVE",
"81 674 OFFCURVE",
"81 607 CURVE SMOOTH",
"81 110 LINE SMOOTH",
"81 43 OFFCURVE",
"106 0 OFFCURVE",
"160 0 CURVE SMOOTH",
"210 0 OFFCURVE",
"235 33 OFFCURVE",
"235 76 CURVE SMOOTH",
"235 82 LINE",
"266 17 OFFCURVE",
"327 -9 OFFCURVE",
"398 -9 CURVE SMOOTH",
"517 -9 OFFCURVE",
"609 75 OFFCURVE",
"609 247 CURVE SMOOTH",
"609 417 OFFCURVE",
"509 497 OFFCURVE",
"391 497 CURVE SMOOTH",
"318 497 OFFCURVE",
"261 466 OFFCURVE",
"236 413 CURVE"
);
},
{
closed = 1;
nodes = (
"425 396 OFFCURVE",
"461 333 OFFCURVE",
"461 241 CURVE SMOOTH",
"461 170 OFFCURVE",
"434 86 OFFCURVE",
"352 86 CURVE SMOOTH",
"269 86 OFFCURVE",
"236 149 OFFCURVE",
"236 243 CURVE SMOOTH",
"236 347 OFFCURVE",
"279 396 OFFCURVE",
"349 396 CURVE SMOOTH"
);
}
);
};
components = (
{
name = d;
transform = "{-1, 0, 0, 1, 615, 0}";
}
);
layerId = "E1B555A7-F4E1-459C-9C1A-AE952106EEF9";
width = 615;
}
);
leftMetricsKey = n;
rightMetricsKey = o;
unicode = 0062;
userData = {
anchors = (
);
b = {
};
com.typemytype.robofont.layerData = {
b = {
anchors = (
);
components = (
);
contours = (
{
points = (
{
segmentType = curve;
smooth = 1;
x = 238;
y = 1425;
},
{
smooth = 0;
x = 198;
y = 1425;
},
{
smooth = 0;
x = 158;
y = 1400;
},
{
segmentType = curve;
smooth = 1;
x = 158;
y = 1351;
},
{
segmentType = line;
smooth = 1;
x = 158;
y = 76;
},
{
smooth = 0;
x = 158;
y = 27;
},
{
smooth = 0;
x = 197;
y = 3;
},
{
segmentType = curve;
smooth = 1;
x = 237;
y = 3;
},
{
smooth = 0;
x = 297;
y = 3;
},
{
smooth = 0;
x = 318;
y = 38;
},
{
segmentType = curve;
smooth = 1;
x = 318;
y = 76;
},
{
segmentType = line;
smooth = 0;
x = 318;
y = 183;
},
{
smooth = 0;
x = 384;
y = 46;
},
{
smooth = 0;
x = 516;
y = "-20";
},
{
segmentType = curve;
smooth = 1;
x = 666;
y = "-20";
},
{
smooth = 0;
x = 957;
y = "-20";
},
{
smooth = 0;
x = 1095;
y = 225;
},
{
segmentType = curve;
smooth = 1;
x = 1095;
y = 502;
},
{
smooth = 0;
x = 1095;
y = 777;
},
{
smooth = 0;
x = 939;
y = 1013;
},
{
segmentType = curve;
smooth = 1;
x = 650;
y = 1013;
},
{
smooth = 0;
x = 503;
y = 1013;
},
{
smooth = 0;
x = 376;
y = 942;
},
{
segmentType = curve;
smooth = 0;
x = 318;
y = 814;
},
{
segmentType = line;
smooth = 1;
x = 318;
y = 1351;
},
{
smooth = 0;
x = 318;
y = 1400;
},
{
smooth = 0;
x = 278;
y = 1425;
}
);
},
{
points = (
{
segmentType = curve;
smooth = 1;
x = 632;
y = 903;
},
{
smooth = 0;
x = 859;
y = 903;
},
{
smooth = 0;
x = 935;
y = 685;
},
{
segmentType = curve;
smooth = 1;
x = 935;
y = 496;
},
{
smooth = 0;
x = 935;
y = 316;
},
{
smooth = 0;
x = 869;
y = 93;
},
{
segmentType = curve;
smooth = 0;
x = 645;
y = 90;
},
{
smooth = 0;
x = 395;
y = 90;
},
{
smooth = 0;
x = 319;
y = 279;
},
{
segmentType = curve;
smooth = 1;
x = 319;
y = 501;
},
{
smooth = 0;
x = 319;
y = 701;
},
{
smooth = 0;
x = 407;
y = 903;
}
);
}
);
lib = {
};
name = b;
unicodes = (
);
width = 1181;
};
};
components = (
);
contours = (
);
lib = {
};
name = b;
unicodes = (
);
width = 1203;
};
},
{
color = 4;
glyphname = c;
lastChange = "2016-08-12 20:12:03 +0000";
layers = (
{
background = {
paths = (
{
closed = 1;
nodes = (
"317 -5 OFFCURVE",
"372 12 OFFCURVE",
"408 38 CURVE SMOOTH",
"434 57 OFFCURVE",
"442 66 OFFCURVE",
"442 81 CURVE SMOOTH",
"442 93 OFFCURVE",
"433 103 OFFCURVE",
"422 103 CURVE SMOOTH",
"399 103 OFFCURVE",
"360 44 OFFCURVE",
"270 44 CURVE SMOOTH",
"174 44 OFFCURVE",
"101 111 OFFCURVE",
"101 243 CURVE SMOOTH",
"101 382 OFFCURVE",
"181 446 OFFCURVE",
"271 446 CURVE SMOOTH",
"361 446 OFFCURVE",
"395 387 OFFCURVE",
"419 387 CURVE SMOOTH",
"430 387 OFFCURVE",
"439 397 OFFCURVE",
"439 409 CURVE SMOOTH",
"439 424 OFFCURVE",
"431 436 OFFCURVE",
"405 455 CURVE SMOOTH",
"368 482 OFFCURVE",
"317 495 OFFCURVE",
"269 495 CURVE SMOOTH",
"146 495 OFFCURVE",
"44 407 OFFCURVE",
"44 243 CURVE SMOOTH",
"44 98 OFFCURVE",
"122 -5 OFFCURVE",
"267 -5 CURVE SMOOTH"
);
}
);
};
layerId = "9E718F8A-2CEA-4931-B05D-987794BD97DA";
paths = (
{
closed = 1;
nodes = (
"317 -5 OFFCURVE",
"372 12 OFFCURVE",
"408 38 CURVE SMOOTH",
"434 57 OFFCURVE",
"442 66 OFFCURVE",
"442 81 CURVE SMOOTH",
"442 93 OFFCURVE",
"433 103 OFFCURVE",
"422 103 CURVE SMOOTH",
"399 103 OFFCURVE",
"360 44 OFFCURVE",
"270 44 CURVE SMOOTH",
"176 44 OFFCURVE",
"101 104 OFFCURVE",
"101 243 CURVE SMOOTH",
"101 382 OFFCURVE",
"176 446 OFFCURVE",
"271 446 CURVE SMOOTH",
"361 446 OFFCURVE",
"395 387 OFFCURVE",
"419 387 CURVE SMOOTH",
"430 387 OFFCURVE",
"439 397 OFFCURVE",
"439 409 CURVE SMOOTH",
"439 424 OFFCURVE",
"431 436 OFFCURVE",
"405 455 CURVE SMOOTH",
"368 482 OFFCURVE",
"317 495 OFFCURVE",
"269 495 CURVE SMOOTH",
"148 495 OFFCURVE",
"44 407 OFFCURVE",
"44 243 CURVE SMOOTH",
"44 79 OFFCURVE",
"148 -5 OFFCURVE",
"267 -5 CURVE SMOOTH"
);
}
);
width = 455;
},
{
background = {
paths = (
{
closed = 1;
nodes = (
"346 -6 OFFCURVE",
"404 8 OFFCURVE",
"449 36 CURVE SMOOTH",
"468 48 OFFCURVE",
"480 66 OFFCURVE",
"480 92 CURVE SMOOTH",
"480 123 OFFCURVE",
"465 153 OFFCURVE",
"434 153 CURVE SMOOTH",
"391 153 OFFCURVE",
"365 115 OFFCURVE",
"295 115 CURVE SMOOTH",
"227 115 OFFCURVE",
"193 160 OFFCURVE",
"193 248 CURVE SMOOTH",
"193 336 OFFCURVE",
"229 380 OFFCURVE",
"297 380 CURVE SMOOTH",
"365 380 OFFCURVE",
"391 342 OFFCURVE",
"434 342 CURVE SMOOTH",
"465 342 OFFCURVE",
"480 372 OFFCURVE",
"480 403 CURVE SMOOTH",
"480 429 OFFCURVE",
"468 447 OFFCURVE",
"449 459 CURVE SMOOTH",
"404 487 OFFCURVE",
"346 501 OFFCURVE",
"295 501 CURVE SMOOTH",
"134 501 OFFCURVE",
"33 393 OFFCURVE",
"33 245 CURVE SMOOTH",
"33 100 OFFCURVE",
"123 -6 OFFCURVE",
"286 -6 CURVE SMOOTH"
);
}
);
};
layerId = "E1B555A7-F4E1-459C-9C1A-AE952106EEF9";
paths = (
{
closed = 1;
nodes = (
"346 -6 OFFCURVE",
"404 8 OFFCURVE",
"449 36 CURVE SMOOTH",
"468 48 OFFCURVE",
"480 66 OFFCURVE",
"480 92 CURVE SMOOTH",
"480 123 OFFCURVE",
"465 153 OFFCURVE",
"434 153 CURVE SMOOTH",
"391 153 OFFCURVE",
"362 113 OFFCURVE",
"305 113 CURVE SMOOTH",
"232 113 OFFCURVE",
"193 162 OFFCURVE",
"193 248 CURVE SMOOTH",
"193 334 OFFCURVE",
"232 382 OFFCURVE",
"305 382 CURVE SMOOTH",
"362 382 OFFCURVE",
"391 342 OFFCURVE",
"434 342 CURVE SMOOTH",
"465 342 OFFCURVE",
"480 372 OFFCURVE",
"480 403 CURVE SMOOTH",
"480 429 OFFCURVE",
"468 447 OFFCURVE",
"449 459 CURVE SMOOTH",
"404 487 OFFCURVE",
"346 501 OFFCURVE",
"295 501 CURVE SMOOTH",
"134 501 OFFCURVE",
"33 393 OFFCURVE",
"33 245 CURVE SMOOTH",
"33 100 OFFCURVE",
"123 -6 OFFCURVE",
"286 -6 CURVE SMOOTH"
);
}
);
width = 498;
}
);
leftMetricsKey = o;
unicode = 0063;
userData = {
anchors = (
);
b = {
};
com.typemytype.robofont.layerData = {
b = {
anchors = (
);
components = (
);
contours = (
);
lib = {
};
name = c;
unicodes = (
);
width = 956.1410;
};
};
components = (
);
contours = (
);
lib = {
};
name = c;
unicodes = (
);
width = 992;
};
},
{
color = 4;
glyphname = d;
lastChange = "2016-08-12 20:58:44 +0000";
layers = (
{
background = {
paths = (
{
closed = 1;
nodes = (
"1128 24 LINE SMOOTH",
"1128 6 OFFCURVE",
"1140 -4 OFFCURVE",
"1156 -4 CURVE SMOOTH",
"1172 -4 OFFCURVE",
"1184 6 OFFCURVE",
"1184 24 CURVE SMOOTH",
"1184 682 LINE SMOOTH",
"1184 700 OFFCURVE",
"1172 710 OFFCURVE",
"1156 710 CURVE SMOOTH",
"1140 710 OFFCURVE",
"1128 700 OFFCURVE",
"1128 682 CURVE SMOOTH",
"1128 360 LINE",
"1139 379 LINE",
"1118 447 OFFCURVE",
"1050 495 OFFCURVE",
"966 495 CURVE SMOOTH",
"837 495 OFFCURVE",
"744 402 OFFCURVE",
"744 245 CURVE SMOOTH",
"744 88 OFFCURVE",
"837 -5 OFFCURVE",
"966 -5 CURVE SMOOTH",
"1050 -5 OFFCURVE",
"1118 43 OFFCURVE",
"1139 111 CURVE",
"1128 130 LINE"
);
},
{
closed = 1;
nodes = (
"1075 446 OFFCURVE",
"1128 368 OFFCURVE",
"1128 245 CURVE SMOOTH",
"1128 122 OFFCURVE",
"1075 44 OFFCURVE",
"965 44 CURVE SMOOTH",
"864 44 OFFCURVE",
"801 117 OFFCURVE",
"801 245 CURVE SMOOTH",
"801 368 OFFCURVE",
"864 446 OFFCURVE",
"966 446 CURVE SMOOTH"
);
},
{
closed = 1;
nodes = (
"137 495 OFFCURVE",
"44 402 OFFCURVE",
"44 245 CURVE SMOOTH",
"44 88 OFFCURVE",
"137 -5 OFFCURVE",
"266 -5 CURVE SMOOTH",
"350 -5 OFFCURVE",
"417 40 OFFCURVE",
"439 117 CURVE",
"428 135 LINE",
"428 -192 LINE SMOOTH",
"428 -210 OFFCURVE",
"440 -220 OFFCURVE",
"456 -220 CURVE SMOOTH",
"472 -220 OFFCURVE",
"484 -210 OFFCURVE",
"484 -192 CURVE SMOOTH",
"484 466 LINE SMOOTH",
"484 484 OFFCURVE",
"472 494 OFFCURVE",
"456 494 CURVE SMOOTH",
"440 494 OFFCURVE",
"428 484 OFFCURVE",
"428 466 CURVE SMOOTH",
"428 356 LINE",
"439 375 LINE",
"418 446 OFFCURVE",
"350 495 OFFCURVE",
"266 495 CURVE SMOOTH"
);
},
{
closed = 1;
nodes = (
"375 446 OFFCURVE",
"428 368 OFFCURVE",
"428 245 CURVE SMOOTH",
"428 122 OFFCURVE",
"375 44 OFFCURVE",
"266 44 CURVE SMOOTH",
"159 44 OFFCURVE",
"101 122 OFFCURVE",
"101 245 CURVE SMOOTH",
"101 373 OFFCURVE",
"159 446 OFFCURVE",
"265 446 CURVE SMOOTH"
);
}
);
};
layerId = "9E718F8A-2CEA-4931-B05D-987794BD97DA";
paths = (
{
closed = 1;
nodes = (
"350 -5 OFFCURVE",
"416 40 OFFCURVE",
"439 117 CURVE",
"428 135 LINE",
"428 24 LINE SMOOTH",
"428 6 OFFCURVE",
"440 -4 OFFCURVE",
"456 -4 CURVE SMOOTH",
"472 -4 OFFCURVE",
"484 6 OFFCURVE",
"484 24 CURVE SMOOTH",
"484 682 LINE SMOOTH",
"484 700 OFFCURVE",
"472 710 OFFCURVE",
"456 710 CURVE SMOOTH",
"440 710 OFFCURVE",
"428 700 OFFCURVE",
"428 682 CURVE SMOOTH",
"428 355 LINE",
"439 373 LINE",
"416 450 OFFCURVE",
"350 495 OFFCURVE",
"260 495 CURVE SMOOTH",
"136 495 OFFCURVE",
"44 404 OFFCURVE",
"44 247 CURVE SMOOTH",
"44 90 OFFCURVE",
"136 -5 OFFCURVE",
"260 -5 CURVE SMOOTH"
);
},
{
closed = 1;
nodes = (
"159 44 OFFCURVE",
"101 124 OFFCURVE",
"101 247 CURVE SMOOTH",
"101 370 OFFCURVE",
"159 446 OFFCURVE",
"266 446 CURVE SMOOTH",
"375 446 OFFCURVE",
"428 368 OFFCURVE",
"428 245 CURVE SMOOTH",
"428 122 OFFCURVE",
"375 44 OFFCURVE",
"265 44 CURVE SMOOTH"
);
}
);
width = 563;
},
{
background = {
paths = (
{
closed = 1;
nodes = (
"325 -6 OFFCURVE",
"390 23 OFFCURVE",
"416 100 CURVE",
"404 118 LINE",
"404 68 LINE SMOOTH",
"404 17 OFFCURVE",
"441 -5 OFFCURVE",
"481 -5 CURVE SMOOTH",
"521 -5 OFFCURVE",
"558 17 OFFCURVE",
"558 68 CURVE SMOOTH",
"558 639 LINE SMOOTH",
"558 687 OFFCURVE",
"519 710 OFFCURVE",
"478 710 CURVE SMOOTH",
"437 710 OFFCURVE",
"402 687 OFFCURVE",
"402 642 CURVE SMOOTH",
"402 380 LINE",
"416 397 LINE",
"390 471 OFFCURVE",
"325 501 OFFCURVE",
"254 501 CURVE SMOOTH",
"155 501 OFFCURVE",
"33 437 OFFCURVE",
"33 248 CURVE SMOOTH",
"33 58 OFFCURVE",
"155 -6 OFFCURVE",
"254 -6 CURVE SMOOTH"
);
},
{
closed = 1;
nodes = (
"221 112 OFFCURVE",
"188 162 OFFCURVE",
"188 248 CURVE SMOOTH",
"188 333 OFFCURVE",
"221 383 OFFCURVE",
"298 383 CURVE SMOOTH",
"363 383 OFFCURVE",
"402 343 OFFCURVE",
"402 248 CURVE SMOOTH",
"402 152 OFFCURVE",
"363 112 OFFCURVE",
"298 112 CURVE SMOOTH"
);
}
);
};
layerId = "E1B555A7-F4E1-459C-9C1A-AE952106EEF9";
paths = (
{
closed = 1;
nodes = (
"321 -6 OFFCURVE",
"391 29 OFFCURVE",
"415 96 CURVE",
"404 118 LINE",
"404 68 LINE SMOOTH",
"403 17 OFFCURVE",
"441 -5 OFFCURVE",
"481 -5 CURVE SMOOTH",
"521 -5 OFFCURVE",
"558 17 OFFCURVE",
"558 68 CURVE SMOOTH",
"558 639 LINE SMOOTH",
"558 687 OFFCURVE",
"519 710 OFFCURVE",
"478 710 CURVE SMOOTH",
"437 710 OFFCURVE",
"402 687 OFFCURVE",
"402 642 CURVE SMOOTH",
"402 380 LINE",
"415 399 LINE",
"391 466 OFFCURVE",
"321 501 OFFCURVE",
"250 501 CURVE SMOOTH",
"156 501 OFFCURVE",
"33 438 OFFCURVE",
"33 250 CURVE SMOOTH",
"33 62 OFFCURVE",
"156 -6 OFFCURVE",
"250 -6 CURVE SMOOTH"
);
},
{
closed = 1;
nodes = (
"226 112 OFFCURVE",
"188 166 OFFCURVE",
"188 250 CURVE SMOOTH",
"188 334 OFFCURVE",
"226 383 OFFCURVE",
"296 383 CURVE SMOOTH",
"358 383 OFFCURVE",
"404 343 OFFCURVE",
"404 248 CURVE SMOOTH",
"404 152 OFFCURVE",
"358 112 OFFCURVE",
"296 112 CURVE SMOOTH"
);
}
);
width = 615;
}
);
leftMetricsKey = o;
rightMetricsKey = "=|n";
unicode = 0064;
userData = {
anchors = (
);
b = {
};
com.typemytype.robofont.layerData = {
b = {
anchors = (
);
components = (
);
contours = (
);
lib = {
};
name = d;
unicodes = (
);
width = 1181;
};
};
components = (
);
contours = (
);
lib = {
};
name = d;
unicodes = (
);
width = 1207;
};
},
{
color = 3;
glyphname = eth;
lastChange = "2016-08-12 19:26:31 +0000";
layers = (
{
background = {
paths = (
{
closed = 1;
nodes = (
"1155 -16 OFFCURVE",
"1208 139 OFFCURVE",
"1208 297 CURVE SMOOTH",
"1208 362 OFFCURVE",
"1203 438 OFFCURVE",
"1186 512 CURVE",
"1253 512 LINE SMOOTH",
"1271 512 OFFCURVE",
"1282 527 OFFCURVE",
"1282 541 CURVE SMOOTH",
"1282 555 OFFCURVE",
"1273 569 OFFCURVE",
"1253 569 CURVE SMOOTH",
"1170 569 LINE",
"1153 619 OFFCURVE",
"1099 737 OFFCURVE",
"1051 737 CURVE SMOOTH",
"1034 737 OFFCURVE",
"1019 724 OFFCURVE",
"1019 709 CURVE SMOOTH",
"1019 702 OFFCURVE",
"1022 694 OFFCURVE",
"1030 688 CURVE",
"1063 650 OFFCURVE",
"1083 611 OFFCURVE",
"1100 569 CURVE",
"1016 569 LINE SMOOTH",
"996 569 OFFCURVE",
"987 554 OFFCURVE",
"987 540 CURVE SMOOTH",
"987 526 OFFCURVE",
"996 512 OFFCURVE",
"1016 512 CURVE SMOOTH",
"1119 512 LINE",
"1135 436 OFFCURVE",
"1139 384 OFFCURVE",
"1139 328 CURVE",
"1139 320 LINE",
"1110 393 OFFCURVE",
"1038 430 OFFCURVE",
"957 430 CURVE SMOOTH",
"820 430 OFFCURVE",
"745 335 OFFCURVE",
"745 210 CURVE SMOOTH",
"745 83 OFFCURVE",
"826 -16 OFFCURVE",
"962 -16 CURVE SMOOTH"
);
},
{
closed = 1;
nodes = (
"868 40 OFFCURVE",
"812 111 OFFCURVE",
"812 205 CURVE SMOOTH",
"812 294 OFFCURVE",
"854 379 OFFCURVE",
"959 379 CURVE SMOOTH",
"1070 379 OFFCURVE",
"1129 301 OFFCURVE",
"1129 201 CURVE SMOOTH",
"1129 117 OFFCURVE",
"1063 40 OFFCURVE",
"971 40 CURVE SMOOTH"
);
},
{
closed = 1;
nodes = (
"433 -6 OFFCURVE",
"542 91 OFFCURVE",
"542 290 CURVE SMOOTH",
"542 473 OFFCURVE",
"390 645 OFFCURVE",
"223 706 CURVE SMOOTH",
"136 738 OFFCURVE",
"87 637 OFFCURVE",
"165 602 CURVE SMOOTH",
"254 562 OFFCURVE",
"396 470 OFFCURVE",
"396 326 CURVE",
"437 321 LINE",
"407 429 OFFCURVE",
"331 455 OFFCURVE",
"252 455 CURVE SMOOTH",
"109 455 OFFCURVE",
"11 358 OFFCURVE",
"11 226 CURVE SMOOTH",
"11 94 OFFCURVE",
"108 -6 OFFCURVE",
"267 -6 CURVE SMOOTH"
);
},
{
closed = 1;
nodes = (
"201 112 OFFCURVE",
"166 153 OFFCURVE",
"166 226 CURVE SMOOTH",
"166 299 OFFCURVE",
"201 340 OFFCURVE",
"273 340 CURVE SMOOTH",
"345 340 OFFCURVE",
"380 299 OFFCURVE",
"380 226 CURVE SMOOTH",
"380 153 OFFCURVE",
"345 112 OFFCURVE",
"273 112 CURVE SMOOTH"
);
},
{
closed = 1;
nodes = (
"491 553 LINE SMOOTH",
"551 569 OFFCURVE",
"529 654 OFFCURVE",
"470 638 CURVE SMOOTH",
"161 556 LINE SMOOTH",
"102 540 OFFCURVE",
"124 455 OFFCURVE",
"183 471 CURVE SMOOTH"
);
}
);
};
guideLines = (
{
angle = 90;
position = "{161, 496}";
},
{
angle = 90;
position = "{489, 496}";
}
);
layerId = "9E718F8A-2CEA-4931-B05D-987794BD97DA";
paths = (
{
closed = 1;
nodes = (
"407 -5 OFFCURVE",
"489 88 OFFCURVE",
"489 279 CURVE SMOOTH",
"489 516 OFFCURVE",
"350 645 OFFCURVE",
"207 704 CURVE SMOOTH",
"161 723 OFFCURVE",
"141 676 OFFCURVE",
"185 658 CURVE SMOOTH",
"322 602 OFFCURVE",
"436 482 OFFCURVE",
"436 291 CURVE",
"462 289 LINE",
"443 383 OFFCURVE",
"386 455 OFFCURVE",
"265 455 CURVE SMOOTH",
"137 455 OFFCURVE",
"44 369 OFFCURVE",
"44 225 CURVE SMOOTH",
"44 79 OFFCURVE",
"137 -5 OFFCURVE",
"264 -5 CURVE SMOOTH"
);
},
{
closed = 1;
nodes = (
"159 44 OFFCURVE",
"101 110 OFFCURVE",
"101 225 CURVE SMOOTH",
"101 336 OFFCURVE",
"159 406 OFFCURVE",
"265 406 CURVE SMOOTH",
"371 406 OFFCURVE",
"429 336 OFFCURVE",
"429 225 CURVE SMOOTH",
"429 110 OFFCURVE",
"366 44 OFFCURVE",
"264 44 CURVE SMOOTH"
);
},
{
closed = 1;
nodes = (
"471 625 LINE SMOOTH",
"500 637 OFFCURVE",
"483 676 OFFCURVE",
"455 665 CURVE SMOOTH",
"176 554 LINE SMOOTH",
"148 543 OFFCURVE",
"165 502 OFFCURVE",
"192 513 CURVE SMOOTH"
);
}
);
width = 533;
},
{
background = {
paths = (
{
closed = 1;
nodes = (
"455 -6 OFFCURVE",
"564 94 OFFCURVE",
"564 290 CURVE SMOOTH",
"564 473 OFFCURVE",
"412 644 OFFCURVE",
"245 706 CURVE SMOOTH",
"158 738 OFFCURVE",
"109 637 OFFCURVE",
"187 602 CURVE SMOOTH",
"276 561 OFFCURVE",
"418 470 OFFCURVE",
"418 326 CURVE",
"459 321 LINE",
"429 429 OFFCURVE",
"353 455 OFFCURVE",
"274 455 CURVE SMOOTH",
"131 455 OFFCURVE",
"33 358 OFFCURVE",
"33 226 CURVE SMOOTH",
"33 94 OFFCURVE",
"130 -6 OFFCURVE",
"289 -6 CURVE SMOOTH"
);
},
{
closed = 1;
nodes = (
"223 112 OFFCURVE",
"188 153 OFFCURVE",
"188 226 CURVE SMOOTH",
"188 299 OFFCURVE",
"223 340 OFFCURVE",
"295 340 CURVE SMOOTH",
"367 340 OFFCURVE",
"402 299 OFFCURVE",
"402 226 CURVE SMOOTH",
"402 156 OFFCURVE",
"367 112 OFFCURVE",
"295 112 CURVE SMOOTH"
);
},
{
closed = 1;
nodes = (
"513 553 LINE SMOOTH",
"573 569 OFFCURVE",
"551 654 OFFCURVE",
"492 638 CURVE SMOOTH",
"183 556 LINE SMOOTH",
"124 540 OFFCURVE",
"146 455 OFFCURVE",
"205 471 CURVE SMOOTH"
);
}
);
};
guideLines = (
{
angle = 90;
position = "{148, 292}";
},
{
angle = 90;
position = "{563, 292}";
}
);
layerId = "E1B555A7-F4E1-459C-9C1A-AE952106EEF9";
paths = (
{
closed = 1;
nodes = (
"455 -6 OFFCURVE",
"564 94 OFFCURVE",
"564 290 CURVE SMOOTH",
"564 473 OFFCURVE",
"412 644 OFFCURVE",
"245 706 CURVE SMOOTH",
"158 738 OFFCURVE",
"109 637 OFFCURVE",
"187 602 CURVE SMOOTH",
"276 561 OFFCURVE",
"418 470 OFFCURVE",
"418 326 CURVE",
"459 321 LINE",
"429 429 OFFCURVE",
"353 455 OFFCURVE",
"274 455 CURVE SMOOTH",
"131 455 OFFCURVE",
"33 358 OFFCURVE",
"33 226 CURVE SMOOTH",
"33 94 OFFCURVE",
"130 -6 OFFCURVE",
"289 -6 CURVE SMOOTH"
);
},
{
closed = 1;
nodes = (
"223 112 OFFCURVE",
"188 153 OFFCURVE",
"188 226 CURVE SMOOTH",
"188 299 OFFCURVE",
"223 340 OFFCURVE",
"295 340 CURVE SMOOTH",
"367 340 OFFCURVE",
"402 299 OFFCURVE",
"402 226 CURVE SMOOTH",
"402 156 OFFCURVE",
"367 112 OFFCURVE",
"295 112 CURVE SMOOTH"
);
},
{
closed = 1;
nodes = (
"522 561 LINE SMOOTH",
"582 577 OFFCURVE",
"562 656 OFFCURVE",
"503 640 CURVE SMOOTH",
"183 555 LINE SMOOTH",
"124 539 OFFCURVE",
"144 460 OFFCURVE",
"203 476 CURVE SMOOTH"
);
}
);
width = 597;
}
);
leftMetricsKey = o;
rightMetricsKey = o;
unicode = 00F0;
userData = {
com.typemytype.robofont.layerData = {
b = {
anchors = (
);
components = (
);
contours = (
);
lib = {
};
name = eth;
unicodes = (
);
width = 1230;
};
};
};
},
{
color = 4;
glyphname = e;
lastChange = "2016-08-12 08:27:51 +0000";
layers = (
{
background = {
paths = (
{
closed = 1;
nodes = (
"330 -5 OFFCURVE",
"383 8 OFFCURVE",
"433 38 CURVE SMOOTH",
"458 53 OFFCURVE",
"467 66 OFFCURVE",
"467 80 CURVE SMOOTH",
"467 93 OFFCURVE",
"458 103 OFFCURVE",
"447 103 CURVE SMOOTH",
"424 103 OFFCURVE",
"382 44 OFFCURVE",
"281 44 CURVE SMOOTH",
"178 44 OFFCURVE",
"101 106 OFFCURVE",
"101 246 CURVE SMOOTH",
"101 380 OFFCURVE",
"172 449 OFFCURVE",
"269 449 CURVE SMOOTH",
"362 449 OFFCURVE",
"425 389 OFFCURVE",
"421 256 CURVE",
"441 279 LINE",
"91 279 LINE",
"92 236 LINE",
"438 236 LINE SMOOTH",
"462 236 OFFCURVE",
"471 247 OFFCURVE",
"471 271 CURVE SMOOTH",
"471 412 OFFCURVE",
"394 495 OFFCURVE",
"270 495 CURVE SMOOTH",
"138 495 OFFCURVE",
"44 398 OFFCURVE",
"44 242 CURVE SMOOTH",
"44 82 OFFCURVE",
"141 -5 OFFCURVE",
"282 -5 CURVE SMOOTH"
);
}
);
};
layerId = "9E718F8A-2CEA-4931-B05D-987794BD97DA";
paths = (
{
closed = 1;
nodes = (
"330 -5 OFFCURVE",
"383 8 OFFCURVE",
"433 38 CURVE SMOOTH",
"458 53 OFFCURVE",
"467 66 OFFCURVE",
"467 80 CURVE SMOOTH",
"467 93 OFFCURVE",
"458 103 OFFCURVE",
"447 103 CURVE SMOOTH",
"424 103 OFFCURVE",
"382 44 OFFCURVE",
"281 44 CURVE SMOOTH",
"173 44 OFFCURVE",
"101 106 OFFCURVE",
"101 246 CURVE SMOOTH",
"101 381 OFFCURVE",
"172 449 OFFCURVE",
"270 449 CURVE SMOOTH",
"362 449 OFFCURVE",
"425 390 OFFCURVE",
"421 256 CURVE",
"441 279 LINE",
"91 279 LINE",
"92 236 LINE",
"438 236 LINE SMOOTH",
"462 236 OFFCURVE",
"471 247 OFFCURVE",
"471 271 CURVE SMOOTH",
"471 396 OFFCURVE",
"405 495 OFFCURVE",
"270 495 CURVE SMOOTH",
"138 495 OFFCURVE",
"44 396 OFFCURVE",
"44 244 CURVE SMOOTH",
"44 82 OFFCURVE",
"141 -5 OFFCURVE",
"282 -5 CURVE SMOOTH"
);
}
);
width = 515;
},
{
background = {
paths = (
{
closed = 1;
nodes = (
"361 -6 OFFCURVE",
"426 13 OFFCURVE",
"466 35 CURVE SMOOTH",
"488 47 OFFCURVE",
"504 66 OFFCURVE",
"504 92 CURVE SMOOTH",
"504 122 OFFCURVE",
"489 150 OFFCURVE",
"458 150 CURVE SMOOTH",
"419 150 OFFCURVE",
"380 110 OFFCURVE",
"305 110 CURVE SMOOTH",
"227 110 OFFCURVE",
"182 152 OFFCURVE",
"182 251 CURVE SMOOTH",
"182 350 OFFCURVE",
"220 394 OFFCURVE",
"281 394 CURVE SMOOTH",
"340 394 OFFCURVE",
"370 350 OFFCURVE",
"370 278 CURVE",
"408 293 LINE",
"172 293 LINE",
"171 216 LINE",
"461 216 LINE SMOOTH",
"488 216 OFFCURVE",
"501 234 OFFCURVE",
"501 262 CURVE SMOOTH",
"501 403 OFFCURVE",
"422 501 OFFCURVE",
"278 501 CURVE SMOOTH",
"135 501 OFFCURVE",
"33 399 OFFCURVE",
"33 247 CURVE SMOOTH",
"33 92 OFFCURVE",
"135 -6 OFFCURVE",
"296 -6 CURVE SMOOTH"
);
}
);
};
layerId = "E1B555A7-F4E1-459C-9C1A-AE952106EEF9";
paths = (
{
closed = 1;
nodes = (
"361 -6 OFFCURVE",
"426 13 OFFCURVE",
"466 35 CURVE SMOOTH",
"488 47 OFFCURVE",
"504 66 OFFCURVE",
"504 92 CURVE SMOOTH",
"504 122 OFFCURVE",
"489 150 OFFCURVE",
"458 150 CURVE SMOOTH",
"419 150 OFFCURVE",
"378 110 OFFCURVE",
"303 110 CURVE SMOOTH",
"220 110 OFFCURVE",
"182 150 OFFCURVE",
"182 263 CURVE SMOOTH",
"182 353 OFFCURVE",
"221 394 OFFCURVE",
"280 394 CURVE SMOOTH",
"339 394 OFFCURVE",
"370 353 OFFCURVE",
"370 278 CURVE",
"408 293 LINE",
"172 293 LINE",
"171 216 LINE",
"461 216 LINE SMOOTH",
"488 216 OFFCURVE",
"501 234 OFFCURVE",
"501 262 CURVE SMOOTH",
"501 399 OFFCURVE",
"420 501 OFFCURVE",
"276 501 CURVE SMOOTH",
"137 501 OFFCURVE",
"33 399 OFFCURVE",
"33 247 CURVE SMOOTH",
"33 92 OFFCURVE",
"135 -6 OFFCURVE",
"300 -6 CURVE SMOOTH"
);
}
);
width = 533;
}
);
leftMetricsKey = o;
unicode = 0065;
userData = {
anchors = (
);
b = {
};
com.typemytype.robofont.layerData = {
b = {
anchors = (
);
components = (
);
contours = (
);
lib = {
};
name = e;
unicodes = (
);
width = 1132;
};
};
components = (
);
contours = (
);
lib = {
};
name = e;
unicodes = (
);
width = 1132;
};
},
{
color = 3;
glyphname = f;
lastChange = "2016-08-12 12:45:09 +0000";
layers = (
{
background = {
paths = (
{
closed = 1;
nodes = (
"549 -5 OFFCURVE",
"561 5 OFFCURVE",
"561 23 CURVE SMOOTH",
"561 578 LINE SMOOTH",
"561 633 OFFCURVE",
"585 658 OFFCURVE",
"639 658 CURVE SMOOTH",
"702 658 LINE SMOOTH",
"723 658 OFFCURVE",
"730 669 OFFCURVE",
"730 682 CURVE SMOOTH",
"730 695 OFFCURVE",
"721 705 OFFCURVE",
"698 705 CURVE SMOOTH",
"634 705 LINE SMOOTH",
"552 705 OFFCURVE",
"505 661 OFFCURVE",
"505 580 CURVE SMOOTH",
"505 23 LINE SMOOTH",
"505 5 OFFCURVE",
"517 -5 OFFCURVE",
"533 -5 CURVE SMOOTH"
);
},
{
closed = 1;
nodes = (
"519 433 LINE",
"519 480 LINE",
"432 480 LINE SMOOTH",
"418 480 OFFCURVE",
"409 469 OFFCURVE",
"409 456 CURVE SMOOTH",
"409 443 OFFCURVE",
"418 433 OFFCURVE",
"432 433 CURVE SMOOTH"
);
},
{
closed = 1;
nodes = (
"685 433 LINE SMOOTH",
"699 433 OFFCURVE",
"708 443 OFFCURVE",
"708 456 CURVE SMOOTH",
"708 469 OFFCURVE",
"699 480 OFFCURVE",
"685 480 CURVE SMOOTH",
"552 480 LINE",
"552 433 LINE"
);
},
{
closed = 1;
nodes = (
"149 -5 OFFCURVE",
"161 5 OFFCURVE",
"161 23 CURVE SMOOTH",
"161 526 LINE SMOOTH",
"161 611 OFFCURVE",
"197 647 OFFCURVE",
"265 653 CURVE SMOOTH",
"302 656 LINE SMOOTH",
"323 658 OFFCURVE",
"330 669 OFFCURVE",
"330 682 CURVE SMOOTH",
"330 695 OFFCURVE",
"321 707 OFFCURVE",
"298 705 CURVE SMOOTH",
"261 702 LINE SMOOTH",
"158 695 OFFCURVE",
"105 630 OFFCURVE",
"105 530 CURVE SMOOTH",
"105 23 LINE SMOOTH",
"105 5 OFFCURVE",
"117 -5 OFFCURVE",
"133 -5 CURVE SMOOTH"
);
},
{
closed = 1;
nodes = (
"119 433 LINE",
"119 480 LINE",
"32 480 LINE SMOOTH",
"18 480 OFFCURVE",
"9 469 OFFCURVE",
"9 456 CURVE SMOOTH",
"9 443 OFFCURVE",
"18 433 OFFCURVE",
"32 433 CURVE SMOOTH"
);
},
{
closed = 1;
nodes = (
"285 433 LINE SMOOTH",
"299 433 OFFCURVE",
"308 443 OFFCURVE",
"308 456 CURVE SMOOTH",
"308 469 OFFCURVE",
"299 480 OFFCURVE",
"285 480 CURVE SMOOTH",
"152 480 LINE",
"152 433 LINE"
);
}
);
};
layerId = "9E718F8A-2CEA-4931-B05D-987794BD97DA";
paths = (
{
closed = 1;
nodes = (
"149 -5 OFFCURVE",
"161 5 OFFCURVE",
"161 23 CURVE SMOOTH",
"161 520 LINE SMOOTH",
"161 611 OFFCURVE",
"202 650 OFFCURVE",
"277 656 CURVE SMOOTH",
"303 658 LINE SMOOTH",
"324 660 OFFCURVE",
"330 670 OFFCURVE",
"330 683 CURVE SMOOTH",
"330 700 OFFCURVE",
"318 707 OFFCURVE",
"295 705 CURVE SMOOTH",
"269 703 LINE SMOOTH",
"161 695 OFFCURVE",
"105 625 OFFCURVE",
"105 510 CURVE SMOOTH",
"105 23 LINE SMOOTH",
"105 5 OFFCURVE",
"117 -5 OFFCURVE",
"133 -5 CURVE SMOOTH"
);
},
{
closed = 1;
nodes = (
"119 433 LINE",
"119 480 LINE",
"27 480 LINE SMOOTH",
"13 480 OFFCURVE",
"4 469 OFFCURVE",
"4 456 CURVE SMOOTH",
"4 443 OFFCURVE",
"13 433 OFFCURVE",
"27 433 CURVE SMOOTH"
);
},
{
closed = 1;
nodes = (
"285 433 LINE SMOOTH",
"299 433 OFFCURVE",
"308 443 OFFCURVE",
"308 456 CURVE SMOOTH",
"308 469 OFFCURVE",
"299 480 OFFCURVE",
"285 480 CURVE SMOOTH",
"152 480 LINE",
"152 433 LINE"
);
}
);
width = 316;
},
{
background = {
paths = (
{
closed = 1;
nodes = (
"216 -5 OFFCURVE",
"253 17 OFFCURVE",
"253 68 CURVE",
"253 528 LINE SMOOTH",
"253 569 OFFCURVE",
"274 588 OFFCURVE",
"317 588 CURVE SMOOTH",
"343 588 LINE SMOOTH",
"391 588 OFFCURVE",
"413 610 OFFCURVE",
"413 647 CURVE SMOOTH",
"413 684 OFFCURVE",
"391 705 OFFCURVE",
"343 705 CURVE SMOOTH",
"288 705 LINE SMOOTH",
"165 705 OFFCURVE",
"97 637 OFFCURVE",
"97 536 CURVE SMOOTH",
"97 68 LINE SMOOTH",
"97 17 OFFCURVE",
"134 -5 OFFCURVE",
"175 -5 CURVE SMOOTH"
);
},
{
closed = 1;
nodes = (
"160 374 LINE",
"160 490 LINE",
"49 490 LINE SMOOTH",
"1 490 OFFCURVE",
"-21 469 OFFCURVE",
"-21 432 CURVE SMOOTH",
"-21 395 OFFCURVE",
"1 374 OFFCURVE",
"49 374 CURVE SMOOTH"
);
},
{
closed = 1;
nodes = (
"335 374 LINE SMOOTH",
"383 374 OFFCURVE",
"405 395 OFFCURVE",
"405 432 CURVE SMOOTH",
"405 469 OFFCURVE",
"383 490 OFFCURVE",
"335 490 CURVE SMOOTH",
"228 490 LINE",
"228 374 LINE"
);
}
);
};
layerId = "E1B555A7-F4E1-459C-9C1A-AE952106EEF9";
paths = (
{
closed = 1;
nodes = (
"216 -5 OFFCURVE",
"253 17 OFFCURVE",
"253 68 CURVE SMOOTH",
"253 503 LINE SMOOTH",
"253 552 OFFCURVE",
"272 584 OFFCURVE",
"327 588 CURVE SMOOTH",
"353 590 LINE SMOOTH",
"390 593 OFFCURVE",
"413 611 OFFCURVE",
"413 648 CURVE SMOOTH",
"413 685 OFFCURVE",
"391 707 OFFCURVE",
"323 702 CURVE SMOOTH",
"297 700 LINE SMOOTH",
"175 691 OFFCURVE",
"97 617 OFFCURVE",
"97 486 CURVE SMOOTH",
"97 68 LINE SMOOTH",
"97 17 OFFCURVE",
"134 -5 OFFCURVE",
"175 -5 CURVE SMOOTH"
);
},
{
closed = 1;
nodes = (
"160 374 LINE",
"160 490 LINE",
"59 490 LINE SMOOTH",
"11 490 OFFCURVE",
"-11 469 OFFCURVE",
"-11 432 CURVE SMOOTH",
"-11 395 OFFCURVE",
"11 374 OFFCURVE",
"59 374 CURVE SMOOTH"
);
},
{
closed = 1;
nodes = (
"320 374 LINE SMOOTH",
"368 374 OFFCURVE",
"390 395 OFFCURVE",
"390 432 CURVE SMOOTH",
"390 469 OFFCURVE",
"368 490 OFFCURVE",
"320 490 CURVE SMOOTH",
"228 490 LINE",
"228 374 LINE"
);
}
);
width = 387;
}
);
unicode = 0066;
userData = {
anchors = (
);
b = {
};
com.typemytype.robofont.layerData = {
b = {
anchors = (
);
components = (
);
contours = (
);
lib = {
};
name = f;
unicodes = (
);
width = 696;
};
};
components = (
);
contours = (
);
lib = {
};
name = f;
unicodes = (
);
width = 723;
};
},
